
<svg xmlns="http://www.w3.org/2000/svg" version="1.1" xmlns:xlink="http://www.w3.org/1999/xlink" preserveAspectRatio="none" x="0px" y="0px" width="256px" height="256px" viewBox="0 0 256 256">
<defs>
<g id="Layer0_0_FILL">
<path fill="#669933" stroke="none" d="
M 232.65 107.4
Q 232.75 107.25 171.95 100.05 114.85 93.25 111.3 92.75 112.5 92 104.4 61.9 95.2 29.15 95.35 28.95 95.45 28.8 83.7 19.15 71.8 9.45 71.8 9.35 47.3 104.05 47.3 104.5 47.3 104.8 30.75 118.5 14.1 132.2 13.95 131.95 13.75 131.7 14.7 187.15 15.6 242.65 15.9 242.75 16.15 242.9 46.5 240.3 76.7 237.8 76.7 237.85 76.7 237.9 138 238.9 199.3 239.9 199.3 240.15 199.3 240.3 215.9 174.05 232.5 107.6 232.65 107.4 Z"/>
</g>
</defs>

<g transform="matrix( 1, 0, 0, 1, 0,0) ">
<use xlink:href="#Layer0_0_FILL"/>
</g>
</svg>
