
<svg xmlns="http://www.w3.org/2000/svg" version="1.1" xmlns:xlink="http://www.w3.org/1999/xlink" preserveAspectRatio="none" x="0px" y="0px" width="302px" height="75px" viewBox="0 0 302 75">
<defs>
<g id="Symbol_1_0_Layer0_0_FILL">
<path fill="#FF0000" stroke="none" d="
M 7.75 7.15
Q 8.65 6.45 8.65 5.45 8.65 4.45 7.75 3.75 6.85 3.05 5.6 3.05 4.35 3.05 3.45 3.75 2.55 4.45 2.55 5.45 2.55 6.45 3.45 7.15 4.35 7.85 5.6 7.85 6.85 7.85 7.75 7.15 Z"/>
</g>

<g id="Symbol_1_0_Layer0_0_STROKES_1_FILL">
<path fill="#666666" stroke="none" d="
M 46.45 2.75
Q 46.35 2.3 45.85 2.2
L 44.5 1.95 44.4 1.9 44.25 1.9 43.7 1.85 43.65 1.85 43.55 1.8 42.9 1.8 42.6 1.75 41 1.8 37.8 2.2 37.25 2.35
Q 35.2 2.8 33.15 3.55
L 33.05 3.55 32.9 3.6 31.7 4.1 31.45 4.15 31.25 4.25 31.2 4.25 31.2 4.3 26.9 6.4 26.65 6.5 26.45 6.65 25.55 7.2
Q 23.9 8.25 22.1 9.7
L 19 12.6
Q 17.3 14.5 16.3 15.85 15.5 16.95 15.1 17.6
L 15.05 17.65 12.05 23.15 10.5 27.1 9.5 31.2
Q 9.3 32.25 9.2 33.3
L 9.25 37.5 9.4 38.3 9.4 38.45 9.45 38.55 10.05 41.65 12.15 47.55
Q 12.15 47.7 12.25 47.6 12.4 47.6 12.3 47.5
L 10.35 40.5 10.05 38.5 10.05 38.2 10 37.95 9.95 37.45
Q 9.85 36.1 9.9 35.4
L 10.35 31.35 11.15 28.4 13.1 23.65
Q 14 21.8 15.05 20.05
L 17.35 16.65
Q 18.55 15.1 20 13.55
L 20.75 12.85 20.8 12.75 20.9 12.7 21.2 12.4 21.3 12.35 21.45 12.15 23 10.85
Q 24.9 9.4 26.35 8.5
L 27.2 7.95 27.45 7.85 27.65 7.7 31.8 5.7 31.9 5.7 33.45 5.1 33.55 5.05 33.7 5
Q 35.45 4.4 37.6 3.9
L 41.05 3.4 41.3 3.4 41.55 3.35 42.55 3.35
Q 42.3923828125 3.4509765625 42.2 3.55
L 39.3 5.4
Q 38.8 5.7 38.6 5.9
L 36.2 7.75 36.05 7.9 35.9 8 34 9.75
Q 31.6 12.15 29.5 14.85
L 25.65 20.45
Q 25.1 21.45 24 23.4
L 22.9 25.5 22.8 25.65 19.4 33.85 18.8 35.9
Q 18.35 37.55 18.05 39.2 17.7 41.15 17.65 42.6
L 17.65 43.15 17.6 43.25 17.6 43.85 17.65 44.3 17.75 46 17.75 46.45 17.85 46.95 17.85 47.1 17.9 47.2 17.95 47.45 17.95 47.5 18 47.5 18 47.65 18.25 48.85 18.55 49.75 18.6 50 19.2 51.3 20.05 52.5 20.1 52.6 20.2 52.65 20.55 53
Q 20.65 53.1 20.7 53 20.8 52.95 20.7 52.85
L 20.2 52.35 20.1 52.15 19.8 51.75 19.2 50.5 19.15 50.3 19.05 50.1 19 49.85 18.9 49.65 18.5 47.6 18.5 47.45 18.45 47.45 18.45 47.35 18.4 47.1 18.4 47 18.35 46.9 18.25 44.3 18.3 43.9 18.3 43.05 18.35 42.65 18.35 42.45 18.4 42.25 18.85 39.35
Q 19.4 37.1 19.7 36.15
L 20.5 33.8 23.9 26.2 24 26.05 26.8 21.15 30.65 15.75
Q 32.7 13.1 35.1 10.85
L 37.05 9.05 42.95 4.95
Q 44.65 4.05 45.9 3.75 46.055078125 3.7015625 46.15 3.6
L 46.95 6.35 47 6.75 47.05 6.95 47.3 12.75 47.25 12.95 47.1 15.05 47.05 15.25 47.05 15.45 46.55 19.15 44.65 26.75 41 35.55
Q 40.55 36.55 39.5 38.5
L 38.25 40.65 38.2 40.7 38.15 40.8 35.9 44.05 35.7 44.4 33.9 46.65 33.6 46.95 33.35 47.3 32.15 48.55 32.1 48.65 29.25 51.35 27.8 52.45 27.75 52.5 27.7 52.5 27.65 52.6 27.45 52.7 27.05 52.95 26.9 53.1 26.7 53.2 24.75 54.35 24.5 54.45 24.3 54.5 23.5 54.9 23.05 55.05 23.1 55.05 21.95 55.45
Q 21.8 55.45 21.9 55.55 21.9 55.7 22 55.6
L 23.15 55.4 23.2 55.4 24.5 54.95 24.7 54.85 24.95 54.8 25.35 54.6 25.8 54.45 28.15 53.2 28.25 53.1 29.8 52.1 32.75 49.6 32.9 49.5 32.95 49.4 33.05 49.35 37.05 44.9 39.4 41.65 39.5 41.45 39.75 41.1 39.95 40.7 40.85 39.25 43.9 33.2 47.1 23.5
Q 47.5 21.8 47.7 20.15
L 47.8 19.75 48.25 11.7 48.2 11.3 48.2 10.85 47.55 6.65 47.05 5 46.85 4.65 46.8 4.45 46.3 3.5
Q 46.6169921875 3.2509765625 46.45 2.75
M 51.35 7.45
L 51.5 7.6 53.45 10.5 56.05 16 56.15 16.15 56.3 16.65 56.45 17 56.55 17.35
Q 57.6 20.3 58.1 23.15
L 58.35 25.1 58.35 25.5 58.4 25.7 58.4 25.9 58.45 26.3 58.45 27.5 58.5 27.9 58.45 29.5
Q 58.2 33 57.3 36
L 56.25 39.15 55.6 40.55 55.6 40.6 55.1 41.55 55.05 41.6 53.25 44.4 53.1 44.55 53 44.7 50.9 47.1
Q 48.85 49.15 46.3 50.9
L 45.4 51.5 45.1 51.65 44.5 52.05 44.2 52.2 44.05 52.3 43.95 52.4 43.05 52.85 42.9 52.95 42.75 53 41.05 53.9 41 53.95 40.95 53.95 40.75 54 40.6 54.1 40.55 54.15 40.5 54.15 35.6 56.15 31 57.35
Q 30.85 57.35 30.95 57.45 30.95 57.6 31.05 57.5
L 31.25 57.5 34.15 57.1 35.75 56.7
Q 37.1 56.35 37.65 56.15 39.15 55.7 39.75 55.45
L 40.85 55 40.95 55 41.15 54.9 41.3 54.85 41.35 54.85 41.4 54.8 41.45 54.8 43.25 54 43.4 53.9 43.55 53.85 44.65 53.3 44.8 53.2 47 51.95
Q 49.65 50.3 51.95 48.1
L 52.5 47.5 52.8 47.25 54.15 45.65 54.3 45.5 55.8 43.4 55.9 43.2 56.15 42.85 56.45 42.25 56.55 42.1 56.95 41.35 57 41.3 57 41.25 57.05 41.2 57.1 41.1 57.15 40.95 57.35 40.55 58.85 36.45
Q 59.5 34.05 59.65 33.05 59.95 30.75 60 29.6
L 59.9 25.75 59.85 25.55 59.85 25.35 59.6 23.3 59.5 22.9
Q 58.9 19.8 57.75 16.9
L 57.3 15.9 57.25 15.7 57.15 15.55 55.5 12.15 55.45 12.1 55.4 12 55.35 11.85
Q 54.1 9.75 52.7 7.95
L 51.1 6.15 50.35 5.45 47.7 3.45 47.55 3.45 47.55 3.6 47.95 3.9 48.05 4 48.2 4.1
Q 49.35 5.1 49.85 5.65
L 50.55 6.4 50.65 6.55 51.25 7.25 51.35 7.45 Z"/>
</g>

<path id="Symbol_1_0_Layer0_0_1_STROKES" stroke="#666666" stroke-width="1.6" stroke-linejoin="round" stroke-linecap="round" fill="none" d="
M 49.175 55
Q 51.489453125 54.884375 53.8 54.55 68.45 52.4 71.25 43.25 73.5 35.9 69.75 27.85 68.6 25.3 66.95 23.05
L 65.55 21.25
M 59.15 25.575
Q 60.400390625 25.123828125 61.4 24.55 63.9416015625 23.0712890625 63.975 21.25 63.93671875 21.1072265625 63.9 20.975
M 57.7 9.825
Q 57.9294921875 10.3673828125 57.7 10.75 57.018359375 11.8654296875 55.025 12.4
M 56.275 40.975
Q 61.8390625 39.664453125 63.7 36.45
M 57.7 9.825
Q 57.194921875 8.5970703125 54.35 6.55 54.246875 6.4763671875 54.15 6.4
M 45.45 26.85
Q 49.709375 27.32109375 54.25 26.7 57.05234375 26.3220703125 59.15 25.575
M 47.775 12.725
Q 49.9708984375 13.0037109375 52.1 12.85 53.811328125 12.7359375 55.025 12.4
M 47.775 12.725
Q 44.9453125 12.387890625 42 11.35 38.76484375 10.23125 36.4 8.625
M 27.3 19.225
Q 30.4375 21.6650390625 34.6 23.7 39.7734375 26.24375 45.45 26.85
M 38.85 41.125
Q 44.4029296875 42.1482421875 50.1 41.8 53.607421875 41.6060546875 56.275 40.975
M 41.175 54.4
Q 41.874609375 54.3896484375 42.6 54.35 50.673828125 53.888671875 54.025 51.8 54.79765625 51.171875 55.55 50.475
M 54.15 6.4
Q 50.3794921875 3.7517578125 46 2 41.75 0.3 37.7 0.2 33.6 0.1 32.25 1.75 31.275 2.8990234375 32.35 4.675
M 36.4 8.625
Q 34.8662109375 7.5951171875 33.7 6.35 32.8345703125 5.454296875 32.35 4.675
M 20.7 11.925
Q 20.9994140625 12.4287109375 21.35 12.95 23.634375 16.3630859375 27.3 19.225
M 20.125 33.4
Q 23.48671875 35.73984375 27.8 37.65 33.2515625 40.0869140625 38.85 41.125
M 29.525 51.725
Q 34.5412109375 53.616796875 39.575 54.425 40.36015625 54.4259765625 41.175 54.4
M 40.725 54.6
Q 44.9458984375 55.182421875 49.175 55
M 20 4.675
Q 20.120703125 4.594140625 20.25 4.525
M 10.1 14.7
Q 9.8005859375 15.506640625 9.675 16.35 9.05859375 20.2140625 11.925 24.875
M 20 4.675
Q 17.824609375 7.1212890625 20.7 11.925
M 3.55 7.6
Q 1.65 9.85 0.8 12.8 -0.25 16.3 0.05 21.35 0.45 28.35 4.4 34 6.0498046875 36.386328125 8.4 38.675
M 22.05 2.05
Q 20 1.9 17.3 2.05 11.8 2.35 8.5 4.1
M 11.925 24.875
Q 12.18984375 25.3384765625 12.5 25.8 15.328125 30.0421875 20.125 33.4
M 18.025 45.975
Q 20.5982421875 47.5359375 23.55 49.05 26.536328125 50.5779296875 29.525 51.725
M 28 52.825
Q 33.037109375 54.44375 39.575 54.425 40.1458984375 54.5212890625 40.725 54.6
M 8.4 38.675
Q 9.1685546875 39.42578125 10.025 40.175
M 7.25 30.3
Q 6.9517578125 33.9171875 9.725 38.325 10.653515625 39.811328125 11.95 41.4 12.41015625 41.962890625 12.9 42.5 15.240234375 44.2658203125 18.025 45.975
M 18.225 47.475
Q 21.12421875 49.712109375 24.5 51.4 26.152734375 52.2205078125 28 52.825
M 18.225 47.475
Q 15.321484375 45.261328125 12.9 42.5 11.359765625 41.3462890625 10.025 40.175"/>

<path id="Symbol_1_0_Layer0_0_2_STROKES" stroke="#666666" stroke-width="2.6" stroke-linejoin="round" stroke-linecap="round" fill="none" d="
M 57.7 9.825
Q 62.174609375 14.821484375 63.9 20.975
M 54.15 6.4
Q 55.3275390625 7.3775390625 56.45 8.5 57.10234375 9.15234375 57.7 9.825
M 55.55 50.475
Q 56.0037109375 50.0462890625 56.45 49.6 64.95 41.1 64.95 29.05 64.95 24.9443359375 63.975 21.25
M 54.025 51.8
Q 51.7203125 53.6732421875 49.175 55
M 20.25 4.525
Q 27.1296875 0 35.9 0 46.3587890625 0 54.15 6.4
M 9.675 16.35
Q 11.743359375 12.106640625 15.35 8.5 17.5544921875 6.2955078125 20 4.675
M 8.4 38.675
Q 6.85 34.1826171875 6.85 29.05 6.85 22.112890625 9.675 16.35
M 23.125 55.25
Q 28.909765625 58.1 35.9 58.1 43.189453125 58.1 49.175 55
M 11.075 44.275
Q 12.84140625 47.09140625 15.35 49.6 18.919140625 53.169140625 23.125 55.25
M 11.075 44.275
Q 9.403125 41.611328125 8.4 38.675"/>

<path id="Symbol_1_0_Layer0_0_3_STROKES" stroke="#666666" stroke-width="1" stroke-linejoin="round" stroke-linecap="round" fill="none" d="
M 8.65 5.45
Q 8.65 6.45 7.75 7.15 6.85 7.85 5.6 7.85 4.35 7.85 3.45 7.15 2.55 6.45 2.55 5.45 2.55 4.45 3.45 3.75 4.35 3.05 5.6 3.05 6.85 3.05 7.75 3.75 8.65 4.45 8.65 5.45 Z"/>
</defs>

<g transform="matrix( 1, 0, 0, 1.2320709228515625, 76.9,2.45) ">
<clipPath id="Mask_Mask_1">
<rect x="-2" y="-2" width="227.1" height="65.8" fill="#FFFFFF" stroke="none"/>
</clipPath>

<text clip-path="url(#Mask_Mask_1)" writing-mode="lr"><tspan x="0" y="47.55" baseline-shift="0%" font-family="Yu Gothic Medium" font-size="48" fill="#000000" xml:space="preserve">INFORBIZ</tspan></text>
</g>

<g transform="matrix( 1, 0, 0, 1, 2.8,7.95) ">
<g transform="matrix( 1, 0, 0, 1, 0,0) ">
<use xlink:href="#Symbol_1_0_Layer0_0_FILL"/>

<use xlink:href="#Symbol_1_0_Layer0_0_1_STROKES"/>

<use xlink:href="#Symbol_1_0_Layer0_0_2_STROKES"/>

<use xlink:href="#Symbol_1_0_Layer0_0_3_STROKES"/>

<use xlink:href="#Symbol_1_0_Layer0_0_STROKES_1_FILL"/>
</g>
</g>
</svg>
