
<svg xmlns="http://www.w3.org/2000/svg" version="1.1" xmlns:xlink="http://www.w3.org/1999/xlink" preserveAspectRatio="none" x="0px" y="0px" width="256px" height="256px" viewBox="0 0 256 256">
<defs>
<g id="Layer4_0_FILL">
<path fill="#0099CC" stroke="none" d="
M 256.1 0.1
L 0.1 0.1 0.1 256.15 256.1 256.15 256.1 0.1 Z"/>
</g>

<g id="Layer3_0_FILL">
<path fill="#3399CC" stroke="none" d="
M 226.55 229.5
L 226.55 32 28.9 32 28.9 229.5 226.55 229.5 Z"/>
</g>

<g id="Layer0_0_FILL">
<path fill="#FF9966" stroke="none" d="
M 169.2 104.35
L 195.3 104.35 195.3 87.55 120.9 87.55 120.9 104.35 147 104.35 147 175.85 169.2 175.85 169.2 104.35
M 67.75 102.95
L 80.4 102.95 80.4 160.45 67.75 160.45 67.75 175.85 115.3 175.85 115.3 160.45 102.6 160.45 102.6 102.95 115.3 102.95 115.3 87.55 67.75 87.55 67.75 102.95 Z"/>
</g>

<path id="Layer2_0_1_STROKES" stroke="#73FFFC" stroke-width="3" stroke-linejoin="round" stroke-linecap="round" fill="none" d="
M 187 36.55
L 187 76.2 225 76.2
M 221.8 150.2
L 187 150.2 187 188.5 225 188.5
M 187 76.2
L 187 112.35 225 112.35
M 187 112.35
L 187 150.2 150.9 150.2 150.9 188.5 187 188.5 187 227.95
M 113.1 33.4
L 113.1 76.2 150.9 76.2 150.9 36.55
M 33.65 76.2
L 74.75 76.2 74.75 36.55
M 113.1 188.5
L 113.1 150.2 74.75 150.2 74.75 188.5 113.1 188.5 150.9 188.5 150.9 227.95
M 33.65 112.35
L 74.75 112.35 74.75 76.2 113.1 76.2 113.1 112.35 150.9 112.35 150.9 76.2 187 76.2
M 33.65 188.5
L 74.75 188.5 74.75 227.95
M 30.5 150.2
L 74.75 150.2 74.75 112.35 113.1 112.35 113.1 150.2 150.9 150.2 150.9 112.35 187 112.35
M 113.1 188.5
L 113.1 224.8"/>

<path id="Layer1_0_1_STROKES" stroke="#D0FFFE" stroke-width="4.2" stroke-linejoin="round" stroke-linecap="round" fill="none" d="
M 226.45 14.75
L 226.45 31.85 244.2 31.85
M 28.85 14.75
L 28.85 31.85 226.45 31.85 226.45 229.45 244.2 229.45
M 12.4 31.85
L 28.85 31.85 28.85 229.45 226.45 229.45 226.45 246.55
M 28.85 246.55
L 28.85 229.45 12.4 229.45"/>

<path id="Layer0_0_1_STROKES" stroke="#FFFFFF" stroke-width="3" stroke-linejoin="round" stroke-linecap="round" fill="none" d="
M 147 175.85
L 147 104.35 120.9 104.35 120.9 87.55 195.3 87.55 195.3 104.35 169.2 104.35 169.2 175.85 147 175.85 Z
M 115.3 175.85
L 67.75 175.85 67.75 160.45 80.4 160.45 80.4 102.95 67.75 102.95 67.75 87.55 115.3 87.55 115.3 102.95 102.6 102.95 102.6 160.45 115.3 160.45 115.3 175.85 Z"/>
</defs>

<g transform="matrix( 1, 0, 0, 1, 0,0) ">
<use xlink:href="#Layer4_0_FILL"/>
</g>

<g transform="matrix( 1, 0, 0, 1, 0,0) ">
<use xlink:href="#Layer3_0_FILL"/>
</g>

<g transform="matrix( 1, 0, 0, 1, 0,0) ">
<use xlink:href="#Layer2_0_1_STROKES"/>
</g>

<g transform="matrix( 1, 0, 0, 1, 0,0) ">
<use xlink:href="#Layer1_0_1_STROKES"/>
</g>

<g transform="matrix( 1, 0, 0, 1, 0,0) ">
<use xlink:href="#Layer0_0_FILL"/>

<use xlink:href="#Layer0_0_1_STROKES"/>
</g>
</svg>
