
<svg xmlns="http://www.w3.org/2000/svg" version="1.1" xmlns:xlink="http://www.w3.org/1999/xlink" preserveAspectRatio="none" x="0px" y="0px" width="256px" height="256px" viewBox="0 0 256 256">
<defs>
<g id="Layer4_0_FILL">
<path fill="#FAA797" stroke="none" d="
M 233.25 128.1
L 231.85 55.65 20.4 55.15 16.9 215 127.05 225.1 237.85 210.3 233.25 128.1 Z"/>
</g>

<g id="Layer3_0_FILL">
<path fill="#FFDDE7" stroke="none" d="
M 194 111.85
L 198.65 105 128.3 65.8 57.6 102.4 62.35 109.25 63.4 168 58.65 170.75 58.95 178.2 52.05 182.55 52.55 196.15 204.8 196.8 203.55 182.9 199.55 179.1 200.4 170.75 195.25 167.85 194 111.85
M 178.65 109.1
L 178.4 132.8
Q 178 158.25 177.75 166.95
L 173.1 167.2
Q 173.4 160.2 174.25 134.7
L 172.05 108.95 178.65 109.1
M 125.55 108
L 134.7 108.4
Q 132.35 138.05 133.4 166
L 125.3 166.1
Q 130.15 137.55 125.55 108
M 149.9 108.6
L 156.45 108.8
Q 153 137.75 154.55 166.75
L 149.65 166.35
Q 153.55 138.75 149.9 108.6
M 82.3 106.6
L 88.2 107.65
Q 83.05 138.2 87.4 167.3
L 81.35 167.2 82.3 106.6
M 104.1 108.05
L 111.15 108
Q 108.5 123.25 112.15 166.95
L 104.85 166.95
Q 107.25 137.7 104.1 108.05 Z"/>
</g>

<g id="Layer2_0_FILL">
<path fill="#DEB2AA" stroke="none" d="
M 241.55 33.45
L 236.75 34.85 234.6 24.85 158.4 33.85 94.6 34.55 23.05 26.7 18.55 38.1 13.9 37.65 12.05 44.8 13.45 54.95 18.05 53.8 23.05 68.25 95.1 56.5 159.7 56.95 234.6 66.45 235.75 56.8 242 57.95 245 45.25 241.55 33.45 Z"/>
</g>

<g id="Layer1_0_FILL">
<path fill="#FF881E" stroke="none" d="
M 111.95 188.85
Q 111.55 189 111.45 189.2 110.796484375 190.0349609375 110.05 190.85 110.7833984375 190.08515625 111.95 188.85
M 112.65 187.9
L 112.9 187.7 112.4 187.75 112.65 187.9
M 116 187.1
L 115.1 187.35 114.3 189
Q 114.45 188.9 116 187.1
M 117.8 186.4
L 116.9 186 116.2 186.2 117.8 186.4
M 116.7 187.35
Q 116.9 187.55 116.9 187.9
L 117.7 186.65 116.3 187.05
Q 116.55 187.05 116.7 187.35
M 106.05 197.5
L 106.25 196.7
Q 102.6 199.05 100.15 200.1 103.85 198.7 106.05 197.5
M 101.6 187.65
L 101.6 187.8 107.45 187.7 101.6 187.65
M 108.15 187.7
Q 109.144921875 187.762109375 108.7 188.8
L 109.6 187.75 108.15 187.7
M 107.7 187.95
L 107.95 187.7 107.45 187.7 107.7 187.95
M 108.05 174.95
Q 108.15 175.15 109.3 177.05 111 179.9 113.15 183 111.5 180.35 111.05 179.3
L 108.05 174.95
M 99.3 187.65
L 100.1 187.75 100.15 187.65 99.3 187.65
M 87.65 148.9
Q 87.65 148.95 87.85 148.9 87.5 148.8 87.2 148.75
L 87.05 148.95 87.65 148.9
M 95.85 160.15
Q 91.55 153.3 91.75 151
L 90.95 149.8
Q 89.3 149.4 87.9 148.95 87.95 149.05 87.95 149.65 87.95 150.5 87.45 151.85
L 88.7 149.95 95.85 160.15
M 113.6 148.2
Q 115.45 146.5 119.35 140.9 113.65 142.3 113.3 142.05
L 102.95 144.15
Q 102.05 145.8 101.4 146.7 100.7 147.8 100.15 148.2 106.35 149.3 111.3 149.3 112.4 149.3 113.6 148.2
M 82.85 133.65
L 81.2 135.5
Q 80.85 138.8 80.85 139.8 80.85 140.6 81.15 141.9 81.45 143.2 81.8 143.9 84.25 144.4 94 146.95 95.7 147.35 97.25 147.7 97.85 146.9 99.5 144.75 96.45 144.8 91 143.45 86.3 142.4 84.9 141.7 84.5 140.95 84.45 140.15
L 84.75 139.9
Q 84.75 137.05 86.1 135.1 87.4 133.2 89.2 133.1
L 89.4 133.1
Q 88.95 131.95 88.65 131.8 85.7 131.8 82.85 133.65
M 148.9 146.95
L 148.9 147 149.25 147.35 151.5 147.5 151.2 141.8 149.25 144.7
Q 149.6 144.75 149.85 145.05 150.05 145.3 150 145.75 149.95 146.05 149.65 146.3 149.3 146.55 148.95 146.5
L 148.9 146.95
M 134.65 144
L 134.65 139.3
Q 134.3 139.6 132.7 141.45 131.1 143.3 130.5 144.05
L 134.65 144
M 126.75 139.05
Q 124.2 142.45 122.05 145.05 120.5 147 120.35 147.15 121.55 146.65 125 145.4 128.65 143.3 132.9 137.4
L 126.75 139.05
M 77.8 192.7
Q 78.4 193.45 79.1 194.25 83.9 200.05 86.65 200.2
L 88.1 200.8
Q 86.45 198.65 84.8 194.4 83.35 190.8 83.35 190.35 83.35 188.6 83.85 187.45
L 80.35 187.4 81 187.45
Q 80.8 188.55 81.6 191.4 82.35 194 82.9 194.65 82.95 194.9 82.9 194.95 82.9 195.05 82.2 195.05 80.6 194.6 78.8 193.45 78.25 193.1 77.8 192.7
M 72.3 187.35
L 71.05 187.35
Q 71.05 190.8 79 197.4 72.15 188.5 72.3 187.35
M 74.65 188.4
Q 74.45 187.85 74.35 187.35
L 74.1 187.35
Q 74.3 187.8 74.65 188.4
M 79.15 187.4
L 78.35 187.4
Q 78.809375 187.415625 78.95 187.65 79 187.75 79.15 188.4
L 79.15 187.4
M 64.65 185.55
Q 64.1359375 185.540625 63.7 185.25 63.25 184.95 63.25 184.55 62.5 185.6 59.95 185.95 62.35 190.5 65.4 193.4 68.8 196.65 74.45 199.3 71.9 197.15 69.75 193.9 67.35 190.45 66.5 187.3
L 63.6 187.2 60.1 186 61.75 185.8
Q 63.571484375 185.55390625 64.65 185.55
M 70.45 185.55
L 65.95 185.45 64.8 185.55 70.45 185.55
M 74.9 170
L 74.85 170.1 80.85 161.35
Q 74 169.25 71.9 171.6
L 64.75 182.25 74.75 170.2 74.9 170
M 161.1 147.9
L 161.95 147.85
Q 161.6 147.3 161.2 146.15
L 161.1 147.9
M 246.5 185.95
L 245.5 185.85 239.65 186 246.5 185.95
M 246.95 185.95
Q 248.628125 185.9546875 251.35 186.4
L 250.6 186.7
Q 248.05 187.65 245 187.7 244.65 189 241.55 193.8 238.35 198.75 237.15 199.7 242.85 197 246.25 193.8 249.4 190.8 251.45 186.35 249 186 248.25 184.95 248.25 185.4 247.9 185.65 247.5125 185.940625 246.95 185.95
M 237.05 188.65
Q 237.35 188.15 237.5 187.75
L 237.25 187.75
Q 237.15 188.2 237.05 188.65
M 240.5 187.75
L 239.3 187.75
Q 233.6 196.85 232.65 197.8 240.5 191.45 240.5 187.75
M 232.55 188.8
L 232.65 187.8 232.5 187.8 232.55 188.8
M 230.35 190.05
Q 231.05 188.3 230.75 187.85
L 231.35 187.8 227.85 187.85
Q 228.6 189.45 226.75 194.75 225.1 199.45 223.7 201.2
L 225.2 200.6
Q 227.7 200.45 232.35 194.9 232.5 194.75 232.6 194.6 233.05 194.05 233.5 193.5 233.3 193.7 233 193.85 232.65 194.05 232.35 194.2 229.65 195.5 229.55 195.5 228.85 195.5 228.85 195.35 229 195.25 228.9 195.2 229.3 192.7 230.35 190.05
M 210.4 197.6
Q 209.15 196.5 208.15 196
L 207.4 195.75 210.4 197.6
M 205.75 197.1
L 206 197.9
Q 208.4 199.3 212.9 200.95 212.1 200.6 209.15 198.95 206.9 197.75 205.75 197.1
M 203.4 189.2
Q 203.05 188.15 203.9 188.1
L 202.45 188.15 203.4 189.2
M 204.55 188.1
L 204.1 188.1 204.3 188.4 204.55 188.1
M 210.4 188.2
L 210.4 188.05 204.55 188.1 210.4 188.2
M 211.9 188.15
L 211.9 188.05 211.8 188.05 211.9 188.15
M 232.35 163.45
Q 231.2 162.05 230.3 160.9 230.192578125 160.792578125 230.1 160.7
L 236.75 170.5 246.75 182.65 239.7 172
Q 235.35 167.1 232.35 163.45
M 223.05 150.35
L 224.35 152.2
Q 223.8 151.05 223.8 150.35 223.8 149.6 224 149.4 224.1 149.35 224.45 149.3
L 224.75 149.35 224.55 149.15
Q 222.95 149.7 220.9 150.25
L 220.05 151.4
Q 220.2 152.7 212.45 164.9 204.1 177.8 202.8 179.85
L 223.05 150.35
M 197.05 187.75
L 196.1 187.5
Q 196.65 187.9 197.85 189.4
L 197.05 187.75
M 195.95 186.6
L 195.25 186.4 194.4 186.8 195.95 186.6
M 195.25 188.3
L 195.85 187.45 194.5 187.05 195.25 188.3
M 200.75 189.45
Q 200.45 189.4 200.1 189.25 201.65 191.05 203.35 192.65 201.2 189.95 200.75 189.45
M 199.45 188.3
L 199.7 188.15 199.25 188.1 199.45 188.3
M 201.05 179.7
Q 200.55 180.75 199 183.4 202.35 178.4 204.05 175.35
L 201.05 179.7
M 176.1 144.15
L 177.6 144.2
Q 179.1 144.4 182.45 144.35 185.25 144.5 187.75 145.8 187.65 145.2 188.85 143.8 189.95 142.6 191.75 141 190.1 140.65 187.7 139.95 184.734375 139.1369140625 180.35 138.05 178.6 141.1 177.9 142.1 177.65 142.4 176.1 144.15
M 165.35 137.05
L 164.45 137.05 164.5 135.15 161.7 134.95 161.25 145.1
Q 161.65 143.95 165.35 137.05
M 212.65 145.2
Q 211.8 145.2 206.3 144.1 201.05 143 198.85 142.45
L 198.8 142.55
Q 198.6 142.65 197.6 142.5 194.45 145.2 193.7 146.6 193.45 147.55 193 148.05 195.2 149.7 201.5 149.7 204.1 149.7 209 149.25 214.05 148.8 214.05 148.5 214.05 147.65 216.2 144.85 213.8 145.2 212.65 145.2
M 222.6 132.6
Q 222.4 132.95 222.4 133.5
L 222.6 133.5
Q 224.35 133.6 225.65 135.5 227 137.45 227 140.3 227.45 140.6 226.85 142.1 223.7 143.65 221.9 144.1 221.35 144.2 219.05 144.5 217.8 146.55 216.4 148.25 219.85 147.7 224.05 146.2 228.55 144.55 229.95 144.3 230.9 142.5 230.85 139.85 230.6 137.05 230.5 135.9 229.85 135 228.9 134.05 225.95 132.2 223.15 132.2 222.85 132.2 222.6 132.6 Z"/>

<path fill="#EF994C" stroke="none" d="
M 106.25 196.7
L 106.05 197.5
Q 109.4 196.05 113 192.55 115.8 189.8 116.9 187.9 116.9 187.55 116.7 187.35 116.55 187.05 116.3 187.05
L 116 187.1
Q 114.45 188.9 114.3 189 108.05 194.45 107.6 194.85 107.55 195.05 106.25 196.7
M 108.15 187.7
L 107.95 187.7 107.7 187.95
Q 106.85 189.55 103.05 193.7 99.5 197.6 99.2 198.5
L 99.5 198.55
Q 99.75 198.5 101.6 197.2 103.6 195.4 104.65 195.35 105.55 195 105.85 194.85 106.7 194.25 108.75 192.25
L 109.45 191.5
Q 109.6150390625 191.324609375 109.8 191.1
L 110.05 190.85
Q 110.796484375 190.0349609375 111.45 189.2 111.55 189 111.95 188.85
L 112.05 188.8
Q 112.55 188.5 112.65 187.9
L 112.4 187.75 109.6 187.75 108.7 188.8
Q 109.144921875 187.762109375 108.15 187.7
M 195.85 187.45
L 195.25 188.3
Q 199.25 193.3 201.45 194.95 202.8 196.05 206 197.9
L 205.75 197.1
Q 204.9 195.7 204.45 195.25 202.7 193.75 197.85 189.4 196.65 187.9 196.1 187.5
L 195.85 187.45
M 199.7 188.15
L 199.45 188.3
Q 199.55 188.45 200 189.2 200.05 189.2 200.1 189.25 200.45 189.4 200.75 189.45 201.2 189.95 203.35 192.65 205.25 194.65 206.15 195.25 206.4 195.4 207.4 195.75
L 208.15 196
Q 209.15 196.5 210.4 197.6 212.2 198.9 212.45 198.95 212.75 198.95 212.8 198.7 209.5 194.6 207.9 192.8 206.75 191.55 204.3 188.4
L 204.1 188.1 203.9 188.1
Q 203.05 188.15 203.4 189.2
L 202.45 188.15 199.7 188.15 Z"/>

<path fill="#B66510" stroke="none" d="
M 110.05 190.85
L 109.8 191.1
Q 109.6150390625 191.324609375 109.45 191.5
L 108.75 192.25
Q 106.7 194.25 105.85 194.85 105.55 195 104.65 195.35 103.6 195.4 101.6 197.2 99.75 198.5 99.5 198.55 99.4 198.8 96.85 200.2 94.25 201.6 94.15 201.7
L 94.5 201.65 98.95 200.55
Q 99.45 200.4 100.15 200.1 102.6 199.05 106.25 196.7 107.55 195.05 107.6 194.85 108.05 194.45 114.3 189
L 115.1 187.35 112.9 187.7 112.65 187.9
Q 112.55 188.5 112.05 188.8
L 111.95 188.85
Q 110.7833984375 190.08515625 110.05 190.85
M 91.75 151
Q 91.55 153.3 95.85 160.15 97.3 162.5 99.35 165.45 103.45 171.4 109.25 179.45
L 113.75 185.9 114.15 185.9 114.95 186 115.05 186.05
Q 115.3 186.25 115.8 186.15
L 116.2 186.2 116.9 186
Q 115.8 185.8 115.05 184.95 114.2 184.05 111.05 179.3 111.5 180.35 113.15 183 111 179.9 109.3 177.05 108.15 175.15 108.05 174.95
L 91.75 151
M 148.35 146.4
Q 148.9 146.5154296875 148.9 146.95
L 148.95 146.5 148.35 146.4
M 122.05 145.05
Q 124.2 142.45 126.75 139.05
L 119.35 140.9
Q 115.45 146.5 113.6 148.2 112.4 149.3 111.3 149.3 106.35 149.3 100.15 148.2 100.7 147.8 101.4 146.7 102.05 145.8 102.95 144.15
L 99.5 144.75
Q 97.85 146.9 97.25 147.7 95.7 147.35 94 146.95 84.25 144.4 81.8 143.9 82.3 145.25 83.9 146.5 85.7 147.85 87.65 148
L 87.2 148.75
Q 87.5 148.8 87.85 148.9
L 87.9 148.95
Q 89.3 149.4 90.95 149.8
L 89.85 148.2
Q 92.3 148.55 100.15 149.8 107.45 150.9 110.9 150.9 111.7 150.9 112.2 150.8 113.25 150.55 122.15 148.6
L 122.9 148.45
Q 123.65 148.25 129.25 147.25 135.45 146.05 136.2 146.15 138.05 145.45 142.95 144.85 147.95 144.3 149.25 144.7
L 151.2 141.8 150.85 134.55 148.05 134.75 148.1 136.65
Q 141.65 136.8 133.9 137.2
L 132.9 137.4
Q 128.65 143.3 125 145.4 121.55 146.65 120.35 147.15 120.5 147 122.05 145.05
M 134.65 139.3
L 134.65 144 130.5 144.05
Q 131.1 143.3 132.7 141.45 134.3 139.6 134.65 139.3
M 66.5 187.3
Q 67.35 190.45 69.75 193.9 71.9 197.15 74.45 199.3 78.25 201.4 83.75 202 86.5 202.3 88.65 202.15
L 90.7 202.1
Q 92.95 200.6 92.95 200.1 92.95 200.05 96.5 196.25 100.1 192.4 100.1 187.75
L 99.3 187.65 83.85 187.45
Q 83.35 188.6 83.35 190.35 83.35 190.8 84.8 194.4 86.45 198.65 88.1 200.8
L 86.65 200.2
Q 83.9 200.05 79.1 194.25 78.4 193.45 77.8 192.7 75.55 190.85 74.65 188.4 74.3 187.8 74.1 187.35
L 72.3 187.35
Q 72.15 188.5 79 197.4 71.05 190.8 71.05 187.35
L 66.5 187.3
M 63.7 185.25
Q 64.1359375 185.540625 64.65 185.55
L 64.8 185.55 65.95 185.45 64.35 185.4 74.75 170.2 64.75 182.25 63.25 184.55
Q 63.25 184.95 63.7 185.25
M 211.9 188.05
L 211.9 188.15
Q 211.9 192.6 215.4 196.5 218.9 200.4 218.9 200.5 218.9 201.65 221 202.4
L 220.95 202.5 223.15 202.55
Q 223.25 202.55 228 202.4 230.35 202.15 232.35 201.65 235.1 200.9 237.15 199.7 238.35 198.75 241.55 193.8 244.65 189 245 187.7
L 240.5 187.75
Q 240.5 191.45 232.65 197.8 233.6 196.85 239.3 187.75
L 237.5 187.75
Q 237.35 188.15 237.05 188.65 236 190.45 233.5 193.5 233.05 194.05 232.6 194.6 232.5 194.75 232.35 194.9 227.7 200.45 225.2 200.6
L 223.7 201.2
Q 225.1 199.45 226.75 194.75 228.6 189.45 227.85 187.85
L 211.9 188.05
M 236.75 170.5
L 236.7 170.45 247.15 185.8 245.5 185.85 246.5 185.95 246.95 185.95
Q 247.5125 185.940625 247.9 185.65 248.25 185.4 248.25 184.95
L 246.75 182.65 236.75 170.5
M 200 189.2
Q 199.55 188.45 199.45 188.3
L 199.25 188.1 197.05 187.75 197.85 189.4
Q 202.7 193.75 204.45 195.25 204.9 195.7 205.75 197.1 206.9 197.75 209.15 198.95 212.1 200.6 212.9 200.95 212.95 200.95 213.05 200.95
L 217.7 202.1
Q 217.2 201.95 216.4 201.55 214.75 200.75 212.45 198.95 212.2 198.9 210.4 197.6
L 207.4 195.75
Q 206.4 195.4 206.15 195.25 205.25 194.65 203.35 192.65 201.65 191.05 200.1 189.25 200.05 189.2 200 189.2
M 201.05 179.7
Q 197.85 184.45 197.1 185.4 196.35 186.2 195.25 186.4
L 195.95 186.6 196.1 186.55 196.35 186.55 197.95 186.3 198.35 186.3 202.8 179.85
Q 204.1 177.8 212.45 164.9 220.2 152.7 220.05 151.4
L 204.05 175.35
Q 202.35 178.4 199 183.4 200.55 180.75 201.05 179.7
M 216.4 148.25
Q 217.8 146.55 219.05 144.5
L 216.2 144.85
Q 214.05 147.65 214.05 148.5 214.05 148.8 209 149.25 204.1 149.7 201.5 149.7 195.2 149.7 193 148.05 193.45 147.55 193.7 146.6 194.45 145.2 197.6 142.5
L 191.75 141
Q 189.95 142.6 188.85 143.8 187.65 145.2 187.75 145.8 185.25 144.5 182.45 144.35 179.1 144.4 177.6 144.2
L 176.1 144.15
Q 177.65 142.4 177.9 142.1 178.6 141.1 180.35 138.05 180.1515625 137.9998046875 179.95 137.95
L 178.45 137.6
Q 175.75 137.4 165.35 137.05 161.65 143.95 161.25 145.1
L 161.2 146.15
Q 161.6 147.3 161.95 147.85
L 163.35 147.75 164.3 146.8
Q 163.55 147 163.2 146.95 162.7 146.9 162.7 146.15 162.7 145.45 162.95 145.25 163.05 145.15 163.15 145.2 164.2 144.65 166.2 144.65 168.25 144.65 171.8 145.4 175.05 146.05 176.2 146.55 178.5 146.4 186.85 148.85 195.45 151.3 201.2 151.3 206 151.3 210.25 150.65 213.15 150.15 222 148.6
L 220.9 150.25
Q 222.95 149.7 224.55 149.15
L 224.1 148.4
Q 225.8 148.4 227.7 146.75 228.95 145.65 229.95 144.3 228.55 144.55 224.05 146.2 219.85 147.7 216.4 148.25 Z"/>

<path fill="#6F3C07" stroke="none" d="
M 100.1 187.75
Q 100.1 192.4 96.5 196.25 92.95 200.05 92.95 200.1 92.95 200.6 90.7 202.1 91.65 202.05 94.15 201.7 94.25 201.6 96.85 200.2 99.4 198.8 99.5 198.55
L 99.2 198.5
Q 99.5 197.6 103.05 193.7 106.85 189.55 107.7 187.95
L 107.45 187.7 101.6 187.8 101.6 187.65 100.15 187.65 100.1 187.75
M 148.9 146.95
Q 148.9 146.5154296875 148.35 146.4
L 148.95 146.5
Q 149.3 146.55 149.65 146.3 149.95 146.05 150 145.75 150.05 145.3 149.85 145.05 149.6 144.75 149.25 144.7 147.95 144.3 142.95 144.85 138.05 145.45 136.2 146.15
L 149.25 147.35 148.9 147 148.9 146.95
M 211.9 188.15
L 211.8 188.05 210.4 188.05 210.4 188.2 204.55 188.1 204.3 188.4
Q 206.75 191.55 207.9 192.8 209.5 194.6 212.8 198.7 212.75 198.95 212.45 198.95 214.75 200.75 216.4 201.55 217.2 201.95 217.7 202.1
L 220.95 202.5 221 202.4
Q 218.9 201.65 218.9 200.5 218.9 200.4 215.4 196.5 211.9 192.6 211.9 188.15
M 162.95 145.25
Q 162.7 145.45 162.7 146.15 162.7 146.9 163.2 146.95 163.55 147 164.3 146.8
L 163.35 147.75 176.2 146.55
Q 175.05 146.05 171.8 145.4 168.25 144.65 166.2 144.65 164.2 144.65 163.15 145.2 163.05 145.15 162.95 145.25 Z"/>

<path fill="#FFF3BD" stroke="none" d="
M 81.55 134.2
Q 81.75 134.1 82.85 133.65 85.7 131.8 88.65 131.8 88.15 131.65 87.2 131.6 86.6 131.55 86.3 131.55
L 84.1 131.95
Q 83.5 132.2 81.55 134.2
M 133.9 137.2
L 138.85 136.15 138.1 136.05
Q 132.1 136.65 126.5 137.65 115.5 139.65 113.3 142.05 113.65 142.3 119.35 140.9
L 126.75 139.05 132.9 137.4 133.9 137.2
M 71.9 171.6
Q 74 169.25 80.85 161.35 81.15 161 81.5 160.6 86.05 154.95 87.45 151.85 87.95 150.5 87.95 149.65 87.95 149.05 87.9 148.95
L 87.85 148.9
Q 87.65 148.95 87.65 148.9
L 87.05 148.95 71.9 171.6
M 223.8 150.35
Q 223.8 151.05 224.35 152.2
L 230.05 160.6 230.05 160.6
Q 230.094921875 160.656640625 230.1 160.7 230.192578125 160.792578125 230.3 160.9 231.2 162.05 232.35 163.45 235.35 167.1 239.7 172
L 239.75 172.05 224.75 149.35 224.45 149.3
Q 224.1 149.35 224 149.4 223.8 149.6 223.8 150.35
M 174.3 136.45
L 173.55 136.55 178.45 137.6 179.95 137.95
Q 180.1515625 137.9998046875 180.35 138.05 184.734375 139.1369140625 187.7 139.95 190.1 140.65 191.75 141
L 197.6 142.5
Q 198.6 142.65 198.8 142.55
L 198.85 142.45
Q 196.85 140.05 185.95 138.05 181.45 137.25 174.3 136.45
M 228.9 134.05
L 230.15 134.6
Q 228.4 132.8 227.65 132.35 226.65 132.05 225.5 131.95 223.95 132 223.15 132.2 225.95 132.2 228.9 134.05 Z"/>

<path fill="#F4BD21" stroke="none" d="
M 81.2 135.5
L 82.85 133.65
Q 81.75 134.1 81.55 134.2 81.45 134.4 81.2 135.5
M 138.85 136.15
L 133.9 137.2
Q 141.65 136.8 148.1 136.65
L 148.05 134.75 148 134.45 142.8 134.4
Q 135.6 134.4 118.1 138.55 100.6 142.7 94.9 142.7 89.45 142.7 87.45 142.1 86.15 141.65 84.95 140.2 84.85 140 84.75 139.9
L 84.45 140.15
Q 84.5 140.95 84.9 141.7 86.3 142.4 91 143.45 96.45 144.8 99.5 144.75
L 102.95 144.15 113.3 142.05
Q 115.5 139.65 126.5 137.65 132.1 136.65 138.1 136.05
L 138.85 136.15
M 64.8 185.55
L 64.65 185.55
Q 63.571484375 185.55390625 61.75 185.8
L 60.1 186 63.6 187.2 66.5 187.3 71.05 187.35 72.3 187.35 74.1 187.35 74.35 187.35 78.35 187.4 79.15 187.4 80.35 187.4 83.85 187.45 99.3 187.65 100.15 187.65 101.6 187.65 107.45 187.7 107.95 187.7 108.15 187.7 109.6 187.75 112.4 187.75 112.9 187.7 115.1 187.35 116 187.1 116.3 187.05 117.7 186.65 117.8 186.4 116.2 186.2 115.8 186.15
Q 115.3 186.25 115.05 186.05
L 114.95 186 114.15 185.9 113.75 185.9 70.45 185.55 64.8 185.55
M 198.35 186.3
L 197.95 186.3 196.35 186.55 196.1 186.55 195.95 186.6 194.4 186.8 194.5 187.05 195.85 187.45 196.1 187.5 197.05 187.75 199.25 188.1 199.7 188.15 202.45 188.15 203.9 188.1 204.1 188.1 204.55 188.1 210.4 188.05 211.8 188.05 211.9 188.05 227.85 187.85 231.35 187.8 232.5 187.8 232.65 187.8 237.25 187.75 237.5 187.75 239.3 187.75 240.5 187.75 245 187.7
Q 248.05 187.65 250.6 186.7
L 251.35 186.4
Q 248.628125 185.9546875 246.95 185.95
L 246.5 185.95 239.65 186 198.35 186.3
M 230.15 134.6
L 228.9 134.05
Q 229.85 135 230.5 135.9 230.45 135 230.15 134.6
M 206.3 144.1
Q 211.8 145.2 212.65 145.2 213.8 145.2 216.2 144.85
L 219.05 144.5
Q 221.35 144.2 221.9 144.1 223.7 143.65 226.85 142.1 227.45 140.6 227 140.3 226.9 140.45 226.75 140.65 225.6 142.1 224.4 142.5 222.55 143.15 217.05 143.15 211.4 143.15 194.2 138.95 176.95 134.8 169.7 134.8
L 164.55 134.9 164.5 135.15 164.45 137.05 165.35 137.05
Q 175.75 137.4 178.45 137.6
L 173.55 136.55 174.3 136.45
Q 181.45 137.25 185.95 138.05 196.85 140.05 198.85 142.45 201.05 143 206.3 144.1 Z"/>

<path fill="#EFBC22" stroke="none" d="
M 80.35 187.4
L 79.15 187.4 79.15 188.4
Q 79 187.75 78.95 187.65 78.809375 187.415625 78.35 187.4
L 74.35 187.35
Q 74.45 187.85 74.65 188.4 75.55 190.85 77.8 192.7 78.25 193.1 78.8 193.45 80.6 194.6 82.2 195.05 82.9 195.05 82.9 194.95 82.95 194.9 82.9 194.65 82.35 194 81.6 191.4 80.8 188.55 81 187.45
L 80.35 187.4
M 230.75 187.85
Q 231.05 188.3 230.35 190.05 229.3 192.7 228.9 195.2 229 195.25 228.85 195.35 228.85 195.5 229.55 195.5 229.65 195.5 232.35 194.2 232.65 194.05 233 193.85 233.3 193.7 233.5 193.5 236 190.45 237.05 188.65 237.15 188.2 237.25 187.75
L 232.65 187.8 232.55 188.8 232.5 187.8 231.35 187.8 230.75 187.85 Z"/>
</g>

<g id="Layer0_0_FILL">
<path fill="#FF7800" stroke="none" d="
M 195.2 231.65
L 195.2 227.6 189.75 227.85
Q 189.2 228.25 189.2 231.65
L 195.2 231.65
M 117.15 227.85
L 116.95 227.8 116.95 231.65 180.2 231.65
Q 179.85 230.85 179.8 227.95 179.5 227.95 179.35 227.85
L 117.15 227.85
M 133.4 214.8
L 133.1 215.15 133.45 214.8 133.4 214.8
M 156.8 199.8
L 156.2 199.8
Q 153.4 203.65 153.4 210.55 153.4 212.45 151.15 218.1 149.95 221.05 148.2 225.1
L 153.75 225.1
Q 153.65 225.05 153.6 225.05 153.55 224.95 153.55 224.3 153.55 223.35 155.7 212 157.7 201.9 156.8 199.8
M 159.55 199.75
L 157.95 199.8
Q 157.95 200.15 158.25 200.4 158.5 200.55 158.85 200.55 159.15 200.55 159.35 200.3 159.6 200.1 159.55 199.75
M 159.95 199.7
Q 160.2 199.9 160.85 200.1 161.6 200.25 161.95 200.1
L 162.05 200.55
Q 162 203.5 161.2 214.75
L 161.2 225.1 172.5 225.1
Q 171.75 216.5 168.4 210.65 165.2 206.45 165.2 205.4 165.2 203.9 166.65 204 165.4 202.85 165.35 202.45
L 165.8 202.1
Q 167.25 203.1 173.9 212.9 178.65 220 181.8 225.1
L 189.65 225.05 166.45 199.3
Q 166.3 199.45 159.95 199.7
M 153.35 162.05
L 153.2 161.9
Q 152.65 164.2 150.95 179.6 150.95 179.9 152.25 187.45 153.65 195.4 154.05 196.9
L 155.15 196.85 155.85 193.15 156.4 194.3
Q 157.2 193.7 157.45 193.2 157.9 192.25 158.7 188.5
L 158.9 186.95
Q 159.05 189.15 158.85 195.15 158.85 196.3 159.05 196.8
L 160.2 196.8 160.5 195.7 160.35 195.3
Q 160.55 190.05 160.7 188.55
L 160 191.7 160.15 184.55 159.75 185.95 159.6 186
Q 159.7 185.55 159.75 185.1 159.9 184.15 159.2 184.15 158.9 184.15 158.8 184.2 157.5 172.9 157.3 171.6 156.7 167.3 155.9 166.1
L 154.85 187.5 155.05 195.4 154.95 195.35
Q 154.1 193.1 153.35 188.85 152.3 183.2 152.55 178.6
L 152.35 180.1 152.3 180.2
Q 152.2 180.05 151.9 178.05 151.6 175.9 151.6 175.1 152.95 164 153.35 162.05
M 150.75 129.2
Q 148.5412109375 129.4494140625 147.75 129.4
L 147.75 153.8
Q 149.5 153.7 151.15 153.9 151.15 144.85 150.75 141.45
L 150.75 129.2
M 161.15 126.85
L 161.15 124.8
Q 152.9 124.85 152.6 124.9 153.1 125.25 152.05 125.8
L 152.05 126.5
Q 154.8 126.5 158.1 126.8
L 161.15 126.85
M 153.75 120.55
L 154.1 122.45
Q 156.3 122.45 157.85 119.45 159.35 116.45 159.35 112.25 158.95 108.45 158.55 106.15 158.25 106.9 155.95 112.15 153.75 117.7 153.75 120.55
M 164.4 146.55
L 164.4 129.2
Q 162.65 129.15 155.5 129.2
L 155.25 152.55
Q 155.25 154.15 156.35 154.65
L 158.8 154.75
Q 159 142.5 159 141.35 157.8 136.4 157.8 134.95 157.8 130.9 159.6 129.8 160.5 129.3 161.5 129.5 162.65 129.5 162.8 129.95 163 130.45 162.8 132.85 162.05 143.05 162.35 154.8
L 164.4 154.85 164.4 153.25
Q 164.15 153.1 164.15 151.85
L 164.4 146.55 Z"/>

<path fill="#B66510" stroke="none" d="
M 179.8 227.95
Q 179.85 230.85 180.2 231.65
L 189.2 231.65
Q 189.2 228.25 189.75 227.85
L 189.65 227.2 182.55 227
Q 179.85 227 179.5 227.35 179.55 227.75 179.35 227.85 179.5 227.95 179.8 227.95
M 165.2 205.4
Q 165.2 206.45 168.4 210.65 171.75 216.5 172.5 225.1
L 181.8 225.15 181.8 225.1
Q 178.65 220 173.9 212.9 167.25 203.1 165.8 202.1
L 165.35 202.45
Q 165.4 202.85 166.65 204 165.2 203.9 165.2 205.4
M 158.9 186.95
L 158.7 188.5
Q 157.9 192.25 157.45 193.2 157.2 193.7 156.4 194.3
L 155.85 193.15 155.15 196.85 154.05 196.9
Q 153.1 197.55 152.35 197.8 152.3 197.8 150.8 198.2 154.05 198.3 165.55 198.25 162.8 198.2 161.55 197.95 160.7 197.85 160.05 197.45
L 160.2 196.8 159.05 196.8
Q 158.85 196.3 158.85 195.15 159.05 189.15 158.9 186.95
M 160.45 165.5
Q 160.45 163.2 158.5 161.6 156.55 159.9 153.75 159.9
L 153.2 161.9 153.35 162.05
Q 153.65 162.25 154.1 162.8 154.8 163.55 154.95 164.2 155.6 165.05 155.7 165.75 155.05 173.3 154.95 181.3
L 154.85 187.5 155.9 166.1
Q 156.7 167.3 157.3 171.6 157.5 172.9 158.8 184.2 158.9 184.15 159.2 184.15 159.9 184.15 159.75 185.1 159.7 185.55 159.6 186
L 159.75 185.95 160.15 184.55 160 191.7 160.7 188.55
Q 160.85 186.15 161.15 181.15 161.4 176.5 161.4 175.5 161.4 174.4 161.1 171.25 160.75 167.6 160.4 165.8
L 160.45 165.5
M 157.85 119.45
Q 156.3 122.45 154.1 122.45
L 154.6 124.15 156.35 124
Q 157.15 123 157.8 121.7 158.55 120.35 159.4 119.2 159.6 117.2 159.35 112.25 159.35 116.45 157.85 119.45
M 162.8 132.85
Q 163 130.45 162.8 129.95 162.65 129.5 161.5 129.5 160.5 129.3 159.6 129.8 157.8 130.9 157.8 134.95 157.8 136.4 159 141.35 159 142.5 158.8 154.75
L 156.35 154.65
Q 154 154.5 151.15 153.9 149.5 153.7 147.75 153.8
L 147.75 155.75 151.1 155.75 151.1 158.65 152.3 158.95 152.85 158.95
Q 153.6 158.85 157 158.7
L 159.3 158.65
Q 157.4 156.45 154.6 156.25 152.1 156.4 151.6 156.1
L 151.55 155.95
Q 160.3 155.3 162 155.75
L 164.4 155.75 164.4 154.85 162.35 154.8
Q 162.05 143.05 162.8 132.85 Z"/>

<path fill="#FFC744" stroke="none" d="
M 119.5 225.6
L 116.95 225.6 116.95 225.7 119.5 225.6
M 147.1 199.55
L 143.55 203.55
Q 143.5 198.5 138.8 205.75 133.85 214.35 133.4 214.8
L 133.45 214.8 133.1 215.15 123.8 225.5
Q 133.8 225.15 136.5 224.85 137.7 218.9 140.45 213.1 143.25 207.1 148.45 199.5
L 147.25 199.45 147.1 199.55
M 160.85 200.1
Q 160.2 199.9 159.95 199.7
L 159.55 199.75
Q 159.6 200.1 159.35 200.3 159.15 200.55 158.85 200.55 158.5 200.55 158.25 200.4 157.95 200.15 157.95 199.8
L 156.8 199.8
Q 157.7 201.9 155.7 212 153.55 223.35 153.55 224.3 153.55 224.95 153.6 225.05 153.65 225.05 153.75 225.1
L 148.2 225.1
Q 149.95 221.05 151.15 218.1 153.4 212.45 153.4 210.55 153.4 203.65 156.2 199.8 154.8 199.55 153.35 199.55 151.7 200.15 149.45 203.6 145 210.55 141.5 225.2 143.6 225.35 147.1 225.7 150.85 226.1 151.35 226.3 145.05 226.55 138.35 226.7 125.95 226.95 116.95 227.15
L 116.95 227.8 117.15 227.85 179.35 227.85
Q 179.55 227.75 179.5 227.35 179.85 227 182.55 227
L 189.65 227.2 189.75 227.85 195.2 227.6 195.2 225.6
Q 192.1 225.6 190.5 225.3
L 189.65 225.05 181.8 225.1 181.8 225.15 172.5 225.1 161.2 225.1 161.2 214.75
Q 162 203.5 162.05 200.55
L 161.95 200.1
Q 161.6 200.25 160.85 200.1 Z"/>

<path fill="#FFF3BD" stroke="none" d="
M 157.95 199.8
L 159.55 199.75 159.95 199.7
Q 166.3 199.45 166.45 199.3
L 165.55 198.25
Q 154.05 198.3 150.8 198.2 149.25 198.2 148.1 198.8
L 147.25 199.45 148.45 199.5
Q 143.25 207.1 140.45 213.1 137.7 218.9 136.5 224.85 133.8 225.15 123.8 225.5 123.7 225.6 119.5 225.6
L 116.95 225.7 116.95 227.15
Q 125.95 226.95 138.35 226.7 145.05 226.55 151.35 226.3 150.85 226.1 147.1 225.7 143.6 225.35 141.5 225.2 145 210.55 149.45 203.6 151.7 200.15 153.35 199.55 154.8 199.55 156.2 199.8
L 156.8 199.8 157.95 199.8
M 154.95 164.2
Q 154.8 163.55 154.1 162.8 153.65 162.25 153.35 162.05 152.95 164 151.6 175.1 151.6 175.9 151.9 178.05 152.2 180.05 152.3 180.2
L 152.35 180.1 152.55 178.6
Q 153.2 174.2 154.15 168.75
L 154.95 164.2
M 160.45 127.35
L 160.4 127.25 158.1 126.8
Q 154.8 126.5 152.05 126.5
L 152.05 126.95 147.75 126.95 147.75 128.1 150.8 127.95 150.8 129.2
Q 150.6 138.5 152.05 147.5
L 152.3 147.35
Q 152.65 144.4 152.65 141.7 153.6 130.05 153.6 129.2
L 153.6 127.95 153.65 127.95
Q 156.35 127.9 158.4 127.7 160.2 127.55 160.45 127.35
M 156.65 105.05
Q 156.2 105.05 155.95 105 155.25 105.25 154.45 107.75
L 153.95 111.25 154.1 113.45
Q 155.2 112 156.95 105.9 156.95 105.15 156.65 105.05 Z"/>

<path fill="#EFBC22" stroke="none" d="
M 155.7 165.75
Q 155.6 165.05 154.95 164.2
L 154.15 168.75
Q 153.2 174.2 152.55 178.6 152.3 183.2 153.35 188.85 154.1 193.1 154.95 195.35
L 155.05 195.4 154.85 187.5 154.95 181.3
Q 155.05 173.3 155.7 165.75
M 155.5 129.2
L 153.6 129.2
Q 153.6 130.05 152.65 141.7 152.65 144.4 152.3 147.35
L 152.05 147.5
Q 150.6 138.5 150.8 129.2 150.775 129.202734375 150.75 129.2
L 150.75 141.45
Q 151.15 144.85 151.15 153.9 154 154.5 156.35 154.65 155.25 154.15 155.25 152.55
L 155.5 129.2
M 164.15 151.85
Q 164.15 153.1 164.4 153.25
L 164.4 146.55 164.15 151.85 Z"/>

<path fill="#FA9E4D" stroke="none" d="
M 160.85 164.7
Q 160.65 164.9 160.45 165.5
L 160.4 165.8
Q 160.75 167.6 161.1 171.25 161.4 174.4 161.4 175.5 161.4 176.5 161.15 181.15 160.85 186.15 160.7 188.55 160.55 190.05 160.35 195.3
L 160.5 195.7
Q 161.15 193.55 161.6 191.55 162.55 187.65 162.55 183.6 161.95 168.05 161.55 166 161.65 165.75 161.6 165.35 161.5 164.95 161.25 164.75 161.05 164.55 160.85 164.7 Z"/>

<path fill="#6F3C07" stroke="none" d="
M 154.05 158.95
L 153.75 159.9
Q 156.55 159.9 158.5 161.6 160.45 163.2 160.45 165.5 160.65 164.9 160.85 164.7 161.05 164.55 161.25 164.75
L 159.95 158.95
Q 161.2 158.95 161.7 157.4
L 161.95 155.75 162 155.75
Q 160.3 155.3 151.55 155.95
L 151.6 156.1
Q 152.1 156.4 154.6 156.25 157.4 156.45 159.3 158.65
L 157 158.7
Q 153.6 158.85 152.85 158.95
L 154.05 158.95
M 159.4 119.2
Q 158.55 120.35 157.8 121.7 157.15 123 156.35 124 157 124.45 158.5 124.3
L 158.55 124.15
Q 158.95 122.65 159.45 119.1
L 159.4 119.2 Z"/>

<path fill="#F4BD21" stroke="none" d="
M 147.75 129.4
Q 148.5412109375 129.4494140625 150.75 129.2 150.775 129.202734375 150.8 129.2
L 150.8 127.95 147.75 128.1 147.75 129.4
M 161.15 124.8
L 161.15 124.3 158.5 124.3
Q 157 124.45 156.35 124
L 154.6 124.15
Q 154 124.25 153.35 124.5 152.05 124.9 152.05 125.8 153.1 125.25 152.6 124.9 152.9 124.85 161.15 124.8
M 155.95 105
Q 156.2 105.05 156.65 105.05 156.95 105.15 156.95 105.9 155.2 112 154.1 113.45
L 153.95 111.25
Q 153.55 113.8 153.55 116.8 153.55 117.95 153.75 120.55 153.75 117.7 155.95 112.15 158.25 106.9 158.55 106.15 158.3 104.55 157.6 103.5 157.5 103.3 156.75 102.4
L 156.55 102.45
Q 156.2 102.75 155.3 105.05 154.7 106.85 154.45 107.75 155.25 105.25 155.95 105
M 164.4 129.2
L 164.4 126.95 161.15 126.95 161.15 126.85 158.1 126.8 160.4 127.25 160.45 127.35
Q 160.2 127.55 158.4 127.7 156.35 127.9 153.65 127.95
L 153.6 127.95 153.6 129.2 155.5 129.2
Q 162.65 129.15 164.4 129.2 Z"/>
</g>
</defs>

<g transform="matrix( 1, 0, 0, 1, 0,0) ">
<use xlink:href="#Layer4_0_FILL"/>
</g>

<g transform="matrix( 1, 0, 0, 1, 0,0) ">
<use xlink:href="#Layer3_0_FILL"/>
</g>

<g transform="matrix( 1, 0, 0, 1, 0,0) ">
<use xlink:href="#Layer2_0_FILL"/>
</g>

<g transform="matrix( 1, 0, 0, 1, 0,0) ">
<use xlink:href="#Layer1_0_FILL"/>
</g>

<g transform="matrix( 1, 0, 0, 1, 0,0) ">
<use xlink:href="#Layer0_0_FILL"/>
</g>
</svg>
