
<svg xmlns="http://www.w3.org/2000/svg" version="1.1" xmlns:xlink="http://www.w3.org/1999/xlink" preserveAspectRatio="none" x="0px" y="0px" width="256px" height="256px" viewBox="0 0 256 256">
<defs>
<linearGradient id="Gradient_1" gradientUnits="userSpaceOnUse" x1="137.5625" y1="175.9" x2="223.83749999999998" y2="175.9" spreadMethod="pad">
<stop  offset="0%" stop-color="#7ABAAD"/>

<stop  offset="100%" stop-color="#3A867A"/>
</linearGradient>

<radialGradient id="Gradient_2" gradientUnits="userSpaceOnUse" cx="0" cy="0" r="12.237499999999997" fx="0" fy="0" gradientTransform="matrix( 1.0000000000000002, 0, 0, 1.0143003064351381, 69.5,179.85) " spreadMethod="pad">
<stop  offset="0%" stop-color="#FF0000"/>

<stop  offset="100%" stop-color="#000000"/>
</radialGradient>

<linearGradient id="Gradient_3" gradientUnits="userSpaceOnUse" x1="75.10000000000001" y1="192.975" x2="63.300000000000004" y2="166.42499999999998" spreadMethod="pad">
<stop  offset="0%" stop-color="#FFFFFF"/>

<stop  offset="100%" stop-color="#115B59"/>
</linearGradient>

<linearGradient id="Gradient_4" gradientUnits="userSpaceOnUse" x1="59.425000000000004" y1="160.98749999999998" x2="76.97500000000001" y2="198.2125" spreadMethod="pad">
<stop  offset="0%" stop-color="#FFFFFF"/>

<stop  offset="100%" stop-color="#00958A"/>
</linearGradient>

<linearGradient id="Gradient_5" gradientUnits="userSpaceOnUse" x1="79.44999999999999" y1="206.6" x2="137.65" y2="206.6" spreadMethod="pad">
<stop  offset="0%" stop-color="#93939C"/>

<stop  offset="100%" stop-color="#01A7A7"/>
</linearGradient>

<linearGradient id="Gradient_6" gradientUnits="userSpaceOnUse" x1="90.7" y1="157.9875" x2="28.200000000000003" y2="176.8125" spreadMethod="pad">
<stop  offset="0%" stop-color="#ACD1D3"/>

<stop  offset="100%" stop-color="#2D6661"/>
</linearGradient>

<linearGradient id="Gradient_7" gradientUnits="userSpaceOnUse" x1="54.99999999999999" y1="133.975" x2="161.2" y2="228.92499999999998" spreadMethod="pad">
<stop  offset="0%" stop-color="#FFFFFF"/>

<stop  offset="98.82352941176471%" stop-color="#007C79"/>
</linearGradient>

<g id="Layer11_0_FILL">
<path fill="#E0A144" stroke="none" d="
M 156.25 209.95
Q 155.8 210.95 155.25 211.85
L 164.1 211.95 156.25 209.95
M 82.55 182.3
L 82.5 176
Q 80.55 182.45 80.6 182.6
L 82.55 182.3
M 134.4 70.85
L 133.45 71.8 133.05 74.55 134.4 70.85
M 158.1 56.15
L 158.85 56.8 160.4 54.2
Q 159.6 55.05 158.1 56.15
M 142.8 62.85
Q 144.3 62.75 144.3 61.6
L 142.8 62.85 Z"/>

<path fill="#2B7979" stroke="none" d="
M 59.5 121.05
Q 58.5 120.95 58.5 120.85
L 56.7 131.4
Q 61.4 123.55 61.55 122.7
L 61 121.15
Q 60.45 121.15 59.5 121.05
M 57.25 61.75
L 55.85 60.95 55.1 60.9 53.2 75.7 57.25 61.75
M 128.4 57.6
Q 126.05 55.7 123.7 53.65
L 122.45 63.4
Q 122.85 63.15 125.55 60.5 128.25 57.9 128.4 57.6
M 131.05 80.35
Q 131.15 80.3 132.05 77.65 132.85 75.3 133.05 74.55
L 133.45 71.8
Q 131.4 74.3 130.75 75.3 129.8 76.9 129.65 79.5 130.05 79.55 130.45 79.85 130.9 80.1 131.05 80.35
M 158.85 56.8
L 158.1 56.15 158.05 58.2 158.85 56.8
M 105.15 78.55
L 109.9 58.1
Q 101.9 66.2 101.9 71.55 101.9 71.7 102.2 74.4 103 77.4 105.15 78.55
M 217.8 77.95
Q 218.4 78.6 218.45 79.85
L 218.9 67.55
Q 215.1 74.7 216.5 76.55 216.85 77.1 217.8 77.95
M 217.25 86.7
Q 216.6 86.95 216.05 86.95
L 218.05 87.05
Q 218.15 87.05 218.2 86.1 218 86.4 217.25 86.7
M 196.5 40
L 195.75 41.35
Q 203.3 37.45 204.3 35 196.9 37.85 196.35 37.85 196.6 37.95 196.65 38.6 196.7 39.3 196.5 40 Z"/>

<path fill="#336666" stroke="none" d="
M 55.85 60.95
L 57.25 61.75 57.55 60.55
Q 56.75 60.85 55.85 60.95 Z"/>
</g>

<g id="Layer10_0_FILL">
<path fill="#33DE97" stroke="none" d="
M 224.8 47.6
Q 224.65 38.2 223.35 34 221.85 29.25 217.9 27.4 214.1 25.65 205.8 25.65 195.75 25.65 190.45 26.65 187.05 27.55 186.35 27.55 169.1 26.4 167.9 26.4 162.4 26.4 113.15 28.85 57.7 31.7 42.9 32.45 39.55 33.05 35.65 33 30.85 32.95 30.5 32.95 26.45 33.3 26.45 39.45 26.45 40.7 27.65 59.7 27.65 66.5 25.25 83.1 22.8 108.4 22.8 158.65 22.8 193.8 24.05 209.65 25.3 225.4 28.1 225.4 28.75 225.4 37.55 222.4 46.3 219.35 53.3 219.35
L 210.6 220.45
Q 217.8 222.75 220.05 214.75 221.2 210.75 221.2 200.5 221.2 198.75 220.25 183.9 219.25 169 219.25 161.35 219.25 151.75 222 120.75 224.65 89.75 224.65 70.2 224.85 53.5 224.8 47.6
M 154.5 63.7
Q 155.15 63.05 156.25 62.35
L 154.15 65.95 154.15 64.6 154.5 63.7
M 129 84.15
Q 129.9 83.8 131.4 82.55
L 130.2 85.55
Q 130.2 85.45 129 84.15
M 141.95 68.9
Q 141.95 69.95 140.65 70.05
L 141.95 68.9
M 63.55 70.1
Q 63.45 69.55 63.3 68.3 64.35 68.3 64.9 68.1 64.95 68.35 65 68.6
L 64.05 72.05
Q 63.75 70.95 63.55 70.1
M 152.55 200.25
L 159.55 202.05 151.65 201.95 152.55 200.25 Z"/>
</g>

<g id="Layer10_1_FILL">
<path fill="#1CA46C" stroke="none" d="
M 934.05 39.45
Q 934.05 35.5 930.1 35.5
L 752.1 35.5
Q 748.15 35.5 748.15 39.45
L 748.15 205.95
Q 748.15 209.9 752.1 209.9
L 930.1 209.9
Q 934.05 209.9 934.05 205.95
L 934.05 39.45 Z"/>
</g>

<g id="Layer10_2_FILL">
<path fill="#33DE97" stroke="none" d="
M 987.2 83.25
Q 987.2 79.3 983.25 79.3
L 962 79.3
Q 958.05 79.3 958.05 83.25
L 958.05 99.35
Q 958.05 103.3 962 103.3
L 983.25 103.3
Q 987.2 103.3 987.2 99.35
L 987.2 83.25 Z"/>
</g>

<g id="Layer9_0_FILL">
<path fill="#2AC484" stroke="none" d="
M 143.75 98
Q 143.75 77.8 129.75 63.6 115.7 49.35 95.8 49.35 75.85 49.35 61.9 63.6 47.85 77.8 47.85 98 47.85 118.15 61.9 132.4 75.85 146.6 95.8 146.6 115.7 146.6 129.75 132.4 143.75 118.15 143.75 98
M 96.25 65.45
Q 109.65 65.45 119.15 75.1 128.7 84.75 128.7 98.4 128.7 112.1 119.15 121.65 109.75 131.35 96.25 131.35 82.8 131.35 73.25 121.65 63.75 112.05 63.75 98.4 63.75 84.85 73.25 75.1 82.85 65.45 96.25 65.45 Z"/>
</g>

<g id="Layer8_0_FILL">
<path fill="#35AF7C" stroke="none" d="
M 190.8 106.25
L 191 83.4 133.85 85.9
Q 135.35 108.5 135 108.55 190.85 106.2 190.8 106.25 Z"/>
</g>

<g id="Layer7_0_FILL">
<path fill="#3BCB8F" stroke="none" d="
M 191 100.05
L 190.75 87.5 133.6 90.85
Q 135.5 103.2 135.15 103.25 191.05 99.95 191 100.05 Z"/>
</g>

<g id="Layer6_0_FILL">
<path fill="#1CA46C" stroke="none" d="
M 927.5 71.8
Q 921.25 65.55 912.35 65.55 903.45 65.55 897.15 71.8 890.9 78.1 890.9 87 890.9 95.9 897.15 102.15 903.45 108.45 912.35 108.45 921.25 108.45 927.5 102.15 933.8 95.9 933.8 87 933.8 78.1 927.5 71.8 Z"/>
</g>

<g id="Layer5_0_FILL">
<path fill="url(#Gradient_1)" stroke="none" d="
M 223.9 135.9
Q 223.9 119.6 207.1 119.6
L 154.45 119.6
Q 137.6 119.6 137.6 135.9
L 137.6 216
Q 137.6 228.8 148.1 231.5 150.85 232.25 154.45 232.25
L 207.1 232.25
Q 210.65 232.25 213.5 231.5 223.9 228.8 223.9 216
L 223.9 135.9
M 203.3 124.4
L 204.8 124.4
Q 220.15 124.4 220.15 139.3
L 220.15 157.25 220.15 160.3 220.15 172.45 220.15 212.45
Q 220.15 216.2 219.15 219 219.1 219.1 219.05 219.3 218.9 219.85 218.65 220.3 218.45 220.6 218.35 220.9 217.9 221.7 217.45 222.4 217.4 222.4 217.4 222.45 217.25 222.55 217.15 222.75 216.6 223.35 216.05 223.9 215.85 224.05 215.6 224.3 215.25 224.5 214.95 224.75 214.7 224.9 214.45 225.1 212.5 226.25 210 226.85 207.65 227.35 204.8 227.35
L 158.7 227.35 156.65 227.35
Q 151.15 227.35 147.65 225.45 145.9 224.5 144.65 223.1
L 144.6 223.05
Q 144.55 223 144.5 222.9 143.75 222.05 143.2 221.05 142.75 220.25 142.4 219.35 142.2 218.85 142.1 218.4 142.05 218.15 141.95 217.9 141.65 216.85 141.55 215.7 141.5 215.6 141.5 215.45 141.3 214 141.3 212.45
L 141.3 139.2
Q 141.3 139.05 141.3 138.85
L 141.35 138.05
Q 141.35 137.05 141.5 136.2 141.75 134.4 142.25 132.9 142.75 131.4 143.5 130.15 143.7 129.85 143.9 129.6 144 129.4 144.2 129.25 147.25 125.3 153.55 124.55 155.05 124.4 156.65 124.4
L 180.55 124.4 186.35 124.4 199.3 124.4 203.3 124.4 Z"/>

<path fill="#DE7A7A" stroke="none" d="
M 207.4 216.9
Q 206.8 216.2 206.7 215.7 206.4 214.85 206.85 214.1 207.05 213.85 207.3 213.65 206.95 213.4 206.6 213.3 205.25 213 204.35 213.95 203.75 214.7 203.75 215.4 203.15 215.4 202.65 215.75 201.5 216.5 201.6 217.85 201.7 218.7 202.35 219.55 204.45 222.9 209.2 226.3 209.6 226.6 210 226.85 212.5 226.25 214.45 225.1 214.7 224.9 214.95 224.75 215.25 224.5 215.6 224.3
L 215.4 224.2
Q 211.05 221.3 207.4 216.9
M 211.45 214.5
Q 211.15 214.55 210.95 214.7
L 218.65 220.3
Q 218.9 219.85 219.05 219.3 219.1 219.1 219.15 219 218.75 218.7 218.3 218.3
L 214.8 215.9
Q 213.55 215 212.65 214.7 212.05 214.45 211.45 214.5 Z"/>

<path fill="#7D3D3D" stroke="none" d="
M 144.6 223.05
L 144.65 223.1 144.65 223.05 144.6 223.05
M 216.55 157.05
Q 214.8 155.7 214.35 155.15 213.5 154.25 213.1 153.9 212.3 153.2 211.6 153.15 210.5 153.05 209.85 154 209.25 154.9 209.6 155.9 209.75 156.05 210.5 157.2 211 157.75 211.75 158.85 211.3 158.7 210.95 158.85 210.2 159.15 210.35 160.05 210.35 160.6 210.8 161.45 211.6 163.15 212.6 164.4 213.15 165.15 214.3 166.3 215.55 167.5 216 168.1
L 217.45 169.95
Q 218.05 170.6 219.35 171.8 219.75 172.15 220.15 172.45
L 220.15 160.3
Q 217.3 157.65 216.55 157.05
M 208.15 135
Q 208.9 135.55 209.5 135.6 209.4 136.6 210.2 137.15 209.75 138 210 139 210.15 139.95 210.95 140.5 210.1 140.65 209.75 141.6 209.3 142.45 209.6 143.35 209.9 144.5 211.65 146.1 215.55 150.05 220.15 157.25
L 220.15 139.3
Q 220.15 124.4 204.8 124.4
L 203.3 124.4
Q 203 124.85 202.8 125.25 201.85 124.55 200 124.45 199.675 124.409375 199.3 124.4
L 186.35 124.4
Q 183.05 124.5 180.55 124.75 180.55 124.55 180.55 124.4
L 156.65 124.4
Q 155.05 124.4 153.55 124.55 147.25 125.3 144.2 129.25 144 129.4 143.9 129.6 143.7 129.85 143.5 130.15 142.75 131.4 142.25 132.9 141.75 134.4 141.5 136.2 141.35 137.05 141.35 138.05
L 141.3 138.85
Q 141.3 139.05 141.3 139.2
L 141.3 212.45
Q 141.3 214 141.5 215.45 141.6 215.45 141.75 215.45 141.95 215.05 142.4 214.6 145.6 211.45 148.9 210.3 149.45 210.2 149.55 210.45 149.6 210.55 149.45 210.85 149 211.55 148.6 212.1
L 150.1 212.2
Q 150.7 212.4 150.75 212.4 151.05 212.5 151.1 212.8 151.45 213 151.7 213.25 152.35 212.95 152.55 212.95 152.95 212.95 153 213.1 153.15 213.4 152.8 213.9 152.7 214.15 152.65 214.3 152.8 214.2 152.85 214.2 153.1 214.3 153.1 214.55
L 153.1 215
Q 153 215.55 153.1 216.55
L 152.55 217.65 152 219.25
Q 151.6 220.25 150.4 221.6 148.95 223.15 148.55 223.85 148.05 224.85 147.65 225.45 151.15 227.35 156.65 227.35
L 158.7 227.35
Q 158.8 227.3 158.95 227.2 161.55 226 162.05 224.35 162.4 223.1 161.45 221.95 160.4 220.8 159.1 220.9 159.75 220.15 159.8 219 159.9 217.85 159.3 217 158.7 216.15 157.6 215.75 156.6 215.45 155.6 215.85 156.05 215.05 155.95 214.1 155.8 213.1 155.15 212.45 153.85 210.95 151.95 211.65 151.6 210.75 150.75 210.2 149.9 209.65 148.9 209.7 150.4 205.8 149.3 203.95 148.9 203.35 148.7 203.05 148.35 202.55 148.3 202.15 148.2 201.6 148.6 200.5 149.2 198.8 149.35 196.7 149.5 194.95 149 194.05 148.25 192.4 146.8 192.7
L 149.3 182.45
Q 149.8 180.55 149.6 179.5 149.5 178.7 148.95 178.1 148.4 177.5 147.7 177.45 148.95 174.55 148.95 173.15 148.95 171.95 148.4 170.95 147.75 169.95 146.75 169.55 146.8 168.4 147.4 166.85 148.1 165.15 148.4 164.25 149.6 160.7 147.9 158.9
L 151.65 149.05
Q 152.2 147.75 152.25 146.65 152.25 145.2 151.25 144.6 151.4 144 151.9 143.1 152.5 141.95 152.65 141.6 152.85 141.15 152.95 140.85 153.45 140.55 153.65 140.15 154.25 139.75 155 139 155.75 138.05 155.95 137.05 155.8 135.45 156.2 134.75 156.4 134.15 157.3 133.45 158.25 132.75 158.55 132.3 158.75 132.05 158.85 131.7 158.95 132 159.1 132.25 159.6 133.1 160.4 133 160.25 134 160.85 135.05 161.45 136 162.45 136.3 163.45 136.6 164.55 136.05 165.55 135.6 165.95 134.6 166.8 136.25 168.6 136.25 170.45 136.25 171.25 134.6 171.9 135.3 172.85 135.4 173.85 135.55 174.65 135 175.05 134.7 176.2 133.1 176.6 132.7 177 132.3 183.15 132.55 198.15 132.55 199.25 132.55 199.95 132.6 200.05 132.75 200.2 132.85 200.8 133.35 201.8 133.45 202.15 133.45 203.55 133.4 205.45 133.4 206.8 134.15
L 208.15 135 Z"/>

<path fill="#A95555" stroke="none" d="
M 150.75 212.4
Q 150.7 212.4 150.1 212.2
L 148.6 212.1
Q 149 211.55 149.45 210.85 149.6 210.55 149.55 210.45 149.45 210.2 148.9 210.3 145.6 211.45 142.4 214.6 141.95 215.05 141.75 215.45 141.6 215.45 141.5 215.45 141.5 215.6 141.55 215.7 141.65 216.85 141.95 217.9 142.05 218.15 142.1 218.4 142.2 218.85 142.4 219.35 142.75 220.25 143.2 221.05 143.75 222.05 144.5 222.9 144.55 223 144.6 223.05
L 144.65 223.05 144.65 223.1
Q 145.9 224.5 147.65 225.45 148.05 224.85 148.55 223.85 148.95 223.15 150.4 221.6 151.6 220.25 152 219.25
L 152.55 217.65 153.1 216.55
Q 153 215.55 153.1 215
L 153.1 214.55
Q 153.1 214.3 152.85 214.2 152.8 214.2 152.65 214.3 152.7 214.15 152.8 213.9 153.15 213.4 153 213.1 152.95 212.95 152.55 212.95 152.35 212.95 151.7 213.25 151.45 213 151.1 212.8 151.05 212.5 150.75 212.4
M 180.55 124.4
Q 180.55 124.55 180.55 124.75 183.05 124.5 186.35 124.4
L 180.55 124.4
M 202.8 125.25
Q 203 124.85 203.3 124.4
L 199.3 124.4
Q 199.675 124.409375 200 124.45 201.85 124.55 202.8 125.25
M 209.5 135.6
Q 208.9 135.55 208.15 135
L 206.8 134.15
Q 205.45 133.4 203.55 133.4 202.15 133.45 201.8 133.45 200.8 133.35 200.2 132.85 200.05 132.75 199.95 132.6 199.25 132.55 198.15 132.55 183.15 132.55 177 132.3 176.6 132.7 176.2 133.1 175.05 134.7 174.65 135 173.85 135.55 172.85 135.4 171.9 135.3 171.25 134.6 170.45 136.25 168.6 136.25 166.8 136.25 165.95 134.6 165.55 135.6 164.55 136.05 163.45 136.6 162.45 136.3 161.45 136 160.85 135.05 160.25 134 160.4 133 159.6 133.1 159.1 132.25 158.95 132 158.85 131.7 158.75 132.05 158.55 132.3 158.25 132.75 157.3 133.45 156.4 134.15 156.2 134.75 155.8 135.45 155.95 137.05 155.75 138.05 155 139 154.25 139.75 153.65 140.15 153.45 140.55 152.95 140.85 152.85 141.15 152.65 141.6 152.5 141.95 151.9 143.1 151.4 144 151.25 144.6 152.25 145.2 152.25 146.65 152.2 147.75 151.65 149.05
L 147.9 158.9
Q 149.6 160.7 148.4 164.25 148.1 165.15 147.4 166.85 146.8 168.4 146.75 169.55 147.75 169.95 148.4 170.95 148.95 171.95 148.95 173.15 148.95 174.55 147.7 177.45 148.4 177.5 148.95 178.1 149.5 178.7 149.6 179.5 149.8 180.55 149.3 182.45
L 146.8 192.7
Q 148.25 192.4 149 194.05 149.5 194.95 149.35 196.7 149.2 198.8 148.6 200.5 148.2 201.6 148.3 202.15 148.35 202.55 148.7 203.05 148.9 203.35 149.3 203.95 150.4 205.8 148.9 209.7 149.9 209.65 150.75 210.2 151.6 210.75 151.95 211.65 153.85 210.95 155.15 212.45 155.8 213.1 155.95 214.1 156.05 215.05 155.6 215.85 156.6 215.45 157.6 215.75 158.7 216.15 159.3 217 159.9 217.85 159.8 219 159.75 220.15 159.1 220.9 160.4 220.8 161.45 221.95 162.4 223.1 162.05 224.35 161.55 226 158.95 227.2 158.8 227.3 158.7 227.35
L 204.8 227.35
Q 207.65 227.35 210 226.85 209.6 226.6 209.2 226.3 204.45 222.9 202.35 219.55 201.7 218.7 201.6 217.85 201.5 216.5 202.65 215.75 203.15 215.4 203.75 215.4 203.75 214.7 204.35 213.95 205.25 213 206.6 213.3 206.95 213.4 207.3 213.65 207.05 213.85 206.85 214.1 206.4 214.85 206.7 215.7 206.8 216.2 207.4 216.9 211.05 221.3 215.4 224.2
L 215.6 224.3
Q 215.85 224.05 216.05 223.9 216.6 223.35 217.15 222.75 217.25 222.55 217.4 222.45 217.4 222.4 217.45 222.4 217.9 221.7 218.35 220.9 218.45 220.6 218.65 220.3
L 210.95 214.7
Q 211.15 214.55 211.45 214.5 212.05 214.45 212.65 214.7 213.55 215 214.8 215.9
L 218.3 218.3
Q 218.75 218.7 219.15 219 220.15 216.2 220.15 212.45
L 220.15 172.45
Q 219.75 172.15 219.35 171.8 218.05 170.6 217.45 169.95
L 216 168.1
Q 215.55 167.5 214.3 166.3 213.15 165.15 212.6 164.4 211.6 163.15 210.8 161.45 210.35 160.6 210.35 160.05 210.2 159.15 210.95 158.85 211.3 158.7 211.75 158.85 211 157.75 210.5 157.2 209.75 156.05 209.6 155.9 209.25 154.9 209.85 154 210.5 153.05 211.6 153.15 212.3 153.2 213.1 153.9 213.5 154.25 214.35 155.15 214.8 155.7 216.55 157.05 217.3 157.65 220.15 160.3
L 220.15 157.25
Q 215.55 150.05 211.65 146.1 209.9 144.5 209.6 143.35 209.3 142.45 209.75 141.6 210.1 140.65 210.95 140.5 210.15 139.95 210 139 209.75 138 210.2 137.15 209.4 136.6 209.5 135.6 Z"/>
</g>

<g id="Layer5_1_FILL">
<path fill="#142B37" stroke="none" d="
M 870.8 127.65
Q 858.5 127.65 858.5 139.95
L 858.5 187.7
Q 858.5 200 870.8 200
L 900.95 200
Q 913.25 200 913.25 187.7
L 913.25 139.95
Q 913.25 127.65 900.95 127.65
L 870.8 127.65 Z"/>
</g>

<g id="Layer5_2_FILL">
<path fill="#A5E9E9" stroke="none" d="
M 866.4 140.6
Q 867.55 141.75 869.2 141.75
L 903.2 141.75
Q 904.85 141.75 906 140.6 907.15 139.45 907.15 137.8
L 907.15 137.7
Q 907.15 136.05 906 134.9 904.85 133.75 903.2 133.75
L 869.2 133.75
Q 867.55 133.75 866.4 134.9 865.25 136.05 865.25 137.7
L 865.25 137.8
Q 865.25 139.45 866.4 140.6 Z"/>
</g>

<g id="Layer5_3_FILL">
<path fill="#FCBC47" stroke="none" d="
M 866.4 140.6
Q 867.55 141.75 869.2 141.75
L 903.2 141.75
Q 904.85 141.75 906 140.6 907.15 139.45 907.15 137.8
L 907.15 137.7
Q 907.15 136.05 906 134.9 904.85 133.75 903.2 133.75
L 869.2 133.75
Q 867.55 133.75 866.4 134.9 865.25 136.05 865.25 137.7
L 865.25 137.8
Q 865.25 139.45 866.4 140.6 Z"/>
</g>

<g id="Layer5_4_FILL">
<path fill="#FCBC47" stroke="none" d="
M 866.4 140.6
Q 867.55 141.75 869.2 141.75
L 903.2 141.75
Q 904.85 141.75 906 140.6 907.15 139.45 907.15 137.8
L 907.15 137.7
Q 907.15 136.05 906 134.9 904.85 133.75 903.2 133.75
L 869.2 133.75
Q 867.55 133.75 866.4 134.9 865.25 136.05 865.25 137.7
L 865.25 137.8
Q 865.25 139.45 866.4 140.6 Z"/>
</g>

<g id="Layer5_5_FILL">
<path fill="#FCBC47" stroke="none" d="
M 866.4 140.6
Q 867.55 141.75 869.2 141.75
L 903.2 141.75
Q 904.85 141.75 906 140.6 907.15 139.45 907.15 137.8
L 907.15 137.7
Q 907.15 136.05 906 134.9 904.85 133.75 903.2 133.75
L 869.2 133.75
Q 867.55 133.75 866.4 134.9 865.25 136.05 865.25 137.7
L 865.25 137.8
Q 865.25 139.45 866.4 140.6 Z"/>
</g>

<g id="Layer5_6_FILL">
<path fill="#FCBC47" stroke="none" d="
M 866.4 140.6
Q 867.55 141.75 869.2 141.75
L 903.2 141.75
Q 904.85 141.75 906 140.6 907.15 139.45 907.15 137.8
L 907.15 137.7
Q 907.15 136.05 906 134.9 904.85 133.75 903.2 133.75
L 869.2 133.75
Q 867.55 133.75 866.4 134.9 865.25 136.05 865.25 137.7
L 865.25 137.8
Q 865.25 139.45 866.4 140.6 Z"/>
</g>

<g id="Layer5_7_FILL">
<path fill="#FCBC47" stroke="none" d="
M 866.4 140.6
Q 867.55 141.75 869.2 141.75
L 903.2 141.75
Q 904.85 141.75 906 140.6 907.15 139.45 907.15 137.8
L 907.15 137.7
Q 907.15 136.05 906 134.9 904.85 133.75 903.2 133.75
L 869.2 133.75
Q 867.55 133.75 866.4 134.9 865.25 136.05 865.25 137.7
L 865.25 137.8
Q 865.25 139.45 866.4 140.6 Z"/>
</g>

<g id="Layer5_8_FILL">
<path fill="#FCBC47" stroke="none" d="
M 866.4 140.6
Q 867.55 141.75 869.2 141.75
L 903.2 141.75
Q 904.85 141.75 906 140.6 907.15 139.45 907.15 137.8
L 907.15 137.7
Q 907.15 136.05 906 134.9 904.85 133.75 903.2 133.75
L 869.2 133.75
Q 867.55 133.75 866.4 134.9 865.25 136.05 865.25 137.7
L 865.25 137.8
Q 865.25 139.45 866.4 140.6 Z"/>
</g>

<g id="Layer5_9_FILL">
<path fill="#FCBC47" stroke="none" d="
M 866.4 140.6
Q 867.55 141.75 869.2 141.75
L 903.2 141.75
Q 904.85 141.75 906 140.6 907.15 139.45 907.15 137.8
L 907.15 137.7
Q 907.15 136.05 906 134.9 904.85 133.75 903.2 133.75
L 869.2 133.75
Q 867.55 133.75 866.4 134.9 865.25 136.05 865.25 137.7
L 865.25 137.8
Q 865.25 139.45 866.4 140.6 Z"/>
</g>

<g id="Layer5_10_FILL">
<path fill="#FCBC47" stroke="none" d="
M 866.4 140.6
Q 867.55 141.75 869.2 141.75
L 903.2 141.75
Q 904.85 141.75 906 140.6 907.15 139.45 907.15 137.8
L 907.15 137.7
Q 907.15 136.05 906 134.9 904.85 133.75 903.2 133.75
L 869.2 133.75
Q 867.55 133.75 866.4 134.9 865.25 136.05 865.25 137.7
L 865.25 137.8
Q 865.25 139.45 866.4 140.6 Z"/>
</g>

<g id="Layer5_11_FILL">
<path fill="#FCBC47" stroke="none" d="
M 866.4 140.6
Q 867.55 141.75 869.2 141.75
L 903.2 141.75
Q 904.85 141.75 906 140.6 907.15 139.45 907.15 137.8
L 907.15 137.7
Q 907.15 136.05 906 134.9 904.85 133.75 903.2 133.75
L 869.2 133.75
Q 867.55 133.75 866.4 134.9 865.25 136.05 865.25 137.7
L 865.25 137.8
Q 865.25 139.45 866.4 140.6 Z"/>
</g>

<g id="Layer5_12_FILL">
<path fill="#7ED15C" stroke="none" d="
M 866.4 140.6
Q 867.55 141.75 869.2 141.75
L 903.2 141.75
Q 904.85 141.75 906 140.6 907.15 139.45 907.15 137.8
L 907.15 137.7
Q 907.15 136.05 906 134.9 904.85 133.75 903.2 133.75
L 869.2 133.75
Q 867.55 133.75 866.4 134.9 865.25 136.05 865.25 137.7
L 865.25 137.8
Q 865.25 139.45 866.4 140.6 Z"/>
</g>

<g id="Layer5_13_FILL">
<path fill="#E56464" stroke="none" d="
M 866.4 140.6
Q 867.55 141.75 869.2 141.75
L 903.2 141.75
Q 904.85 141.75 906 140.6 907.15 139.45 907.15 137.8
L 907.15 137.7
Q 907.15 136.05 906 134.9 904.85 133.75 903.2 133.75
L 869.2 133.75
Q 867.55 133.75 866.4 134.9 865.25 136.05 865.25 137.7
L 865.25 137.8
Q 865.25 139.45 866.4 140.6 Z"/>
</g>

<g id="Layer4_0_FILL">
<path fill="#2AC484" stroke="none" d="
M 86 192.7
Q 85.8 193 85.6 193.35 86.1568359375 192.633984375 86.65 191.9 86.382421875 192.232421875 86 192.7
M 84.4 166.35
Q 85.15 166.1 85.9 166.35 85.2 165.4 84.35 164.55 84.55 165.4 84.4 166.35
M 88 169.55
Q 88 169.6 88 169.75 87.95 170.3 87.75 171.4 87.65 172.65 88.15 175.7 89.2 182.6 87.95 186.5 87.65 187.45 87.65 187.65 87.65 188.05 87.75 188.65 88 188.9 88.1 189.25 88.1 189.3 88.15 189.35 90.4 184.95 90.4 179.6 90.4 174.05 88 169.55
M 59.7 168.95
L 59.55 168.95
Q 59.55 168.99921875 59.55 169.1 59.55234375 168.99921875 59.7 168.95
M 55.7 163.75
Q 55.5 163.5 55.35 163.2 55.3052734375 163.23359375 55.25 163.25 55.459765625 163.562890625 55.75 163.95
L 55.8 163.95 55.7 163.75 Z"/>

<path fill="url(#Gradient_2)" stroke="none" d="
M 61.6 171.55
Q 61.55 171.6 61.5 171.7
L 60 173.55
Q 58.2 176.35 58.2 179.8 58.2 180.6 58.3 181.3 58.7 184.65 60.85 187.25 61.15 187.6 61.5 187.95 62.25 188.75 63.15 189.35 63.7 189.8 64.3 190.1 64.45 190.2 64.65 190.3 65.7 190.8 66.9 191.05 68.15 191.35 69.55 191.35 70.8 191.35 71.95 191.1 72.65 191 73.3 190.75
L 73.35 190.75 75.15 189.9
Q 75.4 189.75 75.7 189.55
L 75.75 189.55
Q 76.7 188.9 77.55 187.95 77.8 187.75 77.95 187.55
L 78.1 187.5
Q 78.45 187 78.75 186.6 79.5 185.55 80 184.4 80.1 184.15 80.25 183.85 80.9 182 80.9 179.8 80.9 178.15 80.55 176.75
L 79.7 174.55
Q 79.6 174.35 79.45 174.15 78.7 172.85 77.55 171.7 77.2 171.3 76.75 170.95 74.2 168.7 70.85 168.4 70.55 168.35 70.25 168.35
L 70.2 168.35
Q 69.85 168.3 69.55 168.3 69.45 168.3 69.35 168.3
L 68.35 168.35
Q 67.3 168.45 66.3 168.8 64.35 169.3 62.7 170.65
L 61.6 171.55 Z"/>
</g>

<g id="Layer3_0_FILL">
<path fill="url(#Gradient_3)" stroke="none" d="
M 70.1 165.25
Q 69.7 165.2 69.45 165.2 69.35 165.2 69.3 165.2 69.2 165.2 69.15 165.2
L 69.05 165.2
Q 68.9 165.2 68.75 165.2 68.55 165.2 68.35 165.25
L 68.3 165.25 65.3 165.75 65.2 165.8 63.95 166.25
Q 63.5 166.4 63.1 166.6 62.85 166.7 62.6 166.85 62.45 166.95 62.25 167.1 61.65 167.4 61.05 167.85 60.75 168.05 60.45 168.3 60.25 168.4 60.1 168.6 59.85 168.7 59.75 168.9
L 59.7 168.95
Q 59.55 169 59.55 169.1 59.35 169.25 59.1 169.5 59.05 169.55 59 169.6 58.9 169.7 58.9 169.75 58.85 169.75 58.8 169.8 58.55 170.05 58.4 170.3 58.3 170.35 58.3 170.4 58.25 170.45 58.15 170.6
L 58 170.75
Q 57.8 171 57.65 171.25 57.55 171.3 57.55 171.4 57.25 171.75 57.05 172.1
L 57 172.15 57 172.25
Q 56.9 172.35 56.85 172.45
L 56.85 172.55
Q 56.7 172.7 56.6 172.95 56.4 173.25 56.25 173.6 56.15 173.75 56.1 173.9
L 56.1 174 56.05 174.05 56.05 174.1
Q 56 174.25 55.95 174.4
L 55.75 174.75
Q 55.75 174.85 55.75 174.9 55.7 174.95 55.7 175.05 55.5 175.5 55.4 176 55.4 176.05 55.4 176.15 55.15 176.85 55.1 177.55 55.05 177.7 55.05 177.85 54.9 178.75 54.9 179.8 54.9 180.15 55 180.6
L 55 180.7
Q 55 181.75 55.2 182.75 55.2 182.85 55.2 182.9
L 55.2 182.95 55.25 183 55.25 183.05
Q 55.25 183.2 55.35 183.3 55.35 183.35 55.35 183.5
L 58.4 189.3
Q 58.45 189.45 58.55 189.55 58.6 189.55 58.7 189.65 58.75 189.75 58.8 189.8 58.85 189.85 58.9 189.9 59 189.95 59.1 190.1 59.15 190.15 59.25 190.3 59.4 190.4 59.5 190.5
L 59.95 190.9 60 190.9 60.65 191.5
Q 60.75 191.6 60.95 191.75
L 61 191.8
Q 61.3 191.95 61.6 192.2 61.65 192.2 61.7 192.25
L 61.8 192.25
Q 62.15 192.5 62.55 192.75 63.1 193.05 63.75 193.3 63.85 193.35 64.05 193.45 64.15 193.5 64.35 193.55 64.55 193.6 64.7 193.65
L 69.25 194.4 69.3 194.4
Q 69.45 194.4 69.5 194.4 69.65 194.4 69.9 194.4
L 69.95 194.4
Q 70.4 194.4 70.85 194.35 71 194.35 71.15 194.35 71.85 194.2 72.6 194.1 72.6 194.05 72.7 194.05
L 72.75 194.05
Q 73.3 193.85 73.85 193.75 73.95 193.65 74 193.65 74.55 193.45 75.1 193.2 75.15 193.2 75.3 193.1 75.4 193.05 75.5 193 76.25 192.65 76.9 192.25 76.9 192.2 76.95 192.2
L 77 192.15 77.85 191.6
Q 77.9 191.5 78 191.5 78.25 191.2 78.55 190.95
L 78.6 190.95 78.7 190.9
Q 79.05 190.5 79.4 190.2
L 79.45 190.1
Q 79.75 189.8 80.05 189.5 80.15 189.35 80.3 189.25 80.55 188.95 80.75 188.65 81.15 188.15 81.5 187.65 81.6 187.45 81.8 187.2 82 186.7 82.25 186.2 82.45 185.9 82.55 185.6 82.55 185.55 82.6 185.55 82.85 184.95 83.05 184.35 83.2 183.8 83.35 183.2 83.4 182.85 83.5 182.45 83.5 182.35 83.5 182.2 83.7 181.05 83.7 179.85
L 83.7 179.8
Q 83.7 179.6 83.7 179.45 83.65 177.75 83.3 176.25 82.8 174.3 81.85 172.6 80.9 170.95 79.45 169.5 79.15 169.2 78.9 168.95
L 78.85 168.9
Q 78.55 168.6 78.25 168.4 78.15 168.3 78.1 168.25
L 78 168.25
Q 76.45 166.95 74.75 166.25
L 73.6 165.85
Q 73.45 165.75 73.25 165.75 71.7 165.3 70.1 165.25
M 61.6 171.55
L 62.7 170.65
Q 62.75 170.55 62.85 170.45
L 62.85 170.55
Q 62.9 170.45 63 170.4 63 170.35 63.05 170.35
L 64.45 169.5
Q 65.35 169 66.3 168.8 66.3 168.7 66.4 168.7 67.35 168.45 68.35 168.35
L 69.35 168.3
Q 69.45 168.3 69.55 168.3
L 69.7 168.3
Q 69.95 168.3 70.2 168.35
L 70.25 168.35
Q 70.55 168.35 70.85 168.4 71.95 168.45 73 168.85
L 73.7 169.1
Q 75.2 169.7 76.6 170.75 76.65 170.85 76.75 170.95 76.9 171 77 171.15 77.25 171.4 77.55 171.7 78.6 172.75 79.35 174
L 79.45 174.15
Q 79.6 174.35 79.7 174.55
L 80.55 176.75
Q 80.65 177.2 80.7 177.75 80.9 178.65 80.9 179.6 80.9 179.7 80.9 179.8 80.9 180.65 80.85 181.45 80.7 182.2 80.45 183.05 80.4 183.2 80.4 183.35 80.3 183.6 80.25 183.85 80.15 184 80.1 184.1 80.05 184.2 80.05 184.35
L 80 184.4
Q 79.7 185.05 79.35 185.75 79.15 186 79.05 186.2
L 78.75 186.6
Q 78.7 186.65 78.7 186.7 78.4 187.05 78.1 187.5
L 77.95 187.55
Q 77.9 187.6 77.85 187.75 77.8 187.75 77.8 187.8 77.65 187.85 77.55 187.95 77.2 188.35 76.85 188.7 76.7 188.75 76.6 188.9 76.4 189 76.15 189.2 75.95 189.35 75.75 189.55
L 75.7 189.55
Q 75.4 189.75 75.15 189.9
L 73.35 190.75 73.3 190.75
Q 73 190.8 72.75 190.95 72.35 191.05 71.95 191.1 70.8 191.35 69.55 191.35 68.95 191.35 68.4 191.3 68 191.3 67.65 191.25 67.4 191.2 67.2 191.1 67.05 191.1 66.9 191.05 66.6 191 66.4 190.95 65.6 190.7 64.9 190.4 64.75 190.35 64.65 190.3 64.45 190.2 64.3 190.1 64.1 190.05 64 189.9 63.7 189.8 63.45 189.6 63.4 189.55 63.3 189.5 63.2 189.45 63.15 189.45
L 63.15 189.35 63.05 189.3 63 189.3 62.9 189.25
Q 62.55 188.95 62.25 188.7
L 61.95 188.45
Q 61.9 188.4 61.85 188.35 61.65 188.15 61.55 188.05
L 61.5 187.95
Q 61.3 187.8 61.15 187.6
L 61.05 187.55
Q 60.95 187.35 60.85 187.25
L 60.75 187.15
Q 60.65 187 60.55 186.9 60.4 186.7 60.3 186.6 60.25 186.45 60.15 186.4
L 60.15 186.3
Q 60.05 186.2 60.05 186.1
L 60 186.1
Q 59.95 186.05 59.95 186 59.8 185.8 59.7 185.6 59.55 185.35 59.45 185.15
L 59.45 185.05
Q 59.25 184.75 59.15 184.5 59 184.15 58.9 183.85 58.85 183.75 58.8 183.6 58.75 183.5 58.75 183.45
L 58.4 182.05
Q 58.4 181.9 58.4 181.85 58.3 181.55 58.3 181.3 58.2 180.65 58.2 180.05 58.2 179.9 58.2 179.8 58.2 179.25 58.25 178.7 58.25 178.55 58.3 178.45 58.3 178 58.45 177.55
L 59.65 174.25
Q 59.7 174.1 59.75 174
L 59.8 173.9 59.8 173.85
Q 59.85 173.7 60 173.55
L 61.5 171.7 61.55 171.7
Q 61.55 171.6 61.6 171.55 Z"/>
</g>

<g id="Layer2_0_FILL">
<path fill="url(#Gradient_4)" stroke="none" d="
M 78.8 160.35
Q 78.7 160.3 78.6 160.25 78.4 160.1 78.15 160
L 70.4 158.05
Q 70.3 158.05 70.25 158.05 70.15 158.05 70.1 158.05 69.95 158.05 69.85 158.05 69.7 158.05 69.6 158.05 69.5 158.05 69.35 158.05 69.25 158.05 69.15 158.05 68.4 158.05 67.75 158.1
L 65.95 158.3
Q 65.85 158.3 65.8 158.3 65.65 158.3 65.6 158.35 65.5 158.35 65.35 158.35 65.25 158.35 65.2 158.4 64.15 158.55 63.2 158.85 62.8 158.95 62.5 159.1
L 62.4 159.1 62.3 159.15
Q 60.4 159.75 58.7 160.8 58.4 160.95 58.1 161.15
L 55.75 162.85
Q 55.7 162.9 55.65 162.95 55.45 163 55.35 163.2 55.5 163.5 55.7 163.75
L 55.8 163.95 55.75 163.95
Q 55.45 163.55 55.25 163.25 55.1 163.4 55 163.55
L 54.85 163.65 54.1 164.35
Q 53.95 164.5 53.9 164.55 53.7 164.7 53.55 164.95 52.95 165.55 52.45 166.25 51.95 166.85 51.5 167.5 51.15 168.05 50.8 168.6
L 50.7 168.85
Q 50.6 168.9 50.55 169
L 50.55 169.1
Q 49.7 170.45 49.2 172 48.95 172.65 48.75 173.3 48.7 173.5 48.65 173.7 48.45 174.15 48.4 174.75 48.15 175.6 48.1 176.55
L 48.05 176.55
Q 48.05 176.7 48.05 176.95
L 48.05 177 48 177.2
Q 48 177.3 48 177.5
L 48 177.55
Q 47.85 178.55 47.85 179.6 47.85 180 47.85 180.3 47.85 180.35 47.85 180.45 47.85 180.65 47.95 180.9 47.95 181.05 47.95 181.3
L 47.95 181.45
Q 47.95 181.5 47.95 181.55 48 182.4 48.15 183.2
L 48.95 186.6
Q 49 186.7 49.05 186.9 49.3 187.65 49.65 188.45 49.8 188.7 49.9 188.95
L 49.9 189 49.95 189.05
Q 50.45 190.15 51.1 191.1 51.25 191.45 51.5 191.8 51.85 192.25 52.3 192.8
L 52.6 193.2
Q 52.65 193.25 52.7 193.35 52.85 193.5 52.95 193.65 53.5 194.25 54.1 194.9 54.55 195.35 55.1 195.85 55.15 195.9 55.35 196.05
L 55.4 196.15
Q 55.65 196.35 55.8 196.5 55.95 196.55 56 196.65 57.3 197.65 58.7 198.5 58.75 198.5 58.8 198.55
L 60.6 199.5
Q 61.35 199.8 62.15 200.1
L 62.2 200.1
Q 62.3 200.15 62.45 200.15
L 62.5 200.2 62.55 200.2
Q 62.6 200.25 62.75 200.25 63.2 200.4 63.7 200.55
L 67.4 201.1
Q 67.5 201.1 67.65 201.1 67.8 201.1 68.05 201.2 68.6 201.2 69.15 201.2 71.15 201.2 73.15 200.85 73.6 200.75 74.1 200.65 74.7 200.5 75.3 200.35
L 77.8 199.4
Q 78.55 199.05 79.4 198.65 80.3 198.1 81.15 197.5
L 81.65 197.1
Q 81.9 196.95 82.15 196.75
L 82.15 196.7
Q 83.2 195.85 84.15 194.9 84.9 194.15 85.6 193.35 85.8 193 86 192.7 86.45 192.15 86.75 191.8 86.85 191.6 86.9 191.55 87.2 191.1 87.45 190.7
L 87.8 190.05
Q 88 189.75 88.15 189.45
L 88.15 189.35
Q 88.1 189.3 88.1 189.25 88 188.9 87.75 188.65 87.65 188.05 87.65 187.65 87.65 187.45 87.95 186.5 89.2 182.6 88.15 175.7 87.65 172.65 87.75 171.4 87.95 170.3 88 169.75 88 169.6 88 169.55 87.1 167.85 85.9 166.35 85.15 166.1 84.4 166.35 84.55 165.4 84.35 164.55 84.3 164.5 84.15 164.35 82.1 162.25 79.7 160.85
L 78.8 160.35
M 69.45 165.2
Q 69.7 165.2 70.1 165.25 71.05 165.25 71.95 165.45 72.6 165.55 73.25 165.75 73.45 165.75 73.6 165.85
L 74.75 166.25
Q 75.7 166.65 76.6 167.2 77.3 167.65 78 168.25 78.45 168.55 78.85 168.9 79.15 169.2 79.45 169.5 83.7 173.75 83.7 179.8
L 83.7 179.85
Q 83.7 181.05 83.5 182.2 83.2 184.35 82.25 186.2 81.25 188.35 79.45 190.1 79.05 190.5 78.6 190.95
L 78.55 190.95
Q 78.2 191.3 77.85 191.6
L 77 192.15 76.95 192.2
Q 76.9 192.2 76.9 192.25 76.25 192.65 75.5 193 75.4 193.05 75.3 193.1 75.15 193.2 75.1 193.2 74.55 193.45 74 193.65 73.45 193.85 72.75 194.05
L 72.7 194.05
Q 72.6 194.05 72.6 194.1 71.85 194.2 71.15 194.35 71 194.35 70.85 194.35 70.4 194.4 69.95 194.4
L 69.9 194.4
Q 69.65 194.4 69.5 194.4 69.45 194.4 69.3 194.4
L 64.7 193.65
Q 64.35 193.55 64.05 193.45 63.3 193.1 62.55 192.75 61.7 192.25 60.95 191.75 60.75 191.6 60.65 191.5
L 59.5 190.5
Q 59.4 190.4 59.25 190.3 59.15 190.15 59.1 190.1 58.85 189.85 58.7 189.65 58.5 189.5 58.4 189.3
L 56.15 184.95 56.1 184.95 55.35 183.5 55.35 183.45
Q 55.25 183.3 55.25 183.2 55.25 183.15 55.25 183.05
L 55.25 183
Q 55.2 182.95 55.2 182.9 55.2 182.85 55.2 182.75 55.15 182.5 55.15 182.35 55.05 181.75 55 181.2 55 181.15 55 181.05 55 180.85 55 180.7
L 55 180.55
Q 54.9 180.15 54.9 179.8 54.9 179.6 54.9 179.5 54.9 179.25 55 179.05
L 55 179
Q 54.9 178.9 55 178.85 55 178.65 55 178.45 55.05 177.85 55.15 177.25 55.35 176.1 55.7 175.05 55.7 174.95 55.75 174.9 55.75 174.85 55.75 174.75
L 55.95 174.4
Q 55.95 174.3 56 174.3 56 174.1 56.1 174
L 56.1 173.9
Q 56.15 173.75 56.25 173.6 56.4 173.25 56.6 172.95 56.75 172.55 57.05 172.1 57.25 171.75 57.55 171.4 57.9 170.85 58.4 170.3 58.55 170.05 58.8 169.8 58.85 169.75 58.9 169.75 58.9 169.7 59 169.6 59.05 169.55 59.1 169.5 59.35 169.25 59.55 169.1 59.55 169 59.55 168.95
L 59.7 168.95 59.75 168.9
Q 60.05 168.6 60.45 168.3 60.7 168.05 61.05 167.85 61.65 167.4 62.25 167.1 63.05 166.6 63.95 166.25
L 65.3 165.75 68.3 165.25
Q 68.55 165.2 68.75 165.2 68.9 165.2 69.05 165.2 69.2 165.2 69.3 165.2 69.35 165.2 69.45 165.2 Z"/>
</g>

<g id="Layer1_0_FILL">
<path fill="url(#Gradient_5)" stroke="none" d="
M 81.45 196.4
L 90.4 197.5
Q 100.65 199.2 107.3 202.2 117.9 207.05 137.6 217.6
L 137.75 212.85 137.35 212.55
Q 121.85 204.5 108.45 199.3 99.7 195.85 89.6 194.2 81.95 193 78.7 193.3
L 81.45 196.4 Z"/>

<path fill="url(#Gradient_6)" stroke="none" d="
M 137.95 145.3
L 138.5 143.3 137.9 142.75
Q 137.05 144.75 133.95 147.5 127.8 153.05 116.7 156.8 106.15 160.4 93.75 162.55
L 83.45 163.85
Q 82.4 164.55 81.35 165.2 79.3 166.45 79.5 166.45 86.6 168.05 109.25 161.95 132.85 155.45 137.35 149.4 137.45 147.6 137.95 145.3 Z"/>

<path fill="url(#Gradient_7)" stroke="none" d="
M 78.6 193.3
Q 78.6 193.25 78.7 193.3 81.95 193 89.6 194.2 99.7 195.85 108.45 199.3 121.85 204.5 137.35 212.55
L 137.35 149.4
Q 132.85 155.45 109.25 161.95 86.6 168.05 79.5 166.45 81.85 168.3 83.4 170.9 85.8 174.9 85.6 179.85 85.45 185.15 83.15 188.95 81.25 192.1 78.55 193.3
L 78.6 193.3 Z"/>
</g>

<g id="Layer0_0_FILL">
<path fill="#33DE97" stroke="none" d="
M 93.15 78.9
Q 89.55 79.65 86.15 81.8 82.8 83.95 80.7 86.95
L 100.6 118.55
Q 104.1 117.85 107.45 115.7 110.85 113.55 113 110.5
L 93.15 78.9 Z"/>
</g>

<path id="Layer5_1_1_STROKES" stroke="#DCDCDC" stroke-width="1" stroke-linejoin="round" stroke-linecap="round" fill="none" d="
M 162.33157348632812 131.77097091674807
L 198.33574142456064 131.77097091674807
Q 213.02400894165044 131.77097091674807 213.02400894165044 146.66981887817383
L 213.02400894165044 204.50884246826172
Q 213.02400894165044 219.4076904296875 198.33574142456064 219.4076904296875
L 162.33157348632812 219.4076904296875
Q 147.64330596923833 219.4076904296875 147.64330596923833 204.50884246826172
L 147.64330596923833 146.66981887817383
Q 147.64330596923833 131.77097091674807 162.33157348632812 131.77097091674807 Z"/>

<path id="Layer5_2_1_STROKES" stroke="#DCDCDC" stroke-width="1" stroke-linejoin="round" stroke-linecap="round" fill="none" d="
M 160.42090454101572 139.15983047485352
L 201.02261962890634 139.15983047485352
Q 202.99299697875995 139.15983047485352 204.36629028320317 140.55281219482424 205.7395835876464 141.94579391479493 205.7395835876464 143.94441986083984
L 205.7395835876464 144.0655487060547
Q 205.7395835876464 146.0641746520996 204.36629028320317 147.4571563720703 202.99299697875995 148.85013809204102 201.02261962890634 148.85013809204102
L 160.42090454101572 148.85013809204102
Q 158.4505271911621 148.85013809204102 157.07723388671866 147.4571563720703 155.70394058227544 146.0641746520996 155.70394058227544 144.0655487060547
L 155.70394058227544 143.94441986083984
Q 155.70394058227544 141.94579391479493 157.07723388671866 140.55281219482424 158.4505271911621 139.15983047485352 160.42090454101572 139.15983047485352 Z"/>

<path id="Layer5_3_1_STROKES" stroke="#DCDCDC" stroke-width="1" stroke-linejoin="round" stroke-linecap="round" fill="none" d="
M 158.18959960937502 160.0570068359375
L 169.64052734375002 160.0570068359375
Q 170.19623413085935 160.0570068359375 170.583544921875 161.155908203125 170.97085571289062 162.25480957031252 170.97085571289062 163.83149414062498
L 170.97085571289062 163.92705078125002
Q 170.97085571289062 165.50373535156248 170.583544921875 166.60263671875 170.19623413085935 167.7015380859375 169.64052734375002 167.7015380859375
L 158.18959960937502 167.7015380859375
Q 157.63389282226558 167.7015380859375 157.24658203125 166.60263671875 156.85927124023436 165.50373535156248 156.85927124023436 163.92705078125002
L 156.85927124023436 163.83149414062498
Q 156.85927124023436 162.25480957031252 157.24658203125 161.155908203125 157.63389282226558 160.0570068359375 158.18959960937502 160.0570068359375 Z"/>

<path id="Layer5_4_1_STROKES" stroke="#DCDCDC" stroke-width="1" stroke-linejoin="round" stroke-linecap="round" fill="none" d="
M 175.63959960937504 160.0570068359375
L 187.09052734375004 160.0570068359375
Q 187.64623413085937 160.0570068359375 188.033544921875 161.155908203125 188.42085571289064 162.25480957031252 188.42085571289064 163.83149414062498
L 188.42085571289064 163.92705078125002
Q 188.42085571289064 165.50373535156248 188.033544921875 166.60263671875 187.64623413085937 167.7015380859375 187.09052734375004 167.7015380859375
L 175.63959960937504 167.7015380859375
Q 175.0838928222656 167.7015380859375 174.69658203125002 166.60263671875 174.30927124023438 165.50373535156248 174.30927124023438 163.92705078125002
L 174.30927124023438 163.83149414062498
Q 174.30927124023438 162.25480957031252 174.69658203125002 161.155908203125 175.0838928222656 160.0570068359375 175.63959960937504 160.0570068359375 Z"/>

<path id="Layer5_5_1_STROKES" stroke="#DCDCDC" stroke-width="1" stroke-linejoin="round" stroke-linecap="round" fill="none" d="
M 192.78959960937505 160.0570068359375
L 204.24052734375005 160.0570068359375
Q 204.79623413085938 160.0570068359375 205.183544921875 161.155908203125 205.57085571289065 162.25480957031252 205.57085571289065 163.83149414062498
L 205.57085571289065 163.92705078125002
Q 205.57085571289065 165.50373535156248 205.183544921875 166.60263671875 204.79623413085938 167.7015380859375 204.24052734375005 167.7015380859375
L 192.78959960937505 167.7015380859375
Q 192.2338928222656 167.7015380859375 191.84658203125002 166.60263671875 191.4592712402344 165.50373535156248 191.4592712402344 163.92705078125002
L 191.4592712402344 163.83149414062498
Q 191.4592712402344 162.25480957031252 191.84658203125002 161.155908203125 192.2338928222656 160.0570068359375 192.78959960937505 160.0570068359375 Z"/>

<path id="Layer5_6_1_STROKES" stroke="#DCDCDC" stroke-width="1" stroke-linejoin="round" stroke-linecap="round" fill="none" d="
M 158.18959960937502 172.4070068359375
L 169.64052734375002 172.4070068359375
Q 170.19623413085935 172.4070068359375 170.583544921875 173.505908203125 170.97085571289062 174.6048095703125 170.97085571289062 176.18149414062498
L 170.97085571289062 176.27705078125
Q 170.97085571289062 177.85373535156248 170.583544921875 178.95263671875 170.19623413085935 180.0515380859375 169.64052734375002 180.0515380859375
L 158.18959960937502 180.0515380859375
Q 157.63389282226558 180.0515380859375 157.24658203125 178.95263671875 156.85927124023436 177.85373535156248 156.85927124023436 176.27705078125
L 156.85927124023436 176.18149414062498
Q 156.85927124023436 174.6048095703125 157.24658203125 173.505908203125 157.63389282226558 172.4070068359375 158.18959960937502 172.4070068359375 Z"/>

<path id="Layer5_7_1_STROKES" stroke="#DCDCDC" stroke-width="1" stroke-linejoin="round" stroke-linecap="round" fill="none" d="
M 175.63959960937504 172.4070068359375
L 187.09052734375004 172.4070068359375
Q 187.64623413085937 172.4070068359375 188.033544921875 173.505908203125 188.42085571289064 174.6048095703125 188.42085571289064 176.18149414062498
L 188.42085571289064 176.27705078125
Q 188.42085571289064 177.85373535156248 188.033544921875 178.95263671875 187.64623413085937 180.0515380859375 187.09052734375004 180.0515380859375
L 175.63959960937504 180.0515380859375
Q 175.0838928222656 180.0515380859375 174.69658203125002 178.95263671875 174.30927124023438 177.85373535156248 174.30927124023438 176.27705078125
L 174.30927124023438 176.18149414062498
Q 174.30927124023438 174.6048095703125 174.69658203125002 173.505908203125 175.0838928222656 172.4070068359375 175.63959960937504 172.4070068359375 Z"/>

<path id="Layer5_8_1_STROKES" stroke="#DCDCDC" stroke-width="1" stroke-linejoin="round" stroke-linecap="round" fill="none" d="
M 192.78959960937505 172.4070068359375
L 204.24052734375005 172.4070068359375
Q 204.79623413085938 172.4070068359375 205.183544921875 173.505908203125 205.57085571289065 174.6048095703125 205.57085571289065 176.18149414062498
L 205.57085571289065 176.27705078125
Q 205.57085571289065 177.85373535156248 205.183544921875 178.95263671875 204.79623413085938 180.0515380859375 204.24052734375005 180.0515380859375
L 192.78959960937505 180.0515380859375
Q 192.2338928222656 180.0515380859375 191.84658203125002 178.95263671875 191.4592712402344 177.85373535156248 191.4592712402344 176.27705078125
L 191.4592712402344 176.18149414062498
Q 191.4592712402344 174.6048095703125 191.84658203125002 173.505908203125 192.2338928222656 172.4070068359375 192.78959960937505 172.4070068359375 Z"/>

<path id="Layer5_9_1_STROKES" stroke="#DCDCDC" stroke-width="1" stroke-linejoin="round" stroke-linecap="round" fill="none" d="
M 158.18959960937502 184.7570068359375
L 169.64052734375002 184.7570068359375
Q 170.19623413085935 184.7570068359375 170.583544921875 185.855908203125 170.97085571289062 186.95480957031253 170.97085571289062 188.531494140625
L 170.97085571289062 188.62705078125003
Q 170.97085571289062 190.2037353515625 170.583544921875 191.30263671875002 170.19623413085935 192.4015380859375 169.64052734375002 192.4015380859375
L 158.18959960937502 192.4015380859375
Q 157.63389282226558 192.4015380859375 157.24658203125 191.30263671875002 156.85927124023436 190.2037353515625 156.85927124023436 188.62705078125003
L 156.85927124023436 188.531494140625
Q 156.85927124023436 186.95480957031253 157.24658203125 185.855908203125 157.63389282226558 184.7570068359375 158.18959960937502 184.7570068359375 Z"/>

<path id="Layer5_10_1_STROKES" stroke="#DCDCDC" stroke-width="1" stroke-linejoin="round" stroke-linecap="round" fill="none" d="
M 175.63959960937504 184.7570068359375
L 187.09052734375004 184.7570068359375
Q 187.64623413085937 184.7570068359375 188.033544921875 185.855908203125 188.42085571289064 186.95480957031253 188.42085571289064 188.531494140625
L 188.42085571289064 188.62705078125003
Q 188.42085571289064 190.2037353515625 188.033544921875 191.30263671875002 187.64623413085937 192.4015380859375 187.09052734375004 192.4015380859375
L 175.63959960937504 192.4015380859375
Q 175.0838928222656 192.4015380859375 174.69658203125002 191.30263671875002 174.30927124023438 190.2037353515625 174.30927124023438 188.62705078125003
L 174.30927124023438 188.531494140625
Q 174.30927124023438 186.95480957031253 174.69658203125002 185.855908203125 175.0838928222656 184.7570068359375 175.63959960937504 184.7570068359375 Z"/>

<path id="Layer5_11_1_STROKES" stroke="#DCDCDC" stroke-width="1" stroke-linejoin="round" stroke-linecap="round" fill="none" d="
M 192.78959960937505 184.7570068359375
L 204.24052734375005 184.7570068359375
Q 204.79623413085938 184.7570068359375 205.183544921875 185.855908203125 205.57085571289065 186.95480957031253 205.57085571289065 188.531494140625
L 205.57085571289065 188.62705078125003
Q 205.57085571289065 190.2037353515625 205.183544921875 191.30263671875002 204.79623413085938 192.4015380859375 204.24052734375005 192.4015380859375
L 192.78959960937505 192.4015380859375
Q 192.2338928222656 192.4015380859375 191.84658203125002 191.30263671875002 191.4592712402344 190.2037353515625 191.4592712402344 188.62705078125003
L 191.4592712402344 188.531494140625
Q 191.4592712402344 186.95480957031253 191.84658203125002 185.855908203125 192.2338928222656 184.7570068359375 192.78959960937505 184.7570068359375 Z"/>

<path id="Layer5_12_1_STROKES" stroke="#DCDCDC" stroke-width="1" stroke-linejoin="round" stroke-linecap="round" fill="none" d="
M 165.58959960937503 197.1570068359375
L 177.04052734375003 197.1570068359375
Q 177.59623413085936 197.1570068359375 177.983544921875 198.255908203125 178.37085571289063 199.3548095703125 178.37085571289063 200.93149414062498
L 178.37085571289063 201.02705078125
Q 178.37085571289063 202.60373535156248 177.983544921875 203.70263671875 177.59623413085936 204.8015380859375 177.04052734375003 204.8015380859375
L 165.58959960937503 204.8015380859375
Q 165.03389282226559 204.8015380859375 164.64658203125 203.70263671875 164.25927124023437 202.60373535156248 164.25927124023437 201.02705078125
L 164.25927124023437 200.93149414062498
Q 164.25927124023437 199.3548095703125 164.64658203125 198.255908203125 165.03389282226559 197.1570068359375 165.58959960937503 197.1570068359375 Z"/>

<path id="Layer5_13_1_STROKES" stroke="#DCDCDC" stroke-width="1" stroke-linejoin="round" stroke-linecap="round" fill="none" d="
M 184.68959960937502 197.1570068359375
L 196.14052734375002 197.1570068359375
Q 196.69623413085935 197.1570068359375 197.083544921875 198.255908203125 197.47085571289062 199.3548095703125 197.47085571289062 200.93149414062498
L 197.47085571289062 201.02705078125
Q 197.47085571289062 202.60373535156248 197.083544921875 203.70263671875 196.69623413085935 204.8015380859375 196.14052734375002 204.8015380859375
L 184.68959960937502 204.8015380859375
Q 184.13389282226558 204.8015380859375 183.74658203125 203.70263671875 183.35927124023436 202.60373535156248 183.35927124023436 201.02705078125
L 183.35927124023436 200.93149414062498
Q 183.35927124023436 199.3548095703125 183.74658203125 198.255908203125 184.13389282226558 197.1570068359375 184.68959960937502 197.1570068359375 Z"/>
</defs>

<g transform="matrix( 1, 0, 0, 1, 0,0) ">
<use xlink:href="#Layer11_0_FILL"/>
</g>

<g transform="matrix( 1, 0, 0, 1, 0,0) ">
<use xlink:href="#Layer10_0_FILL"/>
</g>

<g transform="matrix( 1.1941680908203125, 0, 0, 1.2112884521484375, -877.55,-22.85) ">
<use xlink:href="#Layer10_1_FILL"/>
</g>

<g transform="matrix( 6.7532501220703125, 0, 0, 8.011474609375, -6443.6,-605.4) ">
<use xlink:href="#Layer10_2_FILL"/>
</g>

<g transform="matrix( 1, 0, 0, 1, 0,0) ">
<use xlink:href="#Layer9_0_FILL"/>
</g>

<g transform="matrix( 1, 0, 0, 1, 0,0) ">
<use xlink:href="#Layer8_0_FILL"/>
</g>

<g transform="matrix( 1, 0, 0, 1, 0,0) ">
<use xlink:href="#Layer7_0_FILL"/>
</g>

<g transform="matrix( 1.1941680908203125, 0, 0, 1.2112884521484375, -992.65,-6.85) ">
<use xlink:href="#Layer6_0_FILL"/>
</g>

<g transform="matrix( 1, 0, 0, 1, 0,0) ">
<use xlink:href="#Layer5_0_FILL"/>
</g>

<g transform="matrix( 1.1941680908203125, 0, 0, 1.2112884521484375, -877.55,-22.85) ">
<use xlink:href="#Layer5_1_FILL"/>

<use xlink:href="#Layer5_1_1_STROKES" transform="matrix( 0.83740234375, 0, 0, 0.8255615234375, 734.85,18.85) "/>
</g>

<g transform="matrix( 1.1941680908203125, 0, 0, 1.2112884521484375, -877.55,-22.85) ">
<use xlink:href="#Layer5_2_FILL"/>

<use xlink:href="#Layer5_2_1_STROKES" transform="matrix( 0.83740234375, 0, 0, 0.8255615234375, 734.85,18.85) "/>
</g>

<g transform="matrix( 0.3367919921875, 0, 0, 0.95556640625, -134.55,32.25) ">
<use xlink:href="#Layer5_3_FILL"/>

<use xlink:href="#Layer5_3_1_STROKES" transform="matrix( 2.96917724609375, 0, 0, 1.0464935302734375, 399.5,-33.7) "/>
</g>

<g transform="matrix( 0.3367919921875, 0, 0, 0.95556640625, -117.1,32.25) ">
<use xlink:href="#Layer5_4_FILL"/>

<use xlink:href="#Layer5_4_1_STROKES" transform="matrix( 2.96917724609375, 0, 0, 1.0464935302734375, 347.65,-33.7) "/>
</g>

<g transform="matrix( 0.3367919921875, 0, 0, 0.95556640625, -99.95,32.25) ">
<use xlink:href="#Layer5_5_FILL"/>

<use xlink:href="#Layer5_5_1_STROKES" transform="matrix( 2.96917724609375, 0, 0, 1.0464935302734375, 296.75,-33.7) "/>
</g>

<g transform="matrix( 0.3367919921875, 0, 0, 0.95556640625, -134.55,44.6) ">
<use xlink:href="#Layer5_6_FILL"/>

<use xlink:href="#Layer5_6_1_STROKES" transform="matrix( 2.96917724609375, 0, 0, 1.0464935302734375, 399.5,-46.65) "/>
</g>

<g transform="matrix( 0.3367919921875, 0, 0, 0.95556640625, -117.1,44.6) ">
<use xlink:href="#Layer5_7_FILL"/>

<use xlink:href="#Layer5_7_1_STROKES" transform="matrix( 2.96917724609375, 0, 0, 1.0464935302734375, 347.65,-46.65) "/>
</g>

<g transform="matrix( 0.3367919921875, 0, 0, 0.95556640625, -99.95,44.6) ">
<use xlink:href="#Layer5_8_FILL"/>

<use xlink:href="#Layer5_8_1_STROKES" transform="matrix( 2.96917724609375, 0, 0, 1.0464935302734375, 296.75,-46.65) "/>
</g>

<g transform="matrix( 0.3367919921875, 0, 0, 0.95556640625, -134.55,56.95) ">
<use xlink:href="#Layer5_9_FILL"/>

<use xlink:href="#Layer5_9_1_STROKES" transform="matrix( 2.96917724609375, 0, 0, 1.0464935302734375, 399.5,-59.55) "/>
</g>

<g transform="matrix( 0.3367919921875, 0, 0, 0.95556640625, -117.1,56.95) ">
<use xlink:href="#Layer5_10_FILL"/>

<use xlink:href="#Layer5_10_1_STROKES" transform="matrix( 2.96917724609375, 0, 0, 1.0464935302734375, 347.65,-59.55) "/>
</g>

<g transform="matrix( 0.3367919921875, 0, 0, 0.95556640625, -99.95,56.95) ">
<use xlink:href="#Layer5_11_FILL"/>

<use xlink:href="#Layer5_11_1_STROKES" transform="matrix( 2.96917724609375, 0, 0, 1.0464935302734375, 296.75,-59.55) "/>
</g>

<g transform="matrix( 0.3367919921875, 0, 0, 0.95556640625, -127.15,69.35) ">
<use xlink:href="#Layer5_12_FILL"/>

<use xlink:href="#Layer5_12_1_STROKES" transform="matrix( 2.96917724609375, 0, 0, 1.0464935302734375, 377.5,-72.55) "/>
</g>

<g transform="matrix( 0.3367919921875, 0, 0, 0.95556640625, -108.05,69.35) ">
<use xlink:href="#Layer5_13_FILL"/>

<use xlink:href="#Layer5_13_1_STROKES" transform="matrix( 2.96917724609375, 0, 0, 1.0464935302734375, 320.8,-72.55) "/>
</g>

<g transform="matrix( 1, 0, 0, 1, 0,0) ">
<use xlink:href="#Layer4_0_FILL"/>
</g>

<g transform="matrix( 1, 0, 0, 1, 0,0) ">
<use xlink:href="#Layer3_0_FILL"/>
</g>

<g transform="matrix( 1, 0, 0, 1, 0,0) ">
<use xlink:href="#Layer2_0_FILL"/>
</g>

<g transform="matrix( 1, 0, 0, 1, 0,0) ">
<use xlink:href="#Layer1_0_FILL"/>
</g>

<g transform="matrix( 0.129058837890625, 0, 0, 0.1270294189453125, 172.25,139.2) ">
<clipPath id="Mask_Mask_1">
<rect x="-92.65" y="-2" width="231.25" height="61.9" fill="#FFFFFF" stroke="none"/>
</clipPath>

<text clip-path="url(#Mask_Mask_1)" writing-mode="lr"><tspan x="-76.95" y="48" baseline-shift="0%" font-family="Tahoma" font-size="48" fill="#333333" xml:space="preserve">password </tspan></text>
</g>

<g transform="matrix( 1, 0, 0, 1, 0,0) ">
<use xlink:href="#Layer0_0_FILL"/>
</g>
</svg>
