
<svg xmlns="http://www.w3.org/2000/svg" version="1.1" xmlns:xlink="http://www.w3.org/1999/xlink" preserveAspectRatio="none" x="0px" y="0px" width="1024px" height="1024px" viewBox="0 0 1024 1024">
<defs>
<linearGradient id="Gradient_1" gradientUnits="userSpaceOnUse" x1="-190.65" y1="-118" x2="-190.65" y2="-118" spreadMethod="pad">
<stop  offset="0%" stop-color="#FFFFFF"/>

<stop  offset="100%" stop-color="#000000"/>
</linearGradient>

<linearGradient id="Gradient_2" gradientUnits="userSpaceOnUse" x1="33.3875" y1="12.662499999999998" x2="44.8125" y2="51.2375" spreadMethod="pad">
<stop  offset="0%" stop-color="#FFFFFF"/>

<stop  offset="100%" stop-color="#546262"/>
</linearGradient>

<linearGradient id="Gradient_3" gradientUnits="userSpaceOnUse" x1="46.0125" y1="54.6625" x2="31.787499999999998" y2="9.537500000000001" spreadMethod="pad">
<stop  offset="0%" stop-color="#FFFFFF"/>

<stop  offset="100%" stop-color="#000000"/>
</linearGradient>

<linearGradient id="Gradient_4" gradientUnits="userSpaceOnUse" x1="6.7124999999999995" y1="40" x2="19.7875" y2="43" spreadMethod="pad">
<stop  offset="0%" stop-color="#FFB550"/>

<stop  offset="100%" stop-color="#C7913D"/>
</linearGradient>

<linearGradient id="Gradient_5" gradientUnits="userSpaceOnUse" x1="74.4375" y1="237.275" x2="158.8625" y2="281.825" spreadMethod="pad">
<stop  offset="0%" stop-color="#7CFFFF"/>

<stop  offset="100%" stop-color="#005075"/>
</linearGradient>

<g id="Layer9_0_FILL">
<path fill="#55A9C0" stroke="none" d="
M 201.45 84
Q 201.0455078125 84.0634765625 200.65 84.1 195.0171875 88.159375 189.4 92.85 181.5240234375 99.453125 173.05 107.8 150.4318359375 156.4361328125 129.85 210.55 116.2248046875 246.3666015625 103.05 285.75 96.98359375 312.2728515625 93.35 329.25 84.28515625 371.615234375 78.75 406.45
L 78.75 920.65 922.1 920.65 922.1 76.95 223.4 76.95
Q 221.833984375 77.48125 221.15 77.75 219.9 78.2 215.05 80.25 211.3 81.8 208.9 82.5 206.4 83.2 201.45 84 Z"/>
</g>

<g id="Layer8_0_FILL">
<path fill="#55A9C0" stroke="none" d="
M 173.75 182.15
L 173.75 832.75 824.7 832.75 824.7 182.15 173.75 182.15 Z"/>
</g>

<g id="Layer4_0_FILL">
<path fill="#93C5E9" stroke="none" d="
M 791.25 390.6
L 791.25 317.1 465.35 317.1 465.35 390.6 579.6 390.6 579.6 703.9 676.9 703.9 676.9 390.6 791.25 390.6
M 440.7 384.85
L 440.7 317.1 232.2 317.1 232.2 384.85 288 384.85 288 636.7 232.2 636.7 232.2 703.9 440.7 703.9 440.7 636.7 385.25 636.7 385.25 384.85 440.7 384.85 Z"/>
</g>

<g id="Symbol_2_0_Layer0_0_FILL">
<path fill="url(#Gradient_1)" stroke="none" d="
M 0.5 94.55
L 0.55 95.2 6.1 94.45 6.05 93.9 0.5 94.55
M 5.85 90.1
L 5.8 88.9 0.2 89.6 0.25 90.5 5.85 90.1
M 5.7 88.05
L 5.7 87.8
Q 3 88.1 0.1 88.15
L 0.1 88.8
Q 1.7 88.5 5.7 88.05
M 5.95 92.8
L 5.9 91
Q 1.3 91.3 0.35 91.3
L 0.45 93.15 5.95 92.8
M 66.35 91.85
L 71.5 88.65 66.65 88.95 66.6 87.65 65.45 88.2 63 89.5 63.75 92.1 66.35 91.85
M 10.05 88.8
L 6.15 91.8 11.65 91.3 11.65 88.8 10.05 88.8 Z"/>

<path fill="#838588" stroke="none" d="
M 0.55 95.2
L 0.55 96.1 6.1 95.3 6.1 94.45 0.55 95.2
M 0.45 93.15
L 0.5 94.55 6.05 93.9 5.95 92.8 0.45 93.15
M 20.3 95.25
Q 23.65 95.1 33.9 94.2 38.25 93.8 55.3 94.2
L 56.9 90.6 18.7 91.2 20.3 95.25
M 6.15 93.75
L 8.55 93.45
Q 9.85 93.5 10.75 92.85 11.65 92.2 11.65 91.3
L 6.15 91.8 6.15 93.75 Z"/>

<path fill="#EFE8D1" stroke="none" d="
M 5.8 88.9
L 5.7 88.05
Q 1.7 88.5 0.1 88.8
L 0.2 89.6 5.8 88.9
M 5.9 91
L 5.85 90.1 0.25 90.5 0.35 91.3
Q 1.3 91.3 5.9 91
M 5.6 86.4
L 0 86.5 0.1 88.15
Q 3 88.1 5.7 87.8
L 5.6 86.4
M 67.45 133.2
L 67.45 133.1 66.5 126.15 64.4 116.6
Q 63.55 112.85 58.95 104.35 60.3 109.45 61.95 118.7 62.4 121.3 67.45 133.2
M 71.5 88.65
L 66.6 87.65 66.65 88.95 71.5 88.65
M 19.25 90.2
Q 18.9 90.55 18.7 91.2
L 56.9 90.6
Q 55.8 89.2 52.35 88.85
L 49.15 88.75
Q 38.1 89.4 23.2 89.3
L 22.45 89.35
Q 19.9 89.65 19.25 90.2
M 17.4 80.85
Q 15.3 81.7 13.65 82.9 12 84.15 11.6 84.3
L 10.05 88.8 11.65 88.8 11.65 91.3
Q 11.65 92.2 10.75 92.85 9.85 93.5 8.55 93.45 7.3 98.05 3.85 118.55 3.85 119.6 4.1 124.65 4.35 130.25 4.55 132.25
L 4.45 127.7
Q 4.45 122.15 6.55 113.05 9.85 98.85 17.4 80.85
M 28.6 57.45
L 26.15 60.2
Q 23.1 63.2 20.05 64.5
L 20.25 64 18.05 68.5
Q 19.75 65.3125 21.25 65.5 22.85 65.65 23.9 65.35 24.5 65.2 25.15 64.9
L 28.6 57.45 Z"/>

<path fill="#BACCE7" stroke="none" d="
M 69.05 108.2
Q 69.25 110.1 69.45 114.1 69.65 117.65 69.65 118.6 69.65 122.35 69.15 123.8 68.5 125.7 66.5 126.15
L 67.45 133.1
Q 68.15 132 69 127.05 69.9 121.7 69.9 117.5 69.9 116.55 69.65 113.25 69.3 109.6 69.05 108.2
M 23.2 89.3
L 22.85 89.3 28.5 74.75
Q 27.95 75.9 27 77.55 25.75 80.3 22.45 89.35
L 23.2 89.3
M 31 70.4
L 30.15 72.5
Q 40.8 73.2 44.9 73.65 47.15 73.9 48.9 74.3
L 48.85 75.75
Q 49.85 77.05 51.5 82.5 53 87.5 53 88.45
L 49.15 88.75 52.35 88.85
Q 55.8 89.2 56.9 90.6
L 55.3 94.2 58.95 104.35
Q 63.55 112.85 64.4 116.6 60.5 92.6 56.95 81 55.3 75.6 48.35 58.9 46.3 60.85 46.5 63.75 46.5 64.05 46.4 65.25 46.328515625 65.72734375 46.3 66.05
L 46.15 65 46.7 70.65 31 70.4 Z"/>

<path fill="#EFFFFF" stroke="none" d="
M 25.15 64.9
Q 24.5 65.2 23.9 65.35 22.85 65.65 21.25 65.5 19.75 65.3125 18.05 68.5
L 17.8 68.95
Q 11.85 83.6 11.6 84.3 12 84.15 13.65 82.9 15.3 81.7 17.4 80.85
L 25.15 64.9
M 26.15 60.2
L 28.6 57.45 30.2 55 28.9 54.25
Q 27.35 55.3 27.1 55.4
L 20.25 64 20.05 64.5
Q 23.1 63.2 26.15 60.2 Z"/>

<path fill="#6B7482" stroke="none" d="
M 33.9 59.2
Q 35.55 56.65 36.95 55.5 38.6 54.2 40.55 54.35 42.35 54.5 43.6 56.15 44.4 57.2 45.1 59.1 45.75 60.85 45.9 63.25 46.003515625 63.969140625 46.1 64.65 46.1267578125 64.8470703125 46.15 65
L 46.3 66.05
Q 46.328515625 65.72734375 46.4 65.25 46.5 64.05 46.5 63.75 46.3 60.85 48.35 58.9 55.3 75.6 56.95 81 60.5 92.6 64.4 116.6
L 66.5 126.15
Q 68.5 125.7 69.15 123.8 69.65 122.35 69.65 118.6 69.65 117.65 69.45 114.1 69.25 110.1 69.05 108.2 69 107.35 66.35 91.85
L 63.75 92.1 63 89.5 65.45 88.2
Q 63.2 78.6 59.45 69.7 55.35 59.85 50.7 54.2
L 48.75 51.8 50.65 50
Q 51.3857421875 49.341796875 53.45 46.55 48.9 49.5 45.5 50.8 43.05 51.7 38.9 52.15 34.7 52.55 32.55 52.05 30.75 51.6 28.9 50.6
L 27.4 49.7 29.5 52.65 27.1 55.4
Q 27.35 55.3 28.9 54.25
L 30.2 55 28.6 57.45 25.15 64.9 17.4 80.85
Q 9.85 98.85 6.55 113.05 4.45 122.15 4.45 127.7
L 4.55 132.25
Q 4.55 132.35 5.05 131.85 5.6 131.3 6.05 130.7 6.6 129.9 8.55 125.15 11.35 118.3 20.3 95.25
L 18.7 91.2
Q 18.9 90.55 19.25 90.2 19.9 89.65 22.45 89.35 25.75 80.3 27 77.55 27.95 75.9 28.5 74.75 33.6 74.75 40.6 75.2 44.3 75.4 48.85 75.75
L 48.9 74.3
Q 47.15 73.9 44.9 73.65 40.8 73.2 30.15 72.5
L 31 70.4
Q 31 63.85 33.9 59.2
M 41.5 4.8
L 42 4.8
Q 42 4.2 40.95 1.25 40.65 0.4 39.45 -0.6 40 0.35 40.45 4.55
L 40.95 4.8 36.45 4.7
Q 36.45 8.65 37.35 11.25 37.75 12.5 38.15 12.95
L 40.35 15.4
Q 42.1 13.7 42.2 13.15 42.45 11.95 42.2 7.9 42.103515625 6.16328125 42 4.85
L 41.5 4.8 Z"/>

<path fill="#F6F7F7" stroke="none" d="
M 38.1 0.4
Q 37.3 1.4 37.25 1.35 36.45 3.4 36.45 4.7
L 40.95 4.8 40.45 4.55
Q 40 0.35 39.45 -0.6 39 -0.6 38.1 0.4
M 42 4.8
L 41.5 4.8 42 4.85 42.2 4.85
Q 42.118359375 4.836328125 42 4.8 Z"/>

<path fill="url(#Gradient_2)" stroke="none" d="
M 54.6 20.5
Q 49.25 13.2 42.2 13.15 42.1 13.7 40.35 15.4
L 38.15 12.95
Q 30.2 13 24.55 19.1 21.45 22.5 20 25.5 18.25 29.05 18.25 33.15 18.25 33.25 19.05 37.5 20.2 42.15 21.75 44.4 23.3 46.65 25.5 48.4 26.6 49.3 27.4 49.7
L 28.9 50.6
Q 30.75 51.6 32.55 52.05 34.7 52.55 38.9 52.15 43.05 51.7 45.5 50.8 48.9 49.5 53.45 46.55 54.078125 45.742578125 54.8 44.75 57.15 41.55 57.15 41.5 57.9 40.15 58.6 36.8 59.4 32.9 58.45 28.75 57.4 24.35 54.6 20.5
M 54.9 32.15
Q 54.9 38.75 50.2 43.4 45.55 48.1 38.95 48.1 32.35 48.1 27.65 43.4 23 38.75 23 32.15 23 25.55 27.65 20.85 32.35 16.2 38.95 16.2 45.55 16.2 50.2 20.85 54.9 25.55 54.9 32.15 Z"/>

<path fill="url(#Gradient_3)" stroke="none" d="
M 50.2 43.4
Q 54.9 38.75 54.9 32.15 54.9 25.55 50.2 20.85 45.55 16.2 38.95 16.2 32.35 16.2 27.65 20.85 23 25.55 23 32.15 23 38.75 27.65 43.4 32.35 48.1 38.95 48.1 45.55 48.1 50.2 43.4
M 52.05 32.1
Q 52.05 37.5 48.2 41.3 44.4 45.15 39 45.15 33.6 45.15 29.75 41.3 25.95 37.5 25.95 32.1 25.95 26.7 29.75 22.85 33.6 19.05 39 19.05 44.4 19.05 48.2 22.85 52.05 26.7 52.05 32.1 Z"/>
</g>

<g id="Symbol_1_0_Layer0_0_FILL">
<path fill="#000000" stroke="none" d="
M 4.25 81.15
L 0.8 80.05 0.05 88.65 4.25 81.15 Z"/>

<path fill="url(#Gradient_4)" stroke="none" d="
M 2.35 72.3
Q 2.45 72.3 2.55 72.35
L 2.05 71.95
Q 2.2 72.1 2.35 72.3
M 13.95 45.1
L 14.05 44.85 13.6 44 13.95 45.1
M 16.5 10
L 16.3 9.9 0 70.4 0.05 70.35 16.5 10 Z"/>

<path fill="#FFCC00" stroke="none" d="
M 2.55 72.35
Q 2.45 72.3 2.35 72.3 2.2 72.1 2.05 71.95
L 0 70.4 0.8 80.05 4.25 81.15 10.85 73.1 10.8 73.1 10.75 73.15 6.6 72.8 6.65 72.75
Q 5.2 72.6 3.35 72.4
L 3.2 72.8 2.55 72.35 Z"/>

<path fill="#FF9564" stroke="none" d="
M 16.5 10.9
L 16.5 10 0.05 70.35 0 70.4 2.05 71.95 2.55 72.35 3.2 72.8 3.35 72.4 20.5 12.5 16.5 10.9 Z"/>

<path fill="#FF6633" stroke="none" d="
M 22.1 12.35
L 25.8 14.75 10.8 73.1 10.85 73.1 26.5 14.2 22.1 12.35
M 21.85 12.25
L 20.7 11.75 16.5 10 16.5 10.9 20.5 12.5 3.35 72.4
Q 5.2 72.6 6.65 72.75
L 13.95 45.1 13.6 44 14.05 44.85 22.4 13.15 22.1 13.15 21.85 12.25 Z"/>

<path fill="#FF3300" stroke="none" d="
M 27.95 9.6
Q 29.05 6.6 28.25 3.8 27.65 1.7 23.75 0.55 19.95 -0.65 18.9 0.7 17.8 2.1 17.5 2.95 17.1 4 16.8 6.95
L 27.95 9.6 Z"/>

<path fill="#EB4231" stroke="none" d="
M 21.8 12.15
L 21.85 12.25 22.1 13.15 22.4 13.15 14.05 44.85 13.95 45.1 6.65 72.75 6.6 72.8 10.75 73.15 10.8 73.1 25.8 14.75 22.1 12.35 21.8 12.15 Z"/>

<path fill="#FFFFFF" stroke="none" d="
M 20.7 11.75
L 21.85 12.25 21.8 12.15 22.1 12.35 26.5 14.2 27.95 9.6 16.8 6.95 16.3 9.9 16.5 10 20.7 11.75 Z"/>
</g>

<g id="Layer1_0_FILL">
<path fill="#4A6FDE" stroke="none" d="
M 379 815.25
L 429.2 955.25
Q 453.35 944.1 522.4 913.05
L 475.15 784.8 379 815.25 Z"/>

<path fill="#D8A2D4" stroke="none" d="
M 429.4 955.6
L 429.2 955.25 417 960.85
Q 417.15 961.1 417.1 961.35
L 416.9 961.45 409.3 978.35
Q 414.25 976.2 419.95 973.85 420.3 973.65 420.7 973.4
L 429.4 955.6
M 535.65 924.4
L 541.45 904.6
Q 531.55 908.95 522.4 913.05
L 522.5 913.25 517.05 932.35 535.65 924.4 Z"/>

<path fill="#D8E1EF" stroke="none" d="
M 379 815.25
L 364.4 820.05
Q 410.7 944.2 417 960.85
L 429.2 955.25 379 815.25 Z"/>

<path fill="#C05B6D" stroke="none" d="
M 334.55 830.15
L 325.95 849.35
Q 325.6 849.6 353.15 920.3 379.75 988 380.85 990.85
L 381.05 990.75
Q 385.85 988.35 408.4 978.9 409 978.55 409.3 978.35
L 416.9 961.45 389.65 973.65
Q 390.05 973.7 334.55 830.15
M 588.05 883.55
Q 586.1 884.4 584.3 885.2
L 581.35 886.5
Q 572.1 890.65 562.7 894.85
L 546.75 902.3
Q 544.1 903.3 541.45 904.6
L 535.65 924.4 577.65 906.2 588.05 883.55 Z"/>

<path fill="#FF9564" stroke="none" d="
M 334.45 829.5
Q 334.55 829.65 334.55 830.15 390.05 973.7 389.65 973.65
L 416.9 961.45 417.1 961.35
Q 417.15 961.1 417 960.85 410.7 944.2 364.4 820.05
L 334.45 829.5
M 534.1 766.05
L 494.05 778.9
Q 539.65 900.7 541.45 904.6 544.1 903.3 546.75 902.3
L 562.7 894.85
Q 572.1 890.65 581.35 886.5
L 584.3 885.2 589.1 882.9
Q 589.3 882.8 534.1 766.05 Z"/>

<path fill="#4A5DB1" stroke="none" d="
M 517.05 932.35
L 522.5 913.25 522.4 913.05
Q 453.35 944.1 429.2 955.25
L 429.4 955.6 420.7 973.4 517.05 932.35 Z"/>

<path fill="#FFD6EB" stroke="none" d="
M 494.05 778.9
L 475.15 784.8 522.4 913.05
Q 531.55 908.95 541.45 904.6 539.65 900.7 494.05 778.9 Z"/>
</g>

<g id="Layer0_0_FILL">
<path fill="url(#Gradient_5)" stroke="none" d="
M 130.7 117.35
L 129.35 108.6
Q 127.95 113 125.8 121.4 123.35 131.25 121.05 138.2 111.45 168.05 102.65 198.85 76.75 289.75 76.75 325.05 76.75 329.15 77.15 341.7 78.55 388.95 79 404.9
L 79.3 402.4
Q 81.45 386.8 82.35 352.6 82.85 321.25 82.85 320.75 82.85 311.85 85.3 298.55 88.8 279.3 96.25 259.65 117.95 202.5 166.15 157.55 161.05 154.65 155.05 150.35 143.1 141.8 138.05 134.65 133 127.55 130.7 117.35
M 105.8 341.15
Q 105.05 343.55 104.55 345.05
L 108 336.15
Q 106.522265625 338.88671875 105.8 341.15 Z"/>

<path fill="#5584B5" stroke="none" d="
M 223.8 76
Q 222.35 75.8 211.4 75.8 179.35 75.8 167.1 78.55 149.9 82.4 137.9 95.9 131.9 102.65 129.3 108.65
L 129.35 108.6 130.7 117.35
Q 133 127.55 138.05 134.65 143.1 141.8 155.05 150.35 161.05 154.65 166.15 157.55 117.95 202.5 96.25 259.65 88.8 279.3 85.3 298.55 82.85 311.85 82.85 320.75 82.85 321.25 82.35 352.6 81.45 386.8 79.3 402.4
L 79 404.9
Q 89.45 378.05 101.55 356.45 109.15 342.9 140.8 292.1 151.05 275.2 156.65 266.25 166.5 250.5 174.95 239.35 198.25 208.45 226.3 191.75 198 173.45 187.8 154.1 179.2 137.75 179.2 110.35 179.2 97.7 201.5 85.6 212.65 79.55 223.8 76
M 108.25 335.6
L 108.75 334.65
Q 106.8 340.4 103.15 349.35
L 104.3 345.75
Q 104.4 345.5 104.5 345.2 104.5 345.15 104.55 345.05 105.05 343.55 105.8 341.15 106.522265625 338.88671875 108 336.15 108.0908203125 336.0552734375 108.15 335.95 108.2 335.8 108.25 335.7
L 108.25 335.6
M 218.6 110.15
Q 218.85 109.35 218.55 109.1
L 218.2 110.1 218.6 110.15 Z"/>
</g>

<path id="Layer7_0_1_STROKES" stroke="#6FB4D1" stroke-width="2" stroke-linejoin="round" stroke-linecap="round" fill="none" d="
M 723.2 133.15
L 723.2 290.7 873.9 290.7
M 873.9 434.45
L 723.2 434.45 723.2 584.95 861.3 584.95
M 723.2 584.95
L 723.2 737.15 873.9 737.15
M 723.2 290.7
L 723.2 434.45 579.45 434.45 579.45 584.95 723.2 584.95
M 579.45 133.15
L 579.45 290.7 723.2 290.7
M 429.4 120.8
L 429.4 290.7 579.45 290.7 579.45 434.45 429.4 434.45 429.4 584.95 579.45 584.95 579.45 737.15 723.2 737.15 723.2 893.7
M 276.95 133.15
L 276.95 290.7 429.4 290.7 429.4 434.45 276.95 434.45 276.95 584.95 429.4 584.95 429.4 737.15 579.45 737.15 579.45 893.7
M 113.55 290.7
L 276.95 290.7 276.95 434.45 113.55 434.45
M 276.95 584.95
L 276.95 737.15 429.4 737.15 429.4 881.5
M 113.55 737.15
L 276.95 737.15 276.95 893.7
M 101.15 584.95
L 276.95 584.95"/>

<path id="Layer6_0_1_STROKES" stroke="#6FC9EB" stroke-width="2" stroke-linejoin="round" stroke-linecap="round" fill="none" d="
M 808.25 158.75
L 712.35 158.75
Q 719.15 165.2 725.65 179.4 731.45 192.95 731.45 200.7 731.45 223.3 715.55 239.2 699.4 255.1 677.25 255.1 658.35 255.1 642.4 243.05 622.35 228 622.35 200.5 623.9 192.7 627.1 183.9 633.4 166.25 641.3 158.75
L 230.35 158.75 230.35 194.65
Q 240.85 187.1 257.65 180.5 278.95 171.6 295.95 171.6 339.2 171.6 369.8 202.2 400.3 232.55 400.3 276 400.3 300.1 397.35 308.9 395.4 314.5 389.15 324.2 416.65 317.05 470 338.4 538.65 365.5 569.45 423.4 580.65 412.2 616.55 402.3 653.15 392.15 685.25 392.15 729.95 392.15 766.1 407.7 799.65 422.1 843.55 457.55
L 843.55 334.3
M 641.3 158.75
Q 650.8 152.25 677 145.85 678.8 145.85 691.45 149.9 706.7 154.4 712.35 158.75
L 641.3 158.75 Z
M 819.05 631
Q 819.05 680.25 784.2 715.15 749.55 749.8 700.25 749.8 651 749.8 616.15 715.15 581.5 680.25 581.5 631 581.5 581.75 616.15 547.1 651 512.2 700.25 512.2 749.55 512.2 784.2 547.1 819.05 581.75 819.05 631 Z
M 843.55 457.55
L 843.55 783.35 843.55 811.95 867.25 811.95
M 349.35 265.45
Q 349.35 285.05 335.75 299.05 321.75 312.55 302.4 312.55 282.8 312.55 269 299.05 255.3 285.05 255.3 265.45 255.3 246.1 269 232.35 282.8 218.35 302.4 218.35 321.75 218.35 335.75 232.35 349.35 246.1 349.35 265.45 Z
M 389.15 324.2
Q 382 347.85 354.25 364.25 327.15 380.3 295.95 380.3 266.9 376.3 261.3 374.75 247.8 387.5 230.35 409.2
L 230.35 641.15
Q 282.65 696.45 329.95 715.15 357.75 726.35 395.4 726.35 415.85 726.35 442.1 720.3 463.55 715.6 475.4 710.45 468.95 701.35 463.4 673.6 457.8 645.25 457.8 619.85 457.8 565.45 481.05 519.15 509.2 462.95 569.45 423.4 596.35 458.45 596.35 530.15 596.35 585.9 564.05 636.8 529.4 691.05 475.4 710.45 493.7 752.15 526.65 784 537.85 794.8 561.7 811.95
L 808.25 811.95 843.55 783.35
M 230.35 116.75
L 230.35 158.75 154.35 158.75
M 230.35 194.65
L 230.35 357.3
Q 231.6 358.45 261.3 374.75 275.3 358.85 311.65 342.25 354.45 322.45 389.15 324.2
M 128.35 585.9
L 128.35 629.75
Q 145.55 630.15 175.7 643.25 211.4 658.8 230.35 679.65
L 230.35 641.15
Q 218.3 622.8 207.55 593.4 194 555.3 194 525.15 194 500 200.4 472 210.1 430.3 230.35 409.2
L 230.35 357.3
Q 191.6 323.35 191.6 276 191.6 229.95 230.35 194.65
M 230.35 679.65
Q 240.2 689.15 265.15 743.15 289.3 795.85 289.95 807.45
L 365.2 807.45
M 230.35 679.65
L 230.35 764.85
M 289.95 807.45
L 128.35 807.45 128.35 827.7
M 124 807.45
L 128.35 807.45 128.35 629.75
M 561.7 811.95
L 298.55 811.95
M 843.55 848.3
L 843.55 811.95 808.25 811.95"/>

<path id="Layer5_0_1_STROKES" stroke="#9CD2DC" stroke-width="4.2" stroke-linejoin="round" stroke-linecap="round" fill="none" d="
M 876.65 83.25
L 876.65 115.7 916.75 115.7
M 84.05 885.25
L 120.8 885.25 120.8 234.875
M 876.65 914.95
L 876.65 885.25 120.8 885.25 120.8 914.95
M 876.65 115.7
L 876.65 885.25 916.75 885.25
M 169.45 115.7
L 876.65 115.7"/>

<path id="Layer4_0_1_STROKES" stroke="#D4D4D4" stroke-width="2" stroke-linejoin="round" stroke-linecap="round" fill="none" d="
M 579.6 703.9
L 579.6 390.6 465.35 390.6 465.35 317.1 791.25 317.1 791.25 390.6 676.9 390.6 676.9 703.9 579.6 703.9 Z
M 440.7 703.9
L 232.2 703.9 232.2 636.7 288 636.7 288 384.85 232.2 384.85 232.2 317.1 440.7 317.1 440.7 384.85 385.25 384.85 385.25 636.7 440.7 636.7 440.7 703.9 Z"/>
</defs>

<g transform="matrix( 1, 0, 0, 1, 0,0) ">
<use xlink:href="#Layer9_0_FILL"/>
</g>

<g transform="matrix( 1, 0, 0, 1, 0,0) ">
<use xlink:href="#Layer8_0_FILL"/>
</g>

<g transform="matrix( 1, 0, 0, 1, 0,0) ">
<use xlink:href="#Layer7_0_1_STROKES"/>
</g>

<g transform="matrix( 1, 0, 0, 1, 0,0) ">
<use xlink:href="#Layer6_0_1_STROKES"/>
</g>

<g transform="matrix( 1, 0, 0, 1, 0,0) ">
<use xlink:href="#Layer5_0_1_STROKES"/>
</g>

<g transform="matrix( 1, 0, 0, 1, 0,0) ">
<use xlink:href="#Layer4_0_FILL"/>

<use xlink:href="#Layer4_0_1_STROKES"/>
</g>

<g transform="matrix( 4.208526611328125, 0.4418182373046875, -0.4418182373046875, 4.208526611328125, 647.95,398.65) ">
<g transform="matrix( 1, 0, 0, 1, 0,0) ">
<use xlink:href="#Symbol_2_0_Layer0_0_FILL"/>
</g>
</g>

<g transform="matrix( 3.8849029541015625, 0.9517364501953125, -1.0728759765625, 4.379638671875, 853.5,608.55) ">
<g transform="matrix( 1, 0, 0, 1, 0,0) ">
<use xlink:href="#Symbol_1_0_Layer0_0_FILL"/>
</g>
</g>

<g transform="matrix( 1, 0, 0, 1, 0,0) ">
<use xlink:href="#Layer1_0_FILL"/>
</g>

<g transform="matrix( 1, 0, 0, 1, 0,0) ">
<use xlink:href="#Layer0_0_FILL"/>
</g>
</svg>
