
<svg xmlns="http://www.w3.org/2000/svg" version="1.1" xmlns:xlink="http://www.w3.org/1999/xlink" preserveAspectRatio="none" x="0px" y="0px" width="256px" height="256px" viewBox="0 0 256 256">
<defs>
<linearGradient id="Gradient_1" gradientUnits="userSpaceOnUse" x1="40.225" y1="298.55" x2="-59.225" y2="49.14999999999999" spreadMethod="pad">
<stop  offset="0%" stop-color="#F4DEC6"/>

<stop  offset="100%" stop-color="#F8C48D"/>

<stop  offset="100%" stop-color="#B16412"/>
</linearGradient>

<linearGradient id="Gradient_2" gradientUnits="userSpaceOnUse" x1="245.16250000000002" y1="357.575" x2="77.33749999999999" y2="353.325" spreadMethod="pad">
<stop  offset="0%" stop-color="#C56D0F"/>

<stop  offset="100%" stop-color="#AB7F1C"/>
</linearGradient>

<linearGradient id="Gradient_3" gradientUnits="userSpaceOnUse" x1="239.6125" y1="368.575" x2="71.78749999999998" y2="364.325" spreadMethod="pad">
<stop  offset="0%" stop-color="#C56D0F"/>

<stop  offset="100%" stop-color="#AB7F1C"/>
</linearGradient>

<linearGradient id="Gradient_4" gradientUnits="userSpaceOnUse" x1="-149.85" y1="30.55" x2="-149.85" y2="30.55" spreadMethod="pad">
<stop  offset="0%" stop-color="#C56D0F"/>

<stop  offset="100%" stop-color="#AB7F1C"/>
</linearGradient>

<linearGradient id="Gradient_5" gradientUnits="userSpaceOnUse" x1="232.32500000000002" y1="356.90000000000003" x2="149.775" y2="354.8" spreadMethod="pad">
<stop  offset="0%" stop-color="#9A4A0F"/>

<stop  offset="100%" stop-color="#AB7F1C"/>
</linearGradient>

<linearGradient id="Gradient_6" gradientUnits="userSpaceOnUse" x1="197.55" y1="215.15" x2="227.55" y2="215.15" spreadMethod="pad">
<stop  offset="0%" stop-color="#F4E11D"/>

<stop  offset="100%" stop-color="#B16412"/>
</linearGradient>

<linearGradient id="Gradient_7" gradientUnits="userSpaceOnUse" x1="211.36249999999998" y1="212.45" x2="250.5375" y2="212.45" spreadMethod="pad">
<stop  offset="0%" stop-color="#F4E11D"/>

<stop  offset="100%" stop-color="#B16412"/>
</linearGradient>

<linearGradient id="Gradient_8" gradientUnits="userSpaceOnUse" x1="118.32499999999999" y1="199.95" x2="73.875" y2="213.05" spreadMethod="pad">
<stop  offset="0%" stop-color="#F4E11D"/>

<stop  offset="100%" stop-color="#B16412"/>
</linearGradient>

<linearGradient id="Gradient_9" gradientUnits="userSpaceOnUse" x1="107.25" y1="193.3" x2="132.95" y2="238.5" spreadMethod="pad">
<stop  offset="0%" stop-color="#F4E11D"/>

<stop  offset="100%" stop-color="#B16412"/>
</linearGradient>

<linearGradient id="Gradient_10" gradientUnits="userSpaceOnUse" x1="121.05" y1="207.775" x2="149.45" y2="203.225" spreadMethod="pad">
<stop  offset="0%" stop-color="#F4E11D"/>

<stop  offset="100%" stop-color="#B16412"/>
</linearGradient>

<linearGradient id="Gradient_11" gradientUnits="userSpaceOnUse" x1="136.38750000000002" y1="184.5875" x2="170.2125" y2="163.4125" spreadMethod="pad">
<stop  offset="0%" stop-color="#F4E11D"/>

<stop  offset="100%" stop-color="#B16412"/>
</linearGradient>

<linearGradient id="Gradient_12" gradientUnits="userSpaceOnUse" x1="117.6625" y1="195.42499999999998" x2="157.73749999999998" y2="183.475" spreadMethod="pad">
<stop  offset="0%" stop-color="#F4E11D"/>

<stop  offset="100%" stop-color="#B16412"/>
</linearGradient>

<linearGradient id="Gradient_13" gradientUnits="userSpaceOnUse" x1="200.625" y1="164.9" x2="218.875" y2="164.9" spreadMethod="pad">
<stop  offset="0%" stop-color="#F4E11D"/>

<stop  offset="100%" stop-color="#B16412"/>
</linearGradient>

<linearGradient id="Gradient_14" gradientUnits="userSpaceOnUse" x1="166.85" y1="172" x2="195.65" y2="172" spreadMethod="pad">
<stop  offset="0%" stop-color="#F4E11D"/>

<stop  offset="100%" stop-color="#B16412"/>
</linearGradient>

<linearGradient id="Gradient_15" gradientUnits="userSpaceOnUse" x1="174.625" y1="165.35" x2="207.47500000000002" y2="165.35" spreadMethod="pad">
<stop  offset="0%" stop-color="#F4E11D"/>

<stop  offset="100%" stop-color="#B16412"/>
</linearGradient>

<linearGradient id="Gradient_16" gradientUnits="userSpaceOnUse" x1="191.46249999999998" y1="172.75" x2="226.9375" y2="172.75" spreadMethod="pad">
<stop  offset="0%" stop-color="#F4E11D"/>

<stop  offset="100%" stop-color="#B16412"/>
</linearGradient>

<linearGradient id="Gradient_17" gradientUnits="userSpaceOnUse" x1="-146.95" y1="28.15" x2="-146.95" y2="28.15" spreadMethod="pad">
<stop  offset="0%" stop-color="#FFFFFF"/>

<stop  offset="100%" stop-color="#FFEABC"/>
</linearGradient>

<linearGradient id="Gradient_18" gradientUnits="userSpaceOnUse" x1="-149.85" y1="30.55" x2="-149.85" y2="30.55" spreadMethod="pad">
<stop  offset="0%" stop-color="#FFFFFF"/>

<stop  offset="100%" stop-color="#FFEABC"/>
</linearGradient>

<linearGradient id="Gradient_19" gradientUnits="userSpaceOnUse" x1="-144.3" y1="19.6" x2="-144.3" y2="19.6" spreadMethod="pad">
<stop  offset="0%" stop-color="#FFFFFF"/>

<stop  offset="100%" stop-color="#FFEABC"/>
</linearGradient>

<g id="Layer17_0_FILL">
<path fill="url(#Gradient_1)" stroke="none" d="
M 230.4 49.35
Q 230.2 38.55 233.35 19.8 224.4 22.25 214.5 21.2 204.7 19.5 200.95 19.35 194.95 19.05 191.85 23.2 188.2 28.15 186.2 41.95
L 181.55 20.7 84.5 20.25
Q 74.65 41.95 73.7 43.85 72.95 45.55 71.1 48.9 69.1 41.35 63.75 18.85 39.6 19.8 21.2 20.15 20.8 59.7 20.4 76.3 19.95 97.2 18.9 105.8
L 37.4 112.25
Q 34.85 113.75 28.2 115.85 22.25 117.75 21.2 117.8 21.7 130.9 22.35 162.95 23.1 197.45 23.1 207.95
L 131.2 204.65
Q 135.05 198.15 138.3 192.25 141.2 187 141.35 186.25 145.8 198.05 147.9 205.35 148.35 206.95 148.5 207.05 148.7 207.2 149.4 207.05 150 207.05 185.1 205 221.85 202.95 228 202.4 227.75 169.1 225.6 157.25 224.95 153.15 223.7 150.5 222.45 148.05 221.85 146.55
L 228.2 147.4 227.75 94.25
Q 214.55 90.15 210.65 89.15 226.1 84.7 229.3 83.05 230.95 82.1 231.3 81.15 231.45 80.7 231.45 79 230.65 56.45 230.4 49.35 Z"/>
</g>

<g id="Layer16_0_FILL">
<path fill="#FF9900" stroke="none" d="
M 63.5 172.8
Q 67.9 177.2 74.05 177.2 80.25 177.2 84.65 172.8 89.05 168.4 89.05 162.2 89.05 156.05 84.65 151.65 80.25 147.25 74.05 147.25 67.9 147.25 63.5 151.65 59.1 156.05 59.1 162.2 59.1 168.4 63.5 172.8
M 74.9 171.25
Q 71 171.25 68.3 168.5 65.5 165.75 65.5 161.85 65.5 158 68.3 155.3 71 152.5 74.9 152.5 78.75 152.5 81.5 155.3 84.25 158 84.25 161.85 84.25 165.75 81.5 168.5 78.75 171.25 74.9 171.25
M 190.1 66.25
Q 188.8 65.25 184.85 62.8 181.25 60.6 181.15 60.6 180.45 60.6 180.25 60.95 179.8 61.65 179.7 61.7 177.3 64.05 175.4 65.9 171.55 69.4 170.85 69.4 170.3 69.4 164.35 65.75 158.35 62.05 157.75 62.05 157.25 62.05 155.35 64.15 153.3 66.35 151.3 66.7 152.95 68.7 155.35 70.75 156.9 72.1 162.45 76.85
L 153.6 84.7
Q 155.9 86.4 159.7 89.35 162.65 91.6 163.7 91.8 167.75 88.25 171.5 84.35
L 172.3 85 182.75 93.5
Q 185.25 92.5 189.45 88.3 191.7 86.05 194.7 82.85
L 181.05 75.1 190.1 66.25 Z"/>

<path fill="#F2E2BF" stroke="none" d="
M 163.7 91.8
L 164.55 92.45 166.65 90.6
Q 169.3 88.1 172.3 85
L 171.5 84.35
Q 167.75 88.25 163.7 91.8 Z"/>
</g>

<g id="Layer16_0_STROKES_1_FILL">
<path fill="#F48943" stroke="none" d="
M 114.85 145.05
Q 113.1171875 144.3203125 111.35 145 105.4802734375 147.33828125 98.45 149.8 96.6806640625 150.446484375 95.85 152.15 95.0318359375 153.889453125 95.65 155.65 96.3078125 157.4693359375 98 158.3 99.7392578125 159.1294921875 101.5 158.5 108.7197265625 155.96171875 114.75 153.55 116.517578125 152.8705078125 117.25 151.1 118.0318359375 149.3697265625 117.3 147.6 116.6228515625 145.8349609375 114.85 145.05
M 138.8 132.85
Q 136.943359375 132.4708984375 135.35 133.5 134.3712890625 134.1748046875 133.3 134.8
L 133.3 134.8
Q 129.3021484375 137.25546875 123.25 140 121.5595703125 140.821875 120.9 142.6 120.2310546875 144.3732421875 121 146.1 121.8216796875 147.833984375 123.6 148.5 125.3796875 149.1685546875 127.1 148.35 133.69765625 145.34453125 138.05 142.65
L 138.1 142.65
Q 139.3287109375 141.925 140.45 141.15 142.02578125 140.112890625 142.4 138.25 142.7798828125 136.388671875 141.7 134.8 140.6638671875 133.2193359375 138.8 132.85
M 143.2 110.15
Q 143.98203125 108.3916015625 143.25 106.6 142.5525390625 104.870703125 140.8 104.1 135.715234375 101.92734375 127.25 99.4 125.426171875 98.898828125 123.75 99.8 122.0828125 100.734765625 121.55 102.55 121.01015625 104.3734375 121.9 106.05 122.8353515625 107.728515625 124.65 108.25 132.4845703125 110.5724609375 137.2 112.55 138.9638671875 113.3314453125 140.7 112.6 142.4798828125 111.9080078125 143.2 110.15
M 144.55 114.5
Q 144.223828125 116.3671875 145.3 117.95 145.7328125 118.5787109375 145.8 119.2 145.7509765625 122.6568359375 143.55 125.85 142.5208984375 127.4662109375 142.9 129.3 143.2673828125 131.1986328125 144.85 132.25 146.4228515625 133.329296875 148.25 132.95 150.1482421875 132.5890625 151.2 131 155.0490234375 125.3427734375 155 119.2 155.06796875 115.922265625 152.9 112.75 151.81640625 111.1798828125 149.95 110.8 148.0794921875 110.471875 146.5 111.55 144.9265625 112.631640625 144.55 114.5
M 95.1 95.3
Q 94.56015625 97.1236328125 95.45 98.8 96.383203125 100.478125 98.2 101 103.19609375 102.483984375 111.95 104.8 113.8025390625 105.285546875 115.45 104.3 117.1044921875 103.3625 117.6 101.5 118.0875 99.694921875 117.1 98.05 116.16484375 96.3974609375 114.3 95.9 105.703515625 93.6158203125 100.8 92.15 98.978125 91.6494140625 97.3 92.55 95.632421875 93.4849609375 95.1 95.3
M 91.6 83.05
Q 92.78671875 81.5560546875 92.55 79.65 92.35 77.7873046875 90.85 76.6 89.35703125 75.409375 87.45 75.6 85.5912109375 75.8509765625 84.4 77.35 83.570703125 78.3837890625 82.8 79.45
L 82.75 79.5
Q 78.6845703125 85.263671875 79.1 87.7 78.5080078125 91.8509765625 84.35 95.55 85.9958984375 96.594140625 87.85 96.15 89.701953125 95.758984375 90.7 94.15 91.7455078125 92.545703125 91.3 90.7 90.9173828125 88.8494140625 89.3 87.8 88.687890625 87.419140625 88.3 87.7 88.6970703125 87.069140625 90.3 84.8
L 90.3 84.8
Q 90.9400390625 83.902734375 91.6 83.05
M 111.3 68.95
Q 113.0759765625 68.25 113.85 66.5 114.631640625 64.763671875 113.95 63 113.25234375 61.2271484375 111.5 60.45 109.760546875 59.670703125 108 60.35 100.926953125 63.07421875 94.7 67.65 93.1912109375 68.780078125 92.9 70.65 92.615234375 72.5328125 93.75 74.05 94.878125 75.612109375 96.75 75.9 98.6294921875 76.1826171875 100.15 75.05 105.373046875 71.2255859375 111.3 68.95
M 117.65 62.05
Q 117.9236328125 63.9439453125 119.45 65.05 120.9912109375 66.21953125 122.85 65.95 126.9982421875 65.3478515625 131.4 65.35 132.5275390625 65.3583984375 135.55 65.55 137.453125 65.664453125 138.85 64.4 140.3181640625 63.1408203125 140.45 61.25 140.5662109375 59.3560546875 139.3 57.9 138.031640625 56.48359375 136.1 56.35 132.672265625 56.1416015625 131.4 56.15 126.3015625 56.1521484375 121.5 56.85 119.6537109375 57.125390625 118.5 58.65 117.3787109375 60.1890625 117.65 62.05 Z"/>
</g>

<g id="Layer15_0_FILL">
<path fill="#8A4E13" stroke="none" d="
M 235.05 178.2
Q 235.05 169.45 203.1 163.2 179.05 158.5 165.6 158.5 148.4 158.5 133.65 165.1 129 167.2 125.05 169.75 123.4 170.85 121.7 172.15 118.45 176.9 121 179.85 123.5 182.75 132.35 184.75 123.9 194.05 122.3 196.2 119.25 200.35 119.25 204.1 119.25 214.6 136.15 219.85 151.75 224.7 180.3 224.7 206.1 224.7 222.6 218.05 239.15 211.45 239.15 201 239.15 194.6 236.6 191.25 235.05 189.15 230.05 186 232.55 185.05 233.95 182.2 235.05 180.05 235.05 178.2
M 164.55 167.8
Q 177.15 167.8 192.95 171 209.15 174.25 222.85 179.65
L 220.7 180.3
Q 214.3 181.95 200.15 181.95 187.85 181.95 175.2 180.8 159.7 179.4 133.8 175.4 138.45 174 144.8 170.55 151.7 167.8 164.55 167.8 Z"/>
</g>

<g id="Layer14_0_FILL">
<path fill="#5E3913" stroke="none" d="
M 157.85 169.2
Q 157.85 167.35 154.8 166.45 152 165.5 146.9 165.5 138.1 165.5 131.25 169.4 125.75 172.5 125.75 174.35 125.75 175.6 129.85 177.95 130.55 177.95 133.35 175.95 134.7 175 136.1 174 136.2 174 142.2 172.1 148.4 170.15 149.35 170.15 150.5 170.15 157.45 170.85 157.85 170.35 157.85 169.2
M 172.25 177.95
Q 170.2 177.95 162.65 179.55 154.1 181.4 154.1 182.8 154.1 184.4 154.95 184.9 155.4 185.2 156.2 185.45 152.15 184.65 151 184.55 149.4 184.5 148.6 186.15 147.15 186.1 147 185.65 147.15 185.15 146.95 184.85
L 144.95 186.2 145.1 186.6
Q 145.65 187.1 146.2 187.35 142.5 187.75 141.35 187.75 140.8 187.75 140.15 187.35 139.5 186.9 138.95 186.9 138.65 186.9 134.85 188.1 133.6 188.1 132.45 187.45 132 187.15 131.15 188.35 134.9 190.2 140.5 193.3 145.4 195.5 151.85 195.5 161.45 195.5 195.55 186.7 229.05 178.1 229.05 176.25 229.05 174.65 227.4 173.55 225.95 172.55 224.1 172.55 222.95 172.55 222.15 173.15 221.35 173.7 221.35 174.65 221.35 175.4 221.65 175.75
L 222.25 176.3
Q 216.25 179.45 209.05 180.65 202.3 181.75 190.55 181.75 183.05 181.75 179.75 181.5 174 181.1 174 179.85 174 179.15 174.2 178.6 174.45 178.2 174.45 178.1 173.4 177.95 172.25 177.95
M 185.95 196.65
Q 179.2 197.75 164.5 197.75 163.15 197.75 158.95 197.15 154.65 196.6 153.65 196.2
L 153.15 197.1
Q 154.45 199.35 155.05 199.7 155.45 199.95 157.75 200.3 144.4 199.15 139.75 197.95 137.7 197.05 136.5 197.05 136.15 197.05 135.65 197.5 134.95 198.2 134.95 199.2 134.95 205.7 152.05 208.2 160.7 209.4 170.35 209.35 171.15 209.35 171.55 208.9 172.05 208.25 173.8 207.95 183.6 206.25 184.45 205.15 181.15 204.85 180.3 204.75
L 182 203.9
Q 184.75 202.6 184.95 202.5 186.3 201.65 186.75 200.65
L 186.6 200.5
Q 186.2 200.3 185.1 200.1
L 186.2 199.9
Q 191.1 202.5 205.3 197.15 213.5 194.15 230.8 186.4 228.7 186.35 217.1 189.3 205.7 192.3 205.2 192.45
L 207.7 192.2
Q 191.1 195.85 185.95 196.65 Z"/>
</g>

<g id="Layer13_0_FILL">
<path fill="#D4BE71" stroke="none" d="
M 159.85 196.3
Q 158.2 196.3 157.1 197.1 155.95 197.9 155.95 199 155.95 200.1 157.1 200.9 158.2 201.75 159.85 201.75 161.45 201.75 162.6 200.9 163.7 200.1 163.7 199 163.7 197.9 162.6 197.1 161.45 196.3 159.85 196.3
M 213 193
Q 213 189.25 204.3 191.25 195.6 193.25 193 197.95 193.2 199 193.45 199.25 194.15 200.1 196.3 200.1 199.15 200.1 205.7 197.75 213 195.15 213 193
M 214.95 190.35
Q 216.45 192.15 217.55 192.15 221.25 192.15 225.2 190.4 229.8 188.45 229.8 185.85 229.8 185.15 229.6 184.75
L 229.45 184.5
Q 221.7 187.05 220.1 187.65 215.8 189.2 214.95 190.35
M 178.1 196.95
Q 173.1 196.95 169.65 197.8 166.15 198.65 166.15 199.95 166.15 201.2 169.65 202.05 173.1 202.95 178.1 202.95 183.05 202.95 186.6 202.05 190.05 201.2 190.05 199.95 190.05 198.65 186.6 197.8 183.05 196.95 178.1 196.95 Z"/>
</g>

<g id="Layer12_0_FILL">
<path fill="#CC9900" stroke="none" d="
M 236.3 220
Q 241.2 220 241.2 216.25 241.2 207.2 222.05 210.05 214.95 211.1 208.8 213.35 202.8 215.45 202.8 217 202.8 220.65 207.55 222.05 211.95 223.35 223.05 223.35 226.25 223.35 227.25 220.95 227.45 220.35 227.9 219.3 228.2 218.55 228.9 218.55 229.15 218.55 231.9 219.25 234.75 220 236.3 220 Z"/>

<path fill="#EBAE0B" stroke="none" d="
M 82.25 223.5
Q 81.9 223.1 81.45 223.1 81 223.1 80.7 223.5 80.35 223.8 80.35 224.3 80.35 224.9 80.7 225.25 81 225.6 81.45 225.6 81.9 225.6 82.25 225.25 82.5 224.9 82.5 224.3 82.5 223.8 82.25 223.5
M 115.5 194.2
Q 112.95 195.8 112.95 197.95 112.95 198.55 113.65 199.95 114 200.65 114.3 201.25 114.3 205 110.45 203.85 103 201.65 101.5 201.65 96.9 201.65 88.85 207.95
L 81.75 214.4
Q 81.75 218.3 91.2 221.3 101.85 224.6 118.65 224.6 123.15 224.6 141.55 222.3 141.6 222.3 147.05 223.55 153.75 224.85 160.15 224.85 160.6 224.85 164.8 223.25 169.15 221.65 171.9 220.35 170.4 216.9 164.55 211.7 160.65 208.55 159.2 207.4 155.05 209.3 150.1 209.2 149.45 209.2 148.9 209.1
L 145.7 207.5
Q 144.8 207.35 144.3 206.6 143.85 206.35 143.4 205.9 142.35 204.95 140.85 202.65
L 140.2 201.65
Q 139.4 200.45 138.75 199.4
L 136.45 198.2
Q 135.5 197.7 135.35 197.45 135.2 197.3 135 196.95 134.55 196.75 134.25 196.55 134.1 196.35 133.5 195.2 133.25 194.7 133 194.2
L 132.9 194.15
Q 132.7 194.05 132.7 193.85
L 131.75 192.95
Q 131.6 192.95 131.5 192.95 131.05 192.95 128.75 192.55 126.45 192.15 126.05 192.15 118.9 192.15 115.5 194.2
M 166.75 185.4
Q 168.8 185.4 170.45 184.9 170.65 187.05 171.15 187.6 172.1 188.6 175.55 188.6 180.55 188.6 184.5 187.45 188.65 186.3 188.65 184.7 188.65 183.3 187.5 182.15 186.65 181.15 185.2 180.75 188 181.1 190.3 181.7 192.95 182.4 201.1 182.4 215.55 182.4 220.55 180.8 226.05 179.05 226.05 173.75 226.05 171.9 220.95 167.25 215.15 161.85 210.2 161.85 183.4 161.85 159.15 172 153.35 174.35 144.6 178.85 142.55 179.85 141.1 180.6 141.35 181.55 141.4 182.25
L 141.45 183.65
Q 141.8 183.8 142.3 184.05
L 144.2 184.7
Q 145.35 185.1 145.75 185.9 146.05 186.3 146.05 186.85
L 146.1 186.9 147.7 188.2
Q 150.15 190.1 153.65 191.85 153.95 191.9 154.25 192 155.6 192.15 157.65 192.15 160.3 192.15 161.55 192 163 191.9 165.8 191.45
L 166.15 191.4
Q 166 190.6 165.75 189.65 164.75 186.35 161.8 185.05 162.5 184.1 163.4 183.8 164.65 184.4 165.45 185.15 165.8 185.4 166.75 185.4
M 180 180.8
L 179.65 181.15
Q 179.55 181.7 178.85 181.2
L 180 180.8
M 180.3 180.7
L 181.55 180.4
Q 181.95 180.45 182.4 180.55 181.45 180.55 180.3 180.7
M 177.3 182.25
Q 176.95 182.5 176.55 182.5
L 177.75 181.8
Q 177.7 182.05 177.3 182.25 Z"/>
</g>

<g id="Layer12_1_FILL">
<path fill="#EBAE0B" stroke="none" d="
M 392.15 160.45
L 387.65 161.5
Q 385.05 162.15 383.9 161.9 383 161.65 382.65 161.75 382.25 161.85 382 162.3 381.8 162.7 381.95 163.1 382.1 163.65 383.1 164.05 384.9 164.7 387.55 164.15 388 164.1 391.5 163.25 393.85 162.7 395.45 162.7 397.05 162.7 397.55 162.15 397.85 161.8 397.85 161.35 397.85 160.9 397.55 160.6 397.05 160.05 396.05 160.05 394.75 159.95 392.15 160.45 Z"/>
</g>

<g id="Layer12_2_FILL">
<path fill="#EBAE0B" stroke="none" d="
M 392 161.35
Q 394.85 160.85 400.65 160.35 401.55 160.25 401.95 160 402.3 159.75 402.45 159.35 402.6 158.9 402.45 158.55 402.25 157.9 401.4 157.7 400.8 157.55 400.05 157.65 393.2 158.05 385.3 160.1
L 383.2 160.7
Q 382.1 161 381.8 161.5 381.6 161.9 381.7 162.3 381.85 162.75 382.2 162.95 382.7 163.25 383.6 163.05
L 392 161.35 Z"/>
</g>

<g id="Layer12_3_FILL">
<path fill="#EBAE0B" stroke="none" d="
M 401.35 159.15
Q 403.4 158.7 404.75 158.65 405.8 158.65 406.3 158.5 407.15 158.2 407.35 157.5 407.45 157 407.15 156.5 406.8 156.05 406.3 155.85 405.65 155.6 404.25 155.8 395.2 157.05 386.3 159.95 384.75 160.4 384.4 160.45 383.05 160.55 382.65 160.9 382.35 161.25 382.4 161.75 382.4 162.2 382.7 162.55 383.2 163.25 384.3 163.25 384.7 163.25 386.1 162.9 393.55 160.65 401.35 159.15 Z"/>
</g>

<g id="Layer12_4_FILL">
<path fill="#EBAE0B" stroke="none" d="
M 400.15 155.6
Q 397.15 156.05 390.65 157.4 385.4 158.55 383 159.3 382 159.6 381.7 160.2 381.55 160.55 381.7 160.95 381.8 161.3 382.15 161.5 382.5 161.7 383.4 161.6 387.75 160.95 396.4 159.15 404.1 157.75 409.45 157.85 410.65 157.85 411.2 157.65 412.25 157.3 412.25 156.35 412.25 155.5 411.35 155.15 410.95 154.95 409.75 154.85 405.45 154.8 400.15 155.6 Z"/>
</g>

<g id="Layer12_5_FILL">
<path fill="#EBAE0B" stroke="none" d="
M 402.3 158.35
Q 403.25 157.9 403.1 156.9 402.85 155.85 401.2 155.65 398.6 155.2 393.8 156.1 384.8 157.85 376.75 160.55 376.05 160.8 375.8 161 375.25 161.45 375.4 161.95 375.5 162.6 376.25 162.7 376.7 162.8 377.5 162.6
L 385.5 160.7
Q 392.65 159 395.15 158.6 398.25 158 400.1 158.3 401.65 158.65 402.3 158.35 Z"/>
</g>

<g id="Layer12_6_FILL">
<path fill="#EBAE0B" stroke="none" d="
M 380.45 160.4
Q 380.1 160.1 379.25 160.1 376.45 160.2 374.65 161.15 373.3 161.9 372.95 162 372 162.15 371.5 162.35 371.4 162.4 370.25 163.1 369.15 163.7 368.7 164.1 367.75 164.85 367.7 165.85 367.65 167 368.8 167.9 369.3 168.3 371.05 168.95
L 373.05 169.6
Q 374 170 374.9 170.2 375.9 170.55 377.25 170.7 378.55 170.9 381.05 171.1 381.85 171.2 382.45 171.05 383.3 170.85 383.6 170.35 383.95 169.9 383.8 169.3 383.65 168.65 383.15 168.35
L 382.5 168 382 167.45
Q 381.6 167 380.4 166.6 378 165.8 375.6 165.1 373.95 164.75 373.35 164.75 374.15 164.65 375.25 163.95 376.7 163 377.1 162.85 377.9 162.5 379.05 162.4 380.3 162.15 380.6 161.85 380.85 161.55 380.85 161.1 380.8 160.6 380.45 160.4
M 371.55 165.85
L 371.5 165.9 371.25 165.9 371.3 165.85 371.65 165.65 371.9 165.65 371.55 165.85 Z"/>
</g>

<g id="Layer12_7_FILL">
<path fill="#EBAE0B" stroke="none" d="
M 388.1 161.1
Q 387.7 160.8 386.7 160.7 385.6 160.65 384.05 160.85 382.25 161.1 381.35 161.2
L 378.8 161.3
Q 377.05 161.3 376.2 161.4
L 374.9 161.7
Q 373.75 161.9 373.3 162.35 372.55 162.95 372.8 164.1 372.25 164.25 371.9 164.85 371.6 165.45 371.75 166 372 166.8 372.9 167.25 373.65 167.6 374.6 167.6 375.8 167.7 378.15 167.7 379.15 167.7 379.75 167.4 380.15 167.2 380.35 166.8 380.55 166.4 380.4 166.05 381.05 165.9 382.4 165.9 383.6 165.9 384.3 165.45 385.35 164.7 385.05 163.75 385.6 163.65 386.7 163.65 387.7 163.65 388.2 163.1 388.6 162.7 388.55 162.05 388.5 161.45 388.1 161.1 Z"/>
</g>

<g id="Layer12_8_FILL">
<path fill="#EBAE0B" stroke="none" d="
M 386.05 172.95
Q 385.15 172.95 384.75 172.85 384.2 172.7 384.1 172.75 383.9 172.8 383.9 173.05 383.9 173.25 384.05 173.25 379.9 173.5 376.95 172.4 373.15 170.95 371.75 167.75 371.55 167.25 371.6 166.95 371.85 166.35 371.95 166 372.2 165.3 371.7 164.7 371.1 164.1 370.4 164.35 369.8 164.55 369.45 165.25 368.95 166.05 368.9 166.6 368.7 167.65 369.25 169.1 369.85 170.4 370.25 171 372.9 174.95 378.5 176.15 380.65 176.55 383.4 176.55 385.5 176.65 386.75 176.3 387.6 176.1 387.95 175.7 388.25 175.3 388.2 174.75 388.2 174.2 387.85 173.8 387.25 173.05 386.05 172.95 Z"/>
</g>

<g id="Layer12_9_FILL">
<path fill="#EBAE0B" stroke="none" d="
M 371.2 166.75
Q 371.25 167.2 371.65 168.1 372.15 169 373.1 170.15 374.8 172.2 377.35 173.8 379.1 174.95 380.95 175.35 382.35 175.65 384.35 175.5 385.15 175.5 385.7 175.1 386.35 174.6 386.25 173.75 386.25 172.1 384.6 171.25 383.8 170.85 383.25 171.1 382.9 171.3 382.8 171.7 382.7 172.1 383 172.3 381.5 172.65 379.05 171.2 377.95 170.55 377.2 170
L 375.4 168.4
Q 374.3 167.15 374.1 166.85 373.75 166.35 373.75 165.9 373.9 165.2 373.95 164.85 374.05 164.25 373.6 163.75 373.1 163.25 372.45 163.4 371.85 163.6 371.4 164.9 371.1 166.1 371.2 166.75 Z"/>
</g>

<g id="Layer12_10_FILL">
<path fill="#EBAE0B" stroke="none" d="
M 373.05 166.15
Q 372.9 165.95 372.9 165.55 372.8 164.8 372.45 164.5 372.15 164.3 371.75 164.4 371.3 164.5 371.2 164.85 371.05 165.2 371.3 166
L 371.6 167.2
Q 371.7 167.45 372.3 168.3 373.35 169.6 373.75 169.95 374.55 170.75 376.1 171.75 379.6 174.1 381.95 174.9 382.95 175.2 383.45 175.15 384.3 175.05 384.65 174.5 385.15 173.8 384.7 173 384.35 172.4 383.55 171.95 383.05 171.75 382.8 171.75
L 382.15 171.8
Q 381.75 171.85 380.95 171.5 379.95 171.05 378.05 169.85
L 375.9 168.45
Q 374.1 166.9 373.7 166.7 373.1 166.25 373.05 166.15 Z"/>
</g>

<g id="Layer12_11_FILL">
<path fill="#EBAE0B" stroke="none" d="
M 373.45 170.15
Q 374.95 171.9 375.75 172.45 376.35 172.9 377.75 173.6 378.65 174.1 380.4 175.05 381.95 175.85 383.25 176.05 383.85 176.15 384.4 176 385.05 175.8 385.15 175.25 385.3 174.6 384.7 174.15 384.5 174 383.6 173.6 379.85 172.35 376.55 169.9 375.3 169 371.95 166.1 371.2 165.45 370.8 165.7 370.3 165.95 370.5 166.55 370.6 166.85 371 167.35
L 373.45 170.15 Z"/>
</g>

<g id="Layer12_12_FILL">
<path fill="#EBAE0B" stroke="none" d="
M 371.45 167.5
Q 371.25 168.7 371.45 169.4 371.55 169.9 372.1 170.9 373.4 173.2 374.45 174.5 375.95 176.4 378 177.75 381.1 179.75 384.5 179.95 386.05 180.05 386.9 179.55 388.3 178.8 388.05 177.55 387.95 176.75 387.25 176.45 386.95 176.3 386.2 176.2
L 384.9 176
Q 385.1 176.6 385.75 176.75 383.7 176.95 382.35 176.55 381 176.1 379.85 175.25 377.3 173.55 375.95 171.85 375.2 170.9 374.45 169.65 374 168.95 373.95 168.45 373.9 168.2 374 167.65 374.05 167.1 374 166.8 373.85 166.1 373.2 165.85 372.65 165.5 372.05 166 371.55 166.4 371.45 167.5 Z"/>
</g>

<g id="Layer12_13_FILL">
<path fill="#EBAE0B" stroke="none" d="
M 373.9 170.9
Q 373.5 169.95 373.5 168.2 373.4 167.45 373.65 167.05 373.75 166.8 374.45 166.1 375 165.45 374.8 165 374.55 164.45 373.85 164.55 373.55 164.55 372.85 165 371.85 165.7 371.55 166.55 371.3 167.05 371.2 168.5 371.1 169.95 371.2 170.65 371.5 172.65 372.85 174.4 373.95 175.8 376 177.05 380.7 179.9 386.55 179.5 387.8 179.4 388.3 179.1 389 178.8 389.3 178.15 389.55 177.35 389.1 176.8 388.6 176.2 386.9 176.4 381.3 177.1 376.6 173.95 374.5 172.5 373.9 170.9 Z"/>
</g>

<g id="Layer12_14_FILL">
<path fill="#EBAE0B" stroke="none" d="
M 375.45 169.85
Q 375.3 171.25 375.35 171.55 375.55 173 376.8 174.5 380.3 178.85 385.3 179.35 386.65 179.55 387.5 179.1 388.55 178.6 388.55 177.5 388.6 177 388.25 176.6 387.9 176.15 387.4 176.1
L 386.65 176.1
Q 386.3 176.05 385.8 175.55
L 385.55 175.75
Q 385.95 176.25 386.4 176.5 384.25 176.7 382 175.4 380.55 174.6 378.5 172.45 377.4 171.25 377.35 170.4
L 377.45 169.35
Q 377.45 168.65 377.05 168.4 376.35 168.05 375.9 168.7 375.65 169 375.45 169.85 Z"/>
</g>

<g id="Layer12_15_FILL">
<path fill="#EBAE0B" stroke="none" d="
M 382.25 173
Q 381.8 172.65 381.35 172.85 380.9 173.1 381 174.05 381.4 176 383.65 177.15 384.9 177.8 387.7 178.3 388.55 178.4 388.9 178.2 389.25 177.9 389.25 177.4 389.2 176.9 388.85 176.55 388.4 176.15 387.2 175.85 384.1 175.1 382.9 173.65
L 382.25 173 Z"/>
</g>

<g id="Layer12_16_FILL">
<path fill="#EBAE0B" stroke="none" d="
M 370.9 166.3
Q 370.95 165.85 370.7 165.55 370.1 164.95 369.2 165.4 368.15 165.85 367.6 167.15 367.25 168.05 367.15 169.5 367.05 171.05 367.35 172 367.75 173.5 369.15 175 370.55 176.45 372.3 177.45 374.15 178.4 377 178.85 379.15 179.2 380.85 179.05 382 178.95 382.5 178.55 382.9 178.3 383.05 177.85 383.25 177.4 383.05 177.05 382.85 176.5 382.2 176.3 381.8 176.15 381.05 176.15 375.75 175.95 373.15 174.55 371.65 173.65 370.65 172.55 369.9 171.7 369.7 171 369.6 170.6 369.55 169.95
L 369.55 168.85
Q 369.55 167.9 369.75 167.6 369.95 167.35 370.55 167 370.85 166.75 370.9 166.3 Z"/>
</g>

<g id="Layer11_0_FILL">
<path fill="#C97B41" stroke="none" d="
M 168.7 220.4
L 167.9 220.55 166.3 221.65
Q 168.5 220.65 168.7 220.4
M 168.85 220.35
Q 169.35 220.1 170.45 219.75
L 170.6 218.95
Q 169.85 219.3 168.45 219.7
L 168.85 220.35
M 99.65 220.95
L 96.25 220.95 96.25 224.85 99.65 224.85 99.65 220.95
M 95.75 218.4
Q 95.55 218.9 95.4 219.1
L 95.6 219.15
Q 95.75 219 95.75 218.4
M 79.45 214.7
Q 80.25 214.7 80.75 215.2
L 80.95 213.4 81.35 212.65
Q 80.25 213.7 79.45 214.7
M 82.6 221.65
L 84.3 222.35
Q 83.4 221.4 82.6 221.65
M 90.95 221.65
Q 90.95 222.25 90.55 222.7 90.05 223.15 89.45 223.15
L 89.35 223.25
Q 91.8 223.2 93.75 223 92.9 221.15 92.9 220.9 92.9 220.25 93.05 220.05 93.2 219.9 93.45 219.7 91.073828125 220.046484375 89.65 220.05 90.1140625 220.0640625 90.55 220.5 90.95 220.95 90.95 221.65
M 105.25 210.7
Q 102.1 211.85 101.6 211.85 99.55 211.85 97.45 210.8 96.8 210.5 95.5 209.6 95.65 209.8 96.3 210.3 96.95 210.85 97.1 211.6 96.55 211.8 95.75 211.8 95.1 211.8 92.8 210.55 92.85 210.6 95.2 212.25 97.4 213.65 97.8 214.6
L 96.55 216.5 96.8 216.45
Q 97.15 216.35 104.7 214.65 112.2 212.7 113.5 211.1 112.8 209.95 112.25 208.3 109.65 209.1 105.25 210.7
M 109.55 221.9
L 106.55 221.9 106.55 225.3 109.55 225.3 109.55 221.9
M 156.1 227.3
Q 159.9 227.3 160.4 226.05 160.6 225.35 160.7 224.95 160.9 224.3 161.45 223.95
L 161.9 223.35
Q 160.55 223.6 156.15 223.8 156.15 223.85 156.25 224.9 156.25 226.1 156.1 227.3
M 154.2 226.9
L 154.2 223.45 148.7 223.45 148.7 226.9 154.2 226.9
M 132.25 214.05
L 132.05 214.5 132.65 215.75 133 214.9 132.65 213.5
Q 132.45 213.5 132.25 214.05
M 124.2 221.2
Q 124.6 221.2 125.75 221.55 126.75 221.9 126.75 221.85
L 126.8 221.75
Q 126.8 221.85 126.8 222.4 126.8 223 126.75 223.05 126.75 223.15 126.65 223.25 130.3 221.65 130.45 221.6 129.7 221.65 129.35 221.1 129.05 220.65 129.05 220.35 129.05 218.7 129.55 218.4 130.9 217.6 131 217.5
L 130.75 217.6
Q 126.9 219.4 126.35 219.6 123.15 220.6 118.9 220.6 117.15 220.6 113.75 219.1 110.65 217.6 110.35 217.6 110.2 217.6 109.95 218 109.6 218.6 109.35 218.7 109.95 220.2 111.5 221.65 114.3 224.25 118.55 224.25 120.5 224.25 122.8 223.95 122.2 221.2 124.2 221.2
M 130.3 213.7
L 129.65 213.05 129.9 214.6 130.3 213.7
M 136.7 207.45
Q 136.8 207.25 137.15 206.95 130.5 206.65 128.05 205.75 126.9 204.95 126.2 204.95 125.65 204.95 125.4 205.4 125.3 206.05 125.15 206.45 124.35 207.95 120.35 207.95 117.8 207.95 115.95 206.65 114.05 205.15 113 204.5 112.5 204.95 112.5 205 112.2 205.3 112.2 205.9 112.25 206.8 112.5 207.55 112.75 207.4 112.6 206.85 112.3 206.1 112.3 205.75 112.3 205.2 112.5 205.15 112.65 205.1 112.7 205.2 114.65 207.45 115.5 210 116.35 211.35 121.25 211.35 121.65 211.35 123.2 210.95 124.7 210.55 125.15 210.55
L 126.9 211.5
Q 128.75 212.55 129.1 212.55
L 128.4 211.9
Q 127.2 211.9 126.55 210.95
L 126.15 210.05
Q 126.15 209.45 126.2 209.4
L 126.3 209.45
Q 127.15 210.1 136.15 210.9 136.9 210.9 137.2 210.4 137.3 210.15 137.5 209.6 136.45 208.5 136.45 208.35 136.45 207.75 136.7 207.45
M 159.95 217.25
L 159.85 217.75
Q 159.9 218.15 160.4 218.15 161.1 218.15 162.05 217.9 163 217.55 163.15 217.1
L 163.3 216.75
Q 161.7 217.1 159.95 217.25
M 148.1 215.15
Q 150 216.5 151.8 217.25 152.75 217.6 152.75 218.15 152.75 218.7 152.5 219.25 152.45 219.35 152 220.05 153.6 220.35 158.7 220.6 158.5 220.05 158.4 218.7 158.4 217.3 158.5 217.3
L 156.65 217.3
Q 155.35 217.3 152 216.3 148.6 215.2 148.1 215.15
M 145.85 215.4
L 146.3 215.75
Q 146.65 216.25 146.65 216.8 146.65 217.95 139.9 218.35 136.75 218.35 133.45 216.7
L 134.2 217.4
Q 140.35 221.65 142.85 221.65 143.05 221.65 144 221.25 145.15 220.8 145.75 220.35 145.05 219.7 144.7 219
L 147.25 217.6
Q 146.95 217.1 147 216 147 215.45 145.85 215.4
M 149.9 210.6
Q 149.8 210.55 149.65 210.6
L 149.45 211.15 149.9 210.6
M 159.7 208.65
L 159.45 208.15 158.7 208.35 159.7 208.65
M 157.35 176.2
L 157.05 175.05
Q 156.95 174.65 156.15 174.65
L 154.1 176.55
Q 155.05 177.4 155.3 177.75 155.4 178 156.1 179.15 156.2 178.9 156.8 177.7 157.3 176.35 157.35 176.2
M 141.45 183.2
Q 141.45 183.5 141.6 183.7 141.9 183.9 142.3 184.05
L 144.2 184.7
Q 144.4 184.75 144.6 184.85 145.15 184.8 145.4 185.1 145.55 185.25 145.65 185.65 145.7 185.8 145.75 185.9 146.05 186.3 146.05 186.85
L 146.1 186.9 147.7 188.2
Q 150.15 190.1 153.6 191.85 154 191.9 154.4 192 154.65 192.1 155 192.1 154.45 191.6 153.9 191.15 149.05 186.85 148 184.45 149.5 184.15 151.15 183.2 151.85 182.8 154.6 180.9 154.4 180.55 153.95 179.55 153.45 178.4 153.25 177.95 151.6 179.95 148 181.05 144.75 181.75 144.7 181.75 142.15 181.55 141.55 181.65
L 141.45 183.2
M 113.75 196.9
Q 113.45 196.9 112.95 197.35 112.25 198.05 112.25 199 112.25 200.45 115.5 202.15 119.75 204.45 126.1 204.45 127.25 204.45 129.9 203.7 132.5 202.9 137.2 202.9 137.5 202.9 138.4 204.2 138.85 204.85 139.55 205.9
L 140.45 205.25
Q 138.85 202.6 138.6 201.8 138.45 201.55 138.45 200.75 138.45 200.1 138.75 199.9 138.8 199.8 138.95 199.75 138.8 199.6 138.75 199.5
L 136.45 198.2
Q 135.5 197.7 135.35 197.45 135.3 197.35 135.2 197.3 132.4 196.05 132.3 196 131.2 197.75 130.5 198.15 127.9 199.6 121.3 199.6 117.05 199.6 115.5 198.25 113.9 196.9 113.75 196.9 Z"/>

<path fill="url(#Gradient_2)" stroke="none" d="
M 185.35 211.25
Q 185.35 211.55 185.6 211.35 185.65 211.15 185.6 210.95
L 185.35 210.9 185.35 211.25 Z"/>

<path fill="#C0783A" stroke="none" d="
M 240.75 219.3
Q 241.9 218.55 242.35 217.45
L 242.2 216.3
Q 227.9 214.65 224.05 213.05 222.95 211.8 221.45 211.8 220.45 211.8 220.45 213.05 220.45 213.4 221.35 214.6 222.35 215.9 223.1 216.35 220.65 216.85 216.15 217.6 212 218.25 211.55 218.25 209.95 218.25 207.6 217.45 205.31796875 216.65625 205.65 216.65 200.953515625 216.651953125 207.25 220.15 213.55 223.7 215.5 223.7 222.75 223.7 228.75 219.05
L 236.6 220.25
Q 239.1 220.4 240.75 219.3
M 214.75 180.6
Q 218.85 180.6 221.6 179.3 224.35 178.1 224.45 176.1 224.55 175.8 224.45 175.8 224.35 175.7 223.85 175.7 220.25 175.7 217.5 176.5 214.6 177.25 213.75 177.25 211.25 177.25 210.5 176.9 209.9 176.6 209.1 175.1
L 208.4 175.8
Q 209.7 176.9 210.2 177.7 209.75 178.5 209.65 178.7 209.05 179.3 208.45 178.9 209.15 179.45 211 179.95 213.1 180.6 214.75 180.6
M 200.35 183.25
L 200.35 179.2 196.85 179.2 196.85 183.25 200.35 183.25
M 194.3 184.1
Q 194.25 183.5 194.3 181.95 194.3 180.45 194.4 180.45
L 194.85 180.4
Q 193.85 180.4 189.95 180.05 185.85 179.65 182.65 179.55
L 182.35 180.3
Q 183.4 181.2 186.05 182.5 189.45 184.25 191.9 184.25 192.7 184.25 194.3 184.1
M 202.3 175.9
Q 201.9 175 201.9 174 197.1 174.5 195.15 174.5 195.3 174.65 196.75 176.1
L 196.65 176.9
Q 196.25 177.4 194.1 177.05
L 192.8 176.85
Q 193.65 177.05 195.25 177.35 197 177.7 197.55 177.7 198.05 177.7 199.45 174.85
L 199.45 174.7
Q 200.05 175.75 199.8 177.65
L 202.8 177.2
Q 202.45 176.5 202.3 175.9
M 179.55 176.6
Q 180.9 175.35 181.95 174.7
L 182.25 174.45
Q 180.65 174.85 177.2 175.4 174.3 175.85 174.1 175.85 173 175.85 170.65 175.15 167.8 174.35 166.9 173.35
L 166.15 173.35
Q 166 173.55 166 174.1 166 174.45 167.25 176.7 165.55 177 160.05 177.4
L 159.4 177.45 159.15 177.4
Q 163.65 179.55 167.15 179.55 167.8 179.55 169.25 179.3 170.75 179.05 171.2 178.8
L 172.7 179.15
Q 169.75 182.25 163.95 182.25 163.5 182.25 160.4 181.05 156.95 179.6 156.25 179.4 163.9 185.4 164.9 186 166.9 187.4 168.25 187.4 179.6 182.95 181.2 180.8 180.3 180.15 179.95 179.85 179.4 179.4 179.65 179.25 178.75 179.65 176.75 180.65 174.1 181.95 173.1 182.15 174.4 181.15 176.65 179.65 178.15 178.5 178.15 177.95 178.15 177.8 179.55 176.6
M 190.35 173.2
L 190.8 173.15
Q 197.9 171.8 198.75 171.5 200.5 170.9 200.9 168.8 202.45 169.6 204.3 170.7 205.65 171.4 206.7 171.4 207.2 171.4 209.65 169.1 213.15 169.1 215 171.6
L 214.75 172
Q 213.75 172.8 212.65 172.9
L 213.4 173.55
Q 217.2 174.85 218.6 175.15 219.05 175.25 220.6 175.25 226.3 175.25 226.3 172.55
L 225 171.35
Q 224 171.8 220.15 171.8 216.05 171.8 215.15 171.05
L 216.55 170.7
Q 218.35 169.9 218.8 169.5 219.25 169.1 219.25 168.25 219.25 167.65 219.15 167.5 219.05 167.5 219.05 167.35 218.4 167.25 217.6 167.25
L 209.8 168.3
Q 202.5 166.95 201.1 166.4 199.75 169.9 185.9 169.9 181.5 169.9 179.35 168.65 177.1 167.35 176.8 167.35 176.3 167.35 176.2 167.6 176.05 167.75 175.95 168.35 178.1 171.45 179.8 172.45 181.8 173.55 185.65 173.55 186.5 173.55 187.8 173.35
L 190.35 173.2 Z"/>

<path fill="#844F20" stroke="none" d="
M 88.55 223.2
L 89.35 223.25 89.45 223.15 88.55 223.2
M 179.65 179.2
L 179.65 179.25
Q 179.4 179.4 179.95 179.85 180.3 180.15 181.2 180.8 181.2 180.15 180.75 179.65 180.3 179.2 179.65 179.2
M 190.35 173.2
L 190.9 173.15 190.8 173.15 190.35 173.2 Z"/>

<path fill="#D16642" stroke="none" d="
M 90.55 222.7
Q 90.95 222.25 90.95 221.65 90.95 220.95 90.55 220.5 90.1140625 220.0640625 89.65 220.05
L 89.5 220.05
Q 85.05 219.6 83.55 218.65 82.55 218 80.75 215.2 80.25 214.7 79.45 214.7 79.45 217.6 80.4 219.65 81.3 221.65 82.6 221.65 83.4 221.4 84.3 222.35 88.1 223.2 88.55 223.2
L 89.45 223.15
Q 90.05 223.15 90.55 222.7 Z"/>

<path fill="url(#Gradient_3)" stroke="none" d="
M 91.8 208.65
L 91.75 208.55 89.95 209.05
Q 90.1 209.1 89.95 209.2
L 90.7 209.05
Q 91.65 208.85 91.8 208.65 Z"/>

<path fill="url(#Gradient_4)" stroke="none" d="
M 91.75 207.6
Q 91.7 208 91.75 208.55
L 91.8 208.65 92.8 210.55
Q 95.1 211.8 95.75 211.8 96.55 211.8 97.1 211.6 96.95 210.85 96.3 210.3 95.65 209.8 95.5 209.6 92.85 207.25 92.3 207.25 91.8 207.25 91.75 207.45
L 91.75 207.6 Z"/>

<path fill="url(#Gradient_5)" stroke="none" d="
M 153.3 188.8
Q 154.5 189.2 156.55 189.45 158.35 189.6 159.25 189.55
L 158.45 189.5
Q 156.55 189.45 153.3 188.8
M 158.05 176.7
L 158 176.65
Q 157.4 175.4 157.05 175.05
L 157.35 176.2 158.05 176.7 Z"/>
</g>

<g id="Layer11_1_FILL">
<path fill="#C97B41" stroke="none" d="
M 383.65 176.45
Q 383.3 176.8 382.2 177.25 379.95 178.05 377.75 178.1 377.25 178.1 377.1 178.25 376.95 178.4 376.95 178.6
L 377.05 178.95
Q 377.15 179.1 377.55 179.2 378.65 179.4 379.95 179.25 382.5 179 384.2 177.9 384.85 177.35 384.9 177 385 176.55 384.65 176.3
L 384.25 176.1
Q 384.25 176.25 384.15 176.15 383.95 176.15 383.65 176.45 Z"/>
</g>

<g id="Layer11_2_FILL">
<path fill="#C97B41" stroke="none" d="
M 381.5 177.45
Q 381.25 177.15 380.6 177.35
L 379.65 177.6
Q 378.65 177.85 376.55 177.95
L 375.65 178.05
Q 375.35 178.05 375.2 178.15 374.9 178.3 375.1 178.5
L 375.25 178.65
Q 376 179.05 376.15 179.05
L 376.5 179.1
Q 377.5 179.2 378.45 179.1
L 378.9 179.05
Q 379.9 178.9 380.8 178.6 381.3 178.4 381.5 178.15 381.8 177.75 381.5 177.45 Z"/>
</g>

<g id="Layer11_3_FILL">
<path fill="#C97B41" stroke="none" d="
M 375.5 177.95
L 375 178 374.55 178.15 374.25 178.1
Q 374.05 178.1 374 178.2
L 373.9 178.35
Q 373.9 178.55 374.05 178.6 374.15 178.7 374.5 178.7
L 374.95 178.95 375.25 179
Q 376.75 179.35 378.65 179
L 379.45 178.75 379.55 178.65
Q 379.65 178.45 379.5 178.3 379.45 178.2 379.15 178.2 378.55 178.2 378.3 178.1
L 378.05 178.05 375.5 177.95 Z"/>
</g>

<g id="Layer11_4_FILL">
<path fill="#C97B41" stroke="none" d="
M 374.95 179.05
L 376.1 179.2
Q 379.6 179.5 381.65 178.25 382.4 177.8 383.6 176.7 383.9 176.4 383.75 176.2 383.65 176.1 383.4 176.1 382.65 176.2 381.45 176.5 379.9 176.85 379.5 176.95 377.55 177.3 374.25 177 373.35 176.9 372.9 177.05 372.3 177.25 372.3 177.7 372.25 178 372.8 178.45 373.55 178.85 374.95 179.05 Z"/>
</g>

<g id="Layer11_5_FILL">
<path fill="#C97B41" stroke="none" d="
M 370.3 167.7
Q 370.4 167.3 370.1 166.9 369.8 166.5 369.4 166.5 369.05 166.5 368.6 166.85 367.95 167.5 367.85 168.55 367.85 169.6 368.3 170.4 369.4 172.75 372.5 174 374.65 174.8 378.05 174.8 379.7 174.8 380.55 174.3 381.1 174.05 381.35 173.5 381.6 172.8 381.1 172.45 380.85 172.25 380.2 172.25
L 378.1 172.2
Q 375.2 172.1 373.8 171.7 371.4 171 370.35 169.25 370.1 168.85 370.1 168.4
L 370.3 167.7 Z"/>
</g>

<g id="Layer11_6_FILL">
<path fill="#C97B41" stroke="none" d="
M 370.45 166.3
Q 370.2 165.95 370.2 165.65 370.35 165.25 370.4 165.05 370.65 164.5 370.2 163.95 369.85 163.5 369.2 163.6 368.7 163.7 368.15 164.55 367.8 165.15 367.75 165.7 367.7 166.75 368.35 167.75 368.8 168.45 369.85 169.3 370.4 169.85 371.05 170.2 371.5 170.5 372.3 170.75 375.4 171.8 377.35 171.4 378.15 171.2 378.5 170.8 379.1 170.2 378.65 169.6 378.45 169.35 377.95 169.15 377.45 168.95 376.65 168.9 375.45 168.8 375.3 168.75
L 373.8 168.4
Q 372.6 168 372.05 167.7 371.05 167.05 370.45 166.3 Z"/>
</g>

<g id="Layer10_0_FILL">
<path fill="#844F20" stroke="none" d="
M 169.45 221.2
L 169.6 221.65
Q 169.95 221.75 170.4 219.75 164.9 221.35 162.1 224 160.15 226.45 159.6 226.75 161 227.25 162.15 227.25 163.05 227.25 169.45 221.2
M 100.8 222.8
Q 99.65 223.35 99.65 224.1 99.65 224.85 100.8 225.4 101.85 225.95 103.4 225.95 104.95 225.95 106.05 225.4 107.15 224.85 107.15 224.1 107.15 223.35 106.05 222.8 104.95 222.3 103.4 222.3 101.85 222.3 100.8 222.8
M 96.65 221
Q 96.65 220.15 96.05 219.5 95.55 218.95 94.8 218.95 94.1 218.95 93.55 219.5 93 220.15 93 221 93 221.9 93.55 222.45 94.1 223.1 94.8 223.1 95.55 223.1 96.05 222.45 96.65 221.9 96.65 221
M 110.9 220.2
Q 110.15 220.2 109.6 220.85 109 221.55 109 222.45 109 223.35 109.6 224 110.15 224.65 110.9 224.65 111.75 224.65 112.3 224 112.9 223.35 112.9 222.45 112.9 221.55 112.3 220.85 111.75 220.2 110.9 220.2
M 113.05 207.2
Q 112.75 206.85 112.7 207.05
L 113.05 208.5 112.25 208.3
Q 112.35 209.3 113.5 211.1 113.65 210.85 113.85 209.85
L 113.7 209.2
Q 114.3 210.2 118.55 211.15
L 118.35 210.95
Q 113.75 205.9 112.8 205.2 112.6 205.25 112.4 205.55
L 112.3 205.75
Q 113 206.6 113.05 207.2
M 155.15 224
Q 154.6 224 154.2 224.5 153.75 224.95 153.75 225.65 153.75 226.3 154.2 226.75 154.6 227.25 155.15 227.25 155.75 227.25 156.15 226.75 156.55 226.3 156.55 225.65 156.55 224.95 156.15 224.5 155.75 224 155.15 224
M 124.8 221.2
Q 123.9 221.2 123.35 221.65 122.75 222 122.75 222.6 122.75 223.15 123.35 223.55 123.9 223.95 124.8 223.95 125.65 223.95 126.3 223.55 126.85 223.15 126.85 222.6 126.85 222 126.3 221.65 125.65 221.2 124.8 221.2
M 126.65 209.6
Q 126.3 209.6 126.15 209.6
L 126.15 209.7
Q 127.05 211.6 129.25 214.05 130.3 215.2 131.2 216.15 130.65 216.9 130.15 217.8 129.05 219.5 129.05 220.35 129.05 221.1 129.35 221.3 129.5 221.4 130.1 221.65 130.25 221.65 132.65 219.45 140.1 221.9 140.6 221.9
L 143.1 221.65
Q 141.4 220.55 135.4 217.2 132.35 215.45 132.05 214.5 132.5 213.8 132.65 212 133.15 210.6 136.15 210.9
L 135.3 210.6
Q 126.75 209.6 126.65 209.6
M 158.05 218.8
L 158.3 220.55
Q 160.25 220.45 164.1 219.4
L 168 218.4
Q 168.45 218.4 168.4 218.55 168.4 218.6 168.25 218.8 168.1 219.4 168.35 219.7 169.15 219.6 170.6 218.95 170.2 217.9 170 217.4 169.75 216.55 169.75 216 169.75 215.35 169.9 215.05 170.05 214.65 170.25 214.25
L 169.25 213.7
Q 165 216.25 162.45 217.3 160.7 218 160.4 218.15
L 160.15 218.05
Q 160.25 217.4 160.15 217.25
L 158.3 217.4 158.05 218.8
M 157.1 209.8
L 159.7 208.65
Q 158.5 208.5 159.25 207.7 159.5 207.5 159.8 207.25 159.55 207.25 159.3 207.25 155.15 209.3 150.1 209.2 149.45 209.2 148.9 209.1
L 145.7 207.5
Q 144.8 207.35 144.3 206.6 143.85 206.35 143.4 205.9 142.35 204.95 140.85 202.65
L 140.2 201.65
Q 139.45 200.55 138.85 199.65 138.8 199.7 138.75 199.8 138.55 200.7 138.45 200.75 138.75 201.55 139.4 203.15 140.15 205 140.45 205.25 138.1 206.2 137.3 206.75 136.45 207.45 136.45 208.35 137.5 209.55 137.5 209.6 137.5 210.1 137.2 210.1 136.9 210.15 136.9 210.6 136.9 211.6 137.1 210.85 142.75 210.9 145.9 211.25 145.8 214.05 145.4 215.45 145.4 215.75 147.25 217.6 146.2 218 145.35 218.6
L 144.7 219
Q 144.7 222.8 145.45 224.3 146.3 225.85 148.3 225.85 149.15 225.85 148.65 225.45
L 148.75 223.35
Q 148.75 222.85 148 222.1 147.2 221.2 147 220.45 147.35 220.1 148.1 219.6 148.85 219.05 149.05 219.05
L 152 220.05
Q 152.85 220.05 152.4 219.5 151.95 216.75 149.8 216.5 147.9 216.3 147.9 213.15 147.9 212.65 148.5 211.7 149.15 210.85 150.1 210.1
L 151.5 210.45
Q 153.25 210.9 153.9 210.9 154.6 210.9 157.1 209.8
M 196.9 180.7
Q 196.45 180.15 195.75 180.15 195.05 180.15 194.6 180.7 194.1 181.3 194.1 182.1 194.1 182.9 194.6 183.5 195.05 184.05 195.75 184.05 196.45 184.05 196.9 183.5 197.4 182.9 197.4 182.1 197.4 181.3 196.9 180.7
M 196.75 176.1
Q 196.1 175.55 193.9 174.65 191.85 173.7 191.65 173.7 191.15 173.7 191.1 173.95 190.95 174 190.9 174.45 191.2 177.3 195.95 177.3
L 196.1 177
Q 196.35 176.6 196.75 176.1
M 201.25 178.6
Q 200.8 178.6 200.45 179.15 200.1 179.65 200.1 180.4 200.1 181.15 200.45 181.7 200.8 182.25 201.25 182.25 201.75 182.25 202.05 181.7 202.4 181.15 202.4 180.4 202.4 179.65 202.05 179.15 201.75 178.6 201.25 178.6
M 199.45 174.7
Q 199.4 174.75 198.9 176.1 198.3 177.35 198.2 177.7
L 200.1 177.65 200.1 175.35 199.9 174.7 199.45 174.7
M 201.95 173.95
L 201.9 174.65
Q 201.9 175.05 202.35 177.3 205.2 176.55 205.65 176.35 206.05 176.2 207.55 175.45 206.95 177.45 207.9 178.5 208.45 179.1 209.15 179.1 210.05 179.1 210.05 178.75
L 210.2 177.7
Q 209.7 176.9 208.4 175.8 208.9 175.1 209.45 173.9 210.05 172.75 210.05 172.55 210.05 172 209.9 171.8 209.75 171.75 209.55 171.65 211.55 171.15 212.05 172 212.65 172.9 212.85 172.9 213.05 172.9 213.6 172.55 214.4 172.15 215 171.6 214 169.9 211.75 169.4 209.75 169.1 209.65 169.1 209.15 169.1 208.1 170.2 207.15 171.3 206.95 171.4
L 208.45 171.5
Q 205.85 172.6 203.7 173.35 202.05 173.95 201.95 173.95
M 179.05 175.1
L 179.05 179.1 184.1 179.1 184.1 175.1 179.05 175.1
M 164.85 187.35
Q 165.65 187.35 165.55 187.15
L 156.25 179.4 155.85 179.95
Q 156.5 178.4 155.75 177.35 155.7 177.25 154.7 176.5 154.1 177.1 153.65 177.85 153.25 178.5 153.25 178.7 153.25 179.6 153.7 180.25 154.1 180.9 154.8 180.9 155.6 180.9 155.7 180.2 160.95 185.45 161.5 185.95 163.15 187.35 164.85 187.35 Z"/>
</g>

<g id="Layer9_0_FILL">
<path fill="url(#Gradient_6)" stroke="none" d="
M 206.4 213.1
Q 203.8 213.95 203.8 215.2 203.8 216.45 206.4 217.3 208.95 218.2 212.65 218.2 216.25 218.2 218.85 217.3 221.45 216.45 221.45 215.2 221.45 213.95 218.85 213.1 216.25 212.25 212.65 212.25 208.95 212.25 206.4 213.1 Z"/>

<path fill="url(#Gradient_7)" stroke="none" d="
M 241.15 215.45
Q 240.95 214.25 238.55 212.55 232.5 208.2 224.75 208.2 222.8 208.2 221.8 208.9 221.1 209.35 221.1 209.95 221.1 211.25 225.2 213.65 230.8 216.85 239 216.85 241.45 216.85 241.15 215.45 Z"/>

<path fill="url(#Gradient_8)" stroke="none" d="
M 109.95 203.45
Q 106.95 202.2 102.65 202.2 98.4 202.2 95.4 203.45 92.4 204.75 92.4 206.6 92.4 208.35 95.4 209.65 98.4 210.9 102.65 210.9 106.95 210.9 109.95 209.65 112.95 208.35 112.95 206.6 112.95 204.75 109.95 203.45 Z"/>

<path fill="url(#Gradient_9)" stroke="none" d="
M 131.5 216
Q 131.5 213.45 128.2 211.7 124.85 209.85 120.15 209.85 115.5 209.85 112.2 211.7 108.85 213.45 108.85 216 108.85 218.5 112.2 220.25 115.5 222.05 120.15 222.05 124.85 222.05 128.2 220.25 131.5 218.5 131.5 216 Z"/>

<path fill="url(#Gradient_10)" stroke="none" d="
M 140.05 204.75
Q 140.05 203.7 137.9 202.9 135.7 202.15 132.65 202.15 129.5 202.15 127.3 202.9 125.2 203.7 125.2 204.75 125.2 205.75 127.3 206.5 129.5 207.25 132.65 207.25 135.7 207.25 137.9 206.5 140.05 205.75 140.05 204.75 Z"/>

<path fill="url(#Gradient_11)" stroke="none" d="
M 140.95 180
Q 141.35 181.4 141.4 182.25
L 141.45 182.75
Q 141.7 182.8 142 182.8 146 182.8 152.45 177.4 155.1 175.15 155.7 173.65 156.3 172.05 153.85 172.05 150.2 172.05 145.3 175.55 141.9 178.1 140.95 180 Z"/>

<path fill="url(#Gradient_12)" stroke="none" d="
M 116.25 192.3
Q 113.25 193.65 113.25 195.55 113.25 197.45 116.25 198.8 119.2 200.1 123.35 200.1 127.5 200.1 130.45 198.8 133.4 197.45 133.4 195.55 133.4 194.85 133 194.2
L 132.9 194.15
Q 132.7 194.05 132.7 193.85
L 132.1 193.3
Q 131.4 192.8 130.45 192.3 127.5 191 123.35 191 119.2 191 116.25 192.3 Z"/>

<path fill="url(#Gradient_13)" stroke="none" d="
M 216.35 162.2
Q 213.6 161.05 209.85 161.05 206.05 161.05 203.4 162.2 200.75 163.3 200.75 164.95 200.75 166.55 203.4 167.7 206.05 168.8 209.85 168.8 213.6 168.8 216.35 167.7 219 166.55 219 164.95 219 163.3 216.35 162.2 Z"/>

<path fill="url(#Gradient_14)" stroke="none" d="
M 176.25 171.3
Q 173.75 169.9 173.1 169.9 170.25 169.9 168.7 171 167.5 171.8 167.5 172.55 167.5 175.25 175.25 175.25 176.8 175.25 178.3 174.75 179.8 174.3 180.65 173.65 180.25 173.45 176.25 171.3 Z"/>

<path fill="url(#Gradient_15)" stroke="none" d="
M 196.15 169.1
Q 199.45 167.9 199.45 166.15 199.45 164.45 196.15 163.25 192.8 162.1 188.15 162.1 183.45 162.1 180.15 163.25 176.8 164.45 176.8 166.15 176.8 167.9 180.15 169.1 183.45 170.25 188.15 170.25 192.8 170.25 196.15 169.1 Z"/>

<path fill="url(#Gradient_16)" stroke="none" d="
M 201.9 170.4
Q 196.05 172.85 194.55 173 194.8 174.25 195.35 174.6 196 174.95 198 174.95 201.6 174.95 204.55 173.35 206.6 172.25 207.5 171 202.75 170.4 201.9 170.4 Z"/>
</g>

<g id="Layer8_0_FILL">
<path fill="url(#Gradient_17)" stroke="none" d="
M 207.85 218.15
Q 206 217.8 205.55 217.75 204.25 218.15 205.85 218.95 207.45 219.7 209.4 219.7 210.2 219.7 211.15 219.4
L 210.65 218.8
Q 209.95 218.6 207.85 218.15
M 231.05 215.7
L 230.9 215.6
Q 223.9 212.9 223.65 212.8 225.4 214.3 226.5 214.85 228.1 215.65 230.6 215.75
L 231.05 215.7 Z"/>

<path fill="#FFFFFF" stroke="none" d="
M 97.8 210
Q 96.75 209.3 94.7 208.35 92.65 207.5 92.5 207.45
L 92.45 207.35 92.4 207.95
Q 93.15 209 94.45 209.85 95.65 210.6 96.4 210.6 97.5 210.6 97.8 210
M 149 188.1
Q 149.1 188.85 149.95 189.85 151.65 190.85 153.65 191.85 153.9 191.9 154.2 192 153.45 191.25 152.4 190.4 149.65 188.05 149.2 187.75
L 149 188.1
M 142.45 182.9
Q 143.1 183.35 145.1 182.75 147.05 182.1 147.8 181.2
L 147.6 181.3
Q 147.25 181.3 145.1 181.9 143.1 182.5 142.35 182.8
L 142.45 182.9 Z"/>

<path fill="url(#Gradient_18)" stroke="none" d="
M 114.55 220.15
Q 110.15 217.5 109.05 216.15 110.2 223 117.9 223
L 120.2 223
Q 118.9 222.7 114.55 220.15
M 133.65 214.5
Q 133.65 213.65 133.45 213.05 133.2 212.45 132.85 212.45 132.6 212.45 132.35 213.05 132.1 213.65 132.1 214.5 132.1 215.35 132.35 216 132.6 216.5 132.85 216.5 133.2 216.5 133.45 216 133.65 215.35 133.65 214.5
M 148 211.8
Q 147.5 214.5 149.1 216 150.7 217.4 154.1 217.4 155 217.4 157.2 217.1
L 156.95 217
Q 156.15 216.75 148 211.8
M 118.5 197.5
Q 113.5 195.05 113.4 195.05 112.95 195.05 112.75 195.35 112.75 195.55 112.65 195.95 113.65 196.45 115.1 198.85 117.15 200.85 121.8 200.85 122.35 200.85 123.1 200.65 123.85 200.45 124.05 200.15 123.5 200.05 118.5 197.5 Z"/>

<path fill="url(#Gradient_19)" stroke="none" d="
M 164.1 178.1
Q 164.8 178.1 165.25 177.85 165.65 177.65 166.4 176.85
L 165.65 176.95
Q 164.1 177.2 160.35 175.35 156.55 173.55 156.25 173.6 156.25 176.3 159.05 177.4 160.8 178.1 164.1 178.1
M 192.15 169.65
Q 195.05 170.2 197.25 169.05 198.4 168.4 199.15 167.5
L 199.05 167.5
Q 197.6 167.75 195.05 168.7 192.55 169.6 192.15 169.65 Z"/>
</g>

<g id="Layer7_0_FILL">
<path fill="#E08716" stroke="none" d="
M 215.1 133.4
Q 212.5 135.85 208.7 138.65
L 210.3 142.3
Q 211.9 146.9 211.4 151.7 206.6 150.95 203.4 150 197.3 148 196.4 142.7
L 189 147.55 194.15 158
Q 195.3 157.65 201.9 155 202.6 155 204.25 155.25 208.25 155.75 209.55 155.95 209.65 155.7 209.65 155.65 209.7 155.45 209.7 156.15 209.7 156.95 210.2 161.75 210.2 166.6 207.65 168.5
L 216.4 169.95 216.95 157.35 219.25 157.3
Q 221.75 157.3 224 159 224.85 159.6 228.85 163.45 230.35 161.45 234.7 157.15 234.35 156.6 233.65 154.75 232.8 152.25 232.1 148.9 225.6 154.6 225.4 154.6 224.7 154.6 220.55 153.45
L 216.55 152.3
Q 217.4 150 220.25 146.1 222.25 143.3 222.25 140.1 222.25 138.95 217.2 131.3 217 131.75 215.1 133.4 Z"/>
</g>

<g id="Layer6_0_FILL">
<path fill="#E0167C" stroke="none" d="
M 226.05 156.8
Q 226.05 158.2 227 159.2 228 160.2 229.4 160.2 230.75 160.2 231.75 159.2 232.75 158.2 232.75 156.8 232.75 155.4 231.75 154.4 230.75 153.4 229.4 153.4 228 153.4 227 154.4 226.05 155.4 226.05 156.8
M 198.3 148.15
Q 197.2 146.95 195.65 146.95 194.1 146.95 193 148.15 191.9 149.25 191.9 150.8 191.9 152.35 193 153.5 194.1 154.6 195.65 154.6 197.2 154.6 198.3 153.5 199.4 152.35 199.4 150.8 199.4 149.25 198.3 148.15
M 212.75 142
Q 213.95 143.2 215.7 143.2 217.4 143.2 218.7 142 219.9 140.75 219.9 138.95 219.9 137.15 218.7 135.95 217.4 134.65 215.7 134.65 213.95 134.65 212.75 135.95 211.45 137.15 211.45 138.95 211.45 140.75 212.75 142 Z"/>
</g>

<g id="Layer5_0_FILL">
<path fill="#E08716" stroke="none" d="
M 172.3 165.45
Q 170.5 161.7 167.1 157.2 163.65 152.65 161.05 150.8 158.7 149.1 155.3 147.6 151.1 145.8 150.4 145.4 145.85 142.8 145.85 136.1 149.45 128.7 149.75 126 141.35 124.5 139.45 124.5 137.35 124.5 134.7 126.65 130.95 129.65 128.8 135.35 130.8 135.1 136.45 140.85 142.35 146.8 142.35 150.1 142.35 152.15 140.2 156.6 138.05 161.05 138.05 162.7 138.05 164 138.55 165.2 140.8 171 142.5 175.85
L 172.3 165.45 Z"/>
</g>

<g id="Layer4_0_FILL">
<path fill="#8A4E13" stroke="none" d="
M 129.15 136.7
L 129.35 137.5
Q 136.55 138.9 136.55 139.3 136.55 139.35 136.4 140.25 136.35 140.4 137 140.4 137.6 140.4 137.3 140.8 137 141.2 137.6 141.2 138.35 141.2 138.65 141 138.8 140.95 139.15 140.7 142.45 152.5 145.1 152.5 146.55 152.5 147 151.9 148 150.65 148.4 150.4 148.75 150.9 150.2 152.25 152.05 154.1 153.15 155.25 147.15 156.9 142.4 161.1 138.65 164.4 138.65 165.5 138.65 166.2 138.95 166.2 139.05 166.15 139.4 166.05 141.35 165.1 148.45 159.3 154.25 155.35 160 154.3 158.75 153.5 149.45 147.2 148.85 147.2 149.1 147.65 149.35 148.15 148.75 148.15 147.95 148.15 146 143.85 143.3 138 143.25 137.9 145 136.15 146.9 136.45 146.8 136.05 146.15 135.75
L 145.5 135.55
Q 146.5 133.85 147.7 132.3 148.4 130.9 148.4 127.45 148.4 126.75 148.3 126.75
L 148.1 126.85
Q 144.9 126.35 143.7 126.35 140.1 126.35 134.65 131.1 133.4 132.25 129.15 136.7
M 168.1 157.75
Q 169 157.75 169.45 156.8
L 168.85 156
Q 158.05 157.3 148.5 162 139.95 166.2 139.95 168.8 139.95 169.55 140.25 169.8 140.3 169.8 140.9 169.95 141.75 169.55 148.85 165.3 155.35 161.3 157.05 160.2 157.1 164.95 158.65 167.7 160 170.35 162.15 170.35 163.35 170.35 165.25 169.35 167.1 168.35 167.1 167.7
L 162.6 158.35
Q 165.55 157.7 168.1 157.75
M 164.4 153.4
Q 163.8 153.4 162.3 153.9 162.15 153.95 162 154 163.05 153.9 164.1 153.9 164.4 153.9 165.1 153.95 165.2 154 165.25 153.8 165.2 153.55 165.2 153.5 165.1 153.4 164.4 153.4 Z"/>
</g>

<g id="Layer3_0_FILL">
<path fill="#FFA706" stroke="none" d="
M 149.45 168.1
Q 149.45 169.9 150.5 171.25 151.5 172.5 152.95 172.5 154.4 172.5 155.45 171.25 156.3 170.1 156.5 168.65 155.7 167 155.45 166.65
L 153.9 164.05
Q 153.85 163.95 153.85 163.85 153.45 163.7 152.95 163.7 151.5 163.7 150.5 165.05 149.45 166.3 149.45 168.1
M 151.4 158.35
Q 150.9 157.5 150.55 157.15 150.1 157.55 148.65 158.5 147.6 159.2 146.85 159.7 147.05 160.3 148.05 162.8
L 152.45 160.3
Q 152.05 159.45 151.4 158.35
M 146.1 147.85
L 145.35 148
Q 141.95 149.5 139.8 154.25 138.4 157.3 138.25 160.35 138 163.45 139.05 164.65 143.95 159.95 147.95 156.8 149.9 155.25 150.85 154.55
L 150.85 153.85 150.75 154
Q 147.5 151.7 146.9 151.4
L 148 150.8 148.5 151.6
Q 148.7 151.8 149.4 151.8 149.6 151.8 150 151.55 148.25 150.15 146.4 148.15
L 146.1 147.85
M 132.65 134.2
Q 132.4 134.4 132.25 134.6 131.75 135 131.85 135.15
L 132.65 134.2 Z"/>

<path fill="#CB8A17" stroke="none" d="
M 136.9 123.85
Q 136.05 123.85 132.75 127.75 129.3 131.85 129.3 133.8 129.3 134.55 129.5 134.8
L 130.1 135.15
Q 131.3 134.5 137.35 129.7 141.45 126.45 145.05 126.45
L 144.15 124.75
Q 138.05 123.85 136.9 123.85 Z"/>
</g>

<g id="Layer2_0_FILL">
<path fill="#F4F4F4" stroke="none" d="
M 150.25 166.6
Q 150.2 166.55 150 166.25
L 149.05 164.55
Q 147.8 164.75 146.95 165.9 146.75 166.2 146.55 166.5
L 147 167.7
Q 148.25 169.9 149.55 172.6
L 149.85 173.25 151.7 172.6 151.85 172.5 152.75 172.1
Q 152.85 172.05 152.9 172.05 153.1 171.7 153.25 171.4
L 153.2 171.35
Q 152.9 170.75 152.85 170.7
L 152.7 170.4 152.6 170 151.15 168.05 150.95 167.65 150.85 167.35
Q 150.55 167.05 150.4 166.9
L 150.4 166.75
Q 150.3 166.65 150.25 166.6
M 147.05 160.55
Q 146.85 160.45 146.55 160.45 145.75 160.45 145.15 161.05 144.75 161.45 144.65 161.95
L 145.5 163.95 146.15 163.5 148.1 162.75
Q 147.4 161.3 147.05 160.55 Z"/>

<path fill="#FFFFFF" stroke="none" d="
M 145.7 152
L 145.75 152.35 145.65 152.4
Q 145.5 152.5 145 152.85
L 145 153.55 144.8 153.8 144.55 153.95
Q 144.45 153.95 144.4 154
L 144.45 156.45
Q 144.45 156.95 144.3 157.2 144.3 157.25 144.25 157.3 144.35 158 144.45 158.75
L 144.6 159.3
Q 145.7 158.4 146.9 157.75 147 157.1 147.15 156.25 147.05 156.6 147 156.95
L 145.7 152
M 137.45 129.65
Q 136.15 127.1 135.5 124.8 135.1 123.1 134.85 122.9 133 125.45 130.6 130 128.5 134 128.05 135.35
L 128.75 135.5
Q 129.8 134.85 130.55 133.55 131.25 132.3 132.8 128.3
L 133.4 129.95
Q 134.2 131.55 134.7 131.85
L 137.45 129.65 Z"/>

<path fill="#B37D7D" stroke="none" d="
M 140.9 139.4
Q 140.2 139.4 140.1 139.5
L 140.1 139.6
Q 140.05 139.65 139.7 139.8 139.5 139.85 139.5 140.55 139.5 141.3 140.6 142.7 141.95 144.5 142.35 145.4 142.8 146.5 143.5 148.75 143.6 149 143.7 149.15
L 144.3 148.9
Q 144.45 148.8 144.65 148.75
L 144.8 148.45
Q 145 148.3 145.35 147.9
L 145.45 147.9
Q 142 139.4 140.9 139.4 Z"/>
</g>

<g id="Layer1_0_FILL">
<path fill="#E51313" stroke="none" d="
M 143.25 159.75
L 142.35 153.25
Q 142.1 152.85 141.35 152.85 140.2 152.85 139.4 154.15 138.6 155.4 138.6 157.2 138.6 159 139.4 160.25 140.2 161.55 141.35 161.55 142.1 161.55 143.25 159.75
M 148.9 149.55
Q 148 149.55 147.3 150.25 146.5 151.05 147.3 153.75 147.75 155.25 149.15 156.2
L 152.4 155
Q 152.1 152.7 151.5 151.75 151.05 151 150.3 150.3 149.45 149.55 148.9 149.55
M 163.95 153.4
Q 164 153.35 164.05 152.8 163.25 151.3 160.6 150.1 158.05 148.95 154.85 148.55
L 154.75 149.3
Q 156.1 150.95 158.9 152.35 161.5 153.65 163 153.65 163.75 153.65 163.95 153.4 Z"/>
</g>

<g id="Layer0_0_FILL">
<path fill="#FFAEAE" stroke="none" d="
M 376.05 146.25
L 375.25 146.2 374.7 147.5 374.6 148.35
Q 374.5 149.25 374.6 149.7
L 375.45 147.7 376.05 146.25 Z"/>
</g>

<g id="Layer0_1_FILL">
<path fill="#FFAEAE" stroke="none" d="
M 382.75 142.3
L 382.35 142.3
Q 381.85 142.8 381.8 142.8
L 381.8 142.7
Q 381.75 142.75 381.75 143.35 381.75 144 381.95 144.25 382.05 144.45 382.25 144.55
L 382.55 144.45
Q 382.8 143.9 382.85 143.65 382.85 143.4 382.75 142.3 Z"/>
</g>
</defs>

<g transform="matrix( 1, 0, 0, 1, 0,0) ">
<use xlink:href="#Layer17_0_FILL"/>
</g>

<g transform="matrix( 1, 0, 0, 1, 0,0) ">
<use xlink:href="#Layer16_0_FILL"/>

<use xlink:href="#Layer16_0_STROKES_1_FILL"/>
</g>

<g transform="matrix( 1, 0, 0, 1, 0,0) ">
<use xlink:href="#Layer15_0_FILL"/>
</g>

<g transform="matrix( 1, 0, 0, 1, 0,0) ">
<use xlink:href="#Layer14_0_FILL"/>
</g>

<g transform="matrix( 1, 0, 0, 1, 0,0) ">
<use xlink:href="#Layer13_0_FILL"/>
</g>

<g transform="matrix( 1, 0, 0, 1, 0,0) ">
<use xlink:href="#Layer12_0_FILL"/>
</g>

<g transform="matrix( 1.1551666259765625, 0, 0, 1.1551666259765625, -293.95,-14.45) ">
<use xlink:href="#Layer12_1_FILL"/>
</g>

<g transform="matrix( 1.1551666259765625, 0, 0, 1.1551666259765625, -293.95,-14.45) ">
<use xlink:href="#Layer12_2_FILL"/>
</g>

<g transform="matrix( 1.1551666259765625, 0, 0, 1.1551666259765625, -293.95,-14.45) ">
<use xlink:href="#Layer12_3_FILL"/>
</g>

<g transform="matrix( 1.1551666259765625, 0, 0, 1.1551666259765625, -293.95,-14.45) ">
<use xlink:href="#Layer12_4_FILL"/>
</g>

<g transform="matrix( 1.1551666259765625, 0, 0, 1.1551666259765625, -293.95,-14.45) ">
<use xlink:href="#Layer12_5_FILL"/>
</g>

<g transform="matrix( 1.1551666259765625, 0, 0, 1.1551666259765625, -293.95,-14.45) ">
<use xlink:href="#Layer12_6_FILL"/>
</g>

<g transform="matrix( 1.1551666259765625, 0, 0, 1.1551666259765625, -293.95,-14.45) ">
<use xlink:href="#Layer12_7_FILL"/>
</g>

<g transform="matrix( 1.1551666259765625, 0, 0, 1.1551666259765625, -293.95,-14.45) ">
<use xlink:href="#Layer12_8_FILL"/>
</g>

<g transform="matrix( 1.1551666259765625, 0, 0, 1.1551666259765625, -293.95,-14.45) ">
<use xlink:href="#Layer12_9_FILL"/>
</g>

<g transform="matrix( 1.1551666259765625, 0, 0, 1.1551666259765625, -293.95,-14.45) ">
<use xlink:href="#Layer12_10_FILL"/>
</g>

<g transform="matrix( 1.1551666259765625, 0, 0, 1.1551666259765625, -293.95,-14.45) ">
<use xlink:href="#Layer12_11_FILL"/>
</g>

<g transform="matrix( 1.1551666259765625, 0, 0, 1.1551666259765625, -293.95,-14.45) ">
<use xlink:href="#Layer12_12_FILL"/>
</g>

<g transform="matrix( 1.1551666259765625, 0, 0, 1.1551666259765625, -293.95,-14.45) ">
<use xlink:href="#Layer12_13_FILL"/>
</g>

<g transform="matrix( 1.1551666259765625, 0, 0, 1.1551666259765625, -293.95,-14.45) ">
<use xlink:href="#Layer12_14_FILL"/>
</g>

<g transform="matrix( 1.1551666259765625, 0, 0, 1.1551666259765625, -293.95,-14.45) ">
<use xlink:href="#Layer12_15_FILL"/>
</g>

<g transform="matrix( 1.1551666259765625, 0, 0, 1.1551666259765625, -293.95,-14.45) ">
<use xlink:href="#Layer12_16_FILL"/>
</g>

<g transform="matrix( 1, 0, 0, 1, 0,0) ">
<use xlink:href="#Layer11_0_FILL"/>
</g>

<g transform="matrix( 1.1551666259765625, 0, 0, 1.1551666259765625, -293.95,-14.45) ">
<use xlink:href="#Layer11_1_FILL"/>
</g>

<g transform="matrix( 1.1551666259765625, 0, 0, 1.1551666259765625, -293.95,-14.45) ">
<use xlink:href="#Layer11_2_FILL"/>
</g>

<g transform="matrix( 1.1551666259765625, 0, 0, 1.1551666259765625, -293.95,-14.45) ">
<use xlink:href="#Layer11_3_FILL"/>
</g>

<g transform="matrix( 1.1551666259765625, 0, 0, 1.1551666259765625, -293.95,-14.45) ">
<use xlink:href="#Layer11_4_FILL"/>
</g>

<g transform="matrix( 1.1551666259765625, 0, 0, 1.1551666259765625, -293.95,-14.45) ">
<use xlink:href="#Layer11_5_FILL"/>
</g>

<g transform="matrix( 1.1551666259765625, 0, 0, 1.1551666259765625, -293.95,-14.45) ">
<use xlink:href="#Layer11_6_FILL"/>
</g>

<g transform="matrix( 1, 0, 0, 1, 0,0) ">
<use xlink:href="#Layer10_0_FILL"/>
</g>

<g transform="matrix( 1, 0, 0, 1, 0,0) ">
<use xlink:href="#Layer9_0_FILL"/>
</g>

<g transform="matrix( 1, 0, 0, 1, 0,0) ">
<use xlink:href="#Layer8_0_FILL"/>
</g>

<g transform="matrix( 1, 0, 0, 1, 0,0) ">
<use xlink:href="#Layer7_0_FILL"/>
</g>

<g transform="matrix( 1, 0, 0, 1, 0,0) ">
<use xlink:href="#Layer6_0_FILL"/>
</g>

<g transform="matrix( 1, 0, 0, 1, 0,0) ">
<use xlink:href="#Layer5_0_FILL"/>
</g>

<g transform="matrix( 1, 0, 0, 1, 0,0) ">
<use xlink:href="#Layer4_0_FILL"/>
</g>

<g transform="matrix( 1, 0, 0, 1, 0,0) ">
<use xlink:href="#Layer3_0_FILL"/>
</g>

<g transform="matrix( 1, 0, 0, 1, 0,0) ">
<use xlink:href="#Layer2_0_FILL"/>
</g>

<g transform="matrix( 1, 0, 0, 1, 0,0) ">
<use xlink:href="#Layer1_0_FILL"/>
</g>

<g transform="matrix( 1.1551666259765625, 0, 0, 1.1551666259765625, -293.65,-14.9) ">
<use xlink:href="#Layer0_0_FILL"/>
</g>

<g transform="matrix( 1.1551666259765625, 0, 0, 1.1551666259765625, -293.95,-14.45) ">
<use xlink:href="#Layer0_1_FILL"/>
</g>
</svg>
